<?xml version="1.0" standalone="no"?>
<!DOCTYPE svg PUBLIC "-//W3C//DTD SVG 1.1//EN" "http://www.w3.org/Graphics/SVG/1.1/DTD/svg11.dtd" >
<svg xmlns="http://www.w3.org/2000/svg" xmlns:xlink="http://www.w3.org/1999/xlink" version="1.1">
<metadata></metadata>
<defs>
<font id="comic_zine_otregular" horiz-adv-x="960" >
<font-face units-per-em="2048" ascent="1638" descent="-410" />
<missing-glyph horiz-adv-x="544" />
<glyph unicode="&#xfb01;" horiz-adv-x="1316" d="M121 -4q0 31 -5 205t-5 205v20q0 10 -5.5 82t-5.5 82v205q0 21 10.5 138t10.5 138q0 5 10 25.5t10 25.5q21 31 31 41q0 4 8 12t16 13l7 6l20 10l10 10l21 41q33 11 43 11q11 0 49.5 5t42.5 5h371q0 -5 10 -20.5t10 -20.5l11 -10v-154q-42 -62 -62 -82l-41 -41 q-74 -10 -94 -10h-31l-31 -10h-20q-5 0 -25.5 -5t-25.5 -5q-4 0 -9.5 -3t-8.5 -5l-3 -3v-102h123l41 10h53l21 -20v-154q-41 -92 -64 -123l-10 -10q-4 0 -9 -2.5t-8 -5.5l-3 -2h-144q-10 -42 -10 -52v-20q0 -5 5 -77t5 -77v-194l-10 -21l-20 -20l-21 -41l-10 -10 q-5 0 -41 -5.5t-41 -5.5q-11 0 -55.5 -10t-48.5 -10l-21 -10h-20l-21 20zM193 57l10 -20h20q9 0 30 5t37 10l17 5v482l10 10q10 0 61.5 5t61.5 5l82 10v82h-205l-10 11l-10 20v266l10 10l31 11l276 41v92h-102q-7 0 -99.5 -10.5t-115.5 -10.5q-5 0 -26.5 -5t-26.5 -5 l-31 -10l-10 -10q-10 -42 -10 -52q0 -11 -5.5 -44t-5.5 -37q0 -12 -5 -143t-5 -165v-164q0 -30 10.5 -194.5t10.5 -194.5zM922 6v174q0 12 -5.5 84t-5.5 82v92q0 5 -5 41t-5 41q-6 39 -13 121t-7 96v350q0 5 5 20.5t5 20.5q5 5 30.5 36t30.5 36q8 8 37.5 24.5t36.5 16.5h51 l146 -10l20 -41q0 -3 8 -125t18.5 -285.5t14.5 -249.5v-163q0 -10 5 -82t5 -82v-53l-30 -31q-21 -21 -21 -31q0 -5 -15.5 -30.5t-15.5 -30.5l-10 -11q-43 -10 -53 -10l-62 -10q-3 0 -52 -5t-62 -5h-21l-20 10zM952 901q0 -32 10.5 -189.5t10.5 -181.5q0 -15 13 -134.5 t20 -172.5q0 -5 5 -42t5 -42l10 -61h102v155q0 15 -5 138t-5 139v104q0 5 -5 31t-5 31v143q0 10 -5 66.5t-5 66.5q0 5 -5.5 31t-5.5 31t-5 36.5t-5 36.5h-10l-84 -10l-20 -10l-11 -20v-146z" />
<glyph unicode="&#xfb02;" horiz-adv-x="1624" d="M121 -4q0 31 -5 205t-5 205v20q0 10 -5.5 82t-5.5 82v205q0 21 10.5 138t10.5 138q0 5 10 25.5t10 25.5q21 31 31 41q0 4 8 12t16 13l7 6l20 10l10 10l21 41q33 11 43 11q11 0 49.5 5t42.5 5h371q0 -5 10 -20.5t10 -20.5l11 -10v-154q-42 -62 -62 -82l-41 -41 q-74 -10 -94 -10h-31l-31 -10h-20q-5 0 -25.5 -5t-25.5 -5q-4 0 -9.5 -3t-8.5 -5l-3 -3v-102h123l41 10h53l21 -20v-154q-41 -92 -64 -123l-10 -10q-4 0 -9 -2.5t-8 -5.5l-3 -2h-144q-10 -42 -10 -52v-20q0 -5 5 -77t5 -77v-194l-10 -21l-20 -20l-21 -41l-10 -10 q-5 0 -41 -5.5t-41 -5.5q-11 0 -55.5 -10t-48.5 -10l-21 -10h-20l-21 20zM193 57l10 -20h20q9 0 30 5t37 10l17 5v482l10 10q10 0 61.5 5t61.5 5l82 10v82h-205l-10 11l-10 20v266l10 10l31 11l276 41v92h-102q-7 0 -99.5 -10.5t-115.5 -10.5q-5 0 -26.5 -5t-26.5 -5 l-31 -10l-10 -10q-10 -42 -10 -52q0 -11 -5.5 -44t-5.5 -37q0 -12 -5 -143t-5 -165v-164q0 -30 10.5 -194.5t10.5 -194.5zM883 1028q0 5 -5.5 25.5t-5.5 25.5v11q0 4 5 11.5t11 12.5l5 6l51 51q8 7 41 24t41 17h123q5 0 30.5 -5t30.5 -5l11 -10q4 -4 8.5 -14.5t6.5 -18.5 l3 -8q0 -5 5 -56.5t5 -56.5l11 -43v-164q0 -15 5 -159t5 -160v-20q0 -11 5 -44.5t5 -37.5l10 -21l10 -10h287l10 -10q11 -82 11 -113v-74q-11 -20 -11 -30l-10 -21q0 -5 -15.5 -20.5t-15.5 -20.5l-30 -31h-51q-5 0 -31 -5t-31 -5q-10 0 -101.5 -5t-101.5 -5q-5 0 -56 -5 t-56 -5h-133l-11 20q0 5 -5 25.5t-5 25.5v136q-10 61 -10 81q0 5 -10.5 72t-10.5 72q0 11 -5 54.5t-5 47.5v64q0 30 -10 199.5t-10 201.5zM954 1028q0 -5 5.5 -78t5.5 -78v-184q0 -9 5 -79t5 -87q10 -51 10 -71q0 -5 5 -31t5 -31q0 -2 5.5 -63.5t5.5 -79.5v-43q0 -11 5 -55 t5 -48h71q5 0 41 5.5t41 5.5h91q10 0 81.5 5t81.5 5l21 10l10 10v84h-336l-10 72q-10 370 -10 524v92q0 4 -5.5 43t-5.5 50l-10 53q-20 10 -30 10h-31q-5 0 -31 -5t-31 -5v-31z" />
<glyph horiz-adv-x="0" />
<glyph horiz-adv-x="682" />
<glyph unicode=" "  horiz-adv-x="544" />
<glyph unicode="&#x09;" horiz-adv-x="544" />
<glyph unicode="&#xa0;" horiz-adv-x="544" />
<glyph unicode="!" horiz-adv-x="653" d="M100 1108q0 10 21 31l31 20l10 10l41 52l10 10q41 10 51 10l62 10h20q5 0 56.5 -5t56.5 -5h51l20 -10q11 -21 11 -31v-153q0 -8 -12 -83t-19 -112q-10 -41 -10 -51q0 -5 -5.5 -61.5t-5.5 -61.5q0 -16 -10 -97.5t-10 -97.5q0 -5 -10 -20.5t-10 -20.5l-11 -30l-10 -21 l-10 -10l-21 -41q-41 -11 -51 -21q-9 -4 -24 -9t-26 -8l-11 -3h-82q0 5 -10.5 20.5t-10.5 20.5l-10 51q0 5 -15.5 51.5t-15.5 51.5q0 10 -5 92t-5 92q0 5 -5 30.5t-5 30.5q0 3 -2.5 44t-5 90t-2.5 71v31q0 5 -5.5 61.5t-5.5 61.5v10zM223 463l10 -31q0 -4 5.5 -17t10.5 -23 l5 -11l10 -10h21q5 0 25.5 10t25.5 10l10 10q0 5 5 20.5t5 20.5v369q0 15 10.5 133t10.5 133v10l-10 11h-154q-4 0 -12 -3t-13 -5l-6 -3v-40q0 -5 5.5 -72t5.5 -72q0 -10 5 -97t5 -97q0 -21 10 -123t10 -123zM223 -8q0 11 -5 54.5t-5 47.5q0 5 -5 25.5t-5 25.5v52 q31 41 41 61l10 10q11 0 54.5 5.5t47.5 5.5q5 0 31 5t31 5h82l20 -10q10 -11 10 -21q0 -4 3 -12t5 -14l3 -5q0 -4 5 -58t5 -65v-51q0 -5 -20.5 -25.5t-20.5 -25.5l-21 -31q-15 0 -92 -5t-92 -5h-41q-21 11 -31 21zM285 104q0 -5 5 -35.5t5 -35.5h41l92 10l10 102l-10 11h-72 q-5 0 -25.5 -5.5t-25.5 -5.5q-4 0 -9 -2.5t-8 -4.5l-3 -3v-31z" />
<glyph unicode="&#x22;" horiz-adv-x="882" d="M27 1130l112 113l21 10q5 0 46 5.5t46 5.5h154l20 -11l23 -20v-72q0 -5 -6.5 -35.5t-6.5 -35.5v-11q0 -4 -5 -37.5t-5 -44.5l-10 -71l-10 -41q0 -5 -15.5 -36t-15.5 -36l-21 -51q-41 -52 -51 -72l-10 -10q-5 0 -46 -5t-46 -5l-41 -11h-31l-20 11q-21 31 -21 41v20 q0 5 -5 51.5t-5 51.5q0 10 -5 92t-5 92l-11 51l-30 41v20zM469 1141l10 30q21 31 31 41q5 5 20.5 26t20.5 26h20q24 0 88.5 -5.5t65.5 -5.5q5 0 30.5 -5t30.5 -5t20.5 -10t20.5 -10l21 -21v-92q-10 -41 -10 -61q-5 -15 -10.5 -46t-10.5 -47l-10 -30q0 -5 -10.5 -51.5 t-10.5 -51.5l-10 -30q0 -5 -15.5 -31t-15.5 -31t-10 -30.5t-10 -30.5l-10 -21q-10 0 -56.5 -5t-56.5 -5h-41l-20 10q-4 0 -9.5 5.5t-8.5 10.5l-3 5q-10 51 -10 71q0 15 -10.5 133t-10.5 134q-10 51 -10 61l-10 51v21zM129 1100v-51q0 -23 5 -115.5t5 -99.5l11 -82l10 -11h71 l11 11l10 20q10 31 10 41q0 5 5 25.5t5 25.5q0 11 10.5 65t10.5 58q0 5 5 41t5 41v31h-174zM561 885q0 -23 5.5 -64t10.5 -71l5 -29h71l11 10l10 31q0 5 5 36t5 36q0 10 5 61t5 61v31q0 5 5.5 31t5.5 31l10 41v10h-72q-5 0 -41 -5t-41 -5v-205zM725 1090q-7 0 -7 -10.5 t7 -10.5t7 10.5t-7 10.5z" />
<glyph unicode="#" horiz-adv-x="1040" d="M121 408q0 5 10 30.5t10 30.5v10l11 43v10h-103l-41 41v11l10 20q8 15 19.5 50t11.5 42l10 52l11 10l20 10l41 43h10q11 0 55 -5t48 -5l10 10v20h-143l-21 11l-10 20v10l10 31q0 5 15.5 36t15.5 36l20 41q0 5 10.5 25.5t10.5 25.5q41 0 143 20q0 6 5 42.5t5 41.5 q31 42 41 52l11 10q4 0 47.5 5t54.5 5h20q5 0 20.5 -5t20.5 -5q4 0 17 -5.5t24 -10.5l11 -5l20 -20v-10l-10 -31q-7 -14 -19 -60t-12 -55q0 -5 -5 -25.5t-5 -25.5h10l51 10q11 11 11 21q0 5 10 30.5t10 30.5q0 4 5.5 17.5t10.5 24.5l5 11l10 31q0 4 5 14.5t10 18.5l5 8 q21 31 31 31l20 10h21q18 0 69.5 -5t53.5 -5l31 -10l10 -11l10 -20v-41l-10 -31q0 -5 -10.5 -42t-10.5 -42l31 -10h21l40 10h11q4 0 9 -5t8 -10l3 -5v-133q-31 -42 -41 -52l-20 -20l-21 -10h-112l-11 -43h113l21 -10l10 -11v-123l-10 -30l-31 -21q-5 0 -20.5 -15.5 t-20.5 -15.5h-113q0 -5 -5 -21t-5 -22l-10 -20q0 -5 -10.5 -30.5t-10.5 -30.5l-10 -21l-10 -10l-41 -10q-5 0 -20.5 -10.5t-20.5 -10.5h-144l-20 10l-10 21v31l10 30q0 3 5 32t5 42v10h-10q-2 -2 -14 -12.5t-19.5 -18.5t-7.5 -12q-10 -20 -10 -30v-21l-41 -82h-225l-21 10 l-10 11v41zM244 563v-10q0 -4 -5 -17t-11 -24l-5 -10q0 -5 -2.5 -13.5t-4.5 -14.5l-3 -5v-51h72q0 5 10 41.5t10 42.5l10 20l11 31l10 20q0 4 5 9.5t10 8.5l5 3h185l30 -10v-52q0 -5 -10 -31.5t-10 -31.5t-5 -25.5t-5 -25.5h51l10 10q0 5 10.5 20.5t10.5 20.5q10 21 10 33 q0 5 10 35.5t10 35.5l11 11q10 0 61 5t61 5l31 10l10 10v21h-133l-10 10v31l10 31q7 14 14 48.5t7 45.5v61q10 0 66.5 5t66.5 5q4 0 12 3t14 5l5 3l10 20v21h-103l-10 10l-10 20v11q0 5 10 30.5t10 30.5t5.5 36.5t5.5 37.5h-52l-81 -166l-11 -10q-71 -11 -102 -11h-123 l-20 21v10q0 18 13.5 46t16.5 36q21 42 21 84v10h-31l-31 -10l-10 -10q-10 -23 -10 -33q0 -5 -10.5 -41t-10.5 -41l-10 -20l-10 -11q-10 0 -56.5 -5t-56.5 -5l-30 -10l-11 -10l-10 -21l31 -10h41l20 10h62q20 -10 30 -20v-11l-20 -41q-5 -10 -20.5 -62t-20.5 -62l-10 -11 l-21 -10h-123l-20 -10q-21 -42 -21 -62v-10h82q5 0 20.5 -5t20.5 -5l10 -10zM356 707l11 20q10 31 10 41l10 53q11 21 21 31l10 10q5 0 20.5 5t20.5 5h174l10 -10v-74q0 -10 -10 -56t-10 -56l-31 -10l-41 -11h-164q-7 0 -19 11.5t-12 19.5v21zM571 821h-51q-10 -10 -10 -20 l-10 -33h61q10 21 10 33v20z" />
<glyph unicode="$" horiz-adv-x="874" d="M313 -49v133l-20 10l-51 31l-52 51q-5 5 -25.5 41t-25.5 41q0 5 -10 29.5t-10 29.5t-10.5 26t-10.5 26v30q0 5 5.5 31t5.5 31l10 10l51 41q31 10 41 10h82q11 0 39.5 -5t32.5 -5q20 -10 20 -20q0 -4 5.5 -14.5t10.5 -18.5l5 -8v-41l10 -31l30 -31l21 -10q4 0 14.5 5 t18.5 10l8 5q10 21 10 31v41q-20 31 -20 41l-21 21q-7 7 -30 18.5t-31 11.5q-5 0 -46 10.5t-46 10.5q-9 0 -29.5 5t-36.5 10l-16 5q-5 0 -26 10.5t-26 10.5l-10 10l-51 41q-31 31 -31 41q0 5 -10 36t-10 36v112l10 41l10 51q41 82 41 92q1 1 20 21.5t36 37.5t26 21l41 21 l21 20v82l-11 41v51q0 4 3 12t5 13l3 6l20 21q21 20 31 20l20 10l31 31h10q10 0 82 -10t82 -10l21 -11l10 -10q0 -4 5 -9t10 -8l5 -3v-154q21 -20 31 -20q4 -4 17 -12t24 -13l10 -6q31 -21 31 -31l10 -20l21 -21q8 -8 19 -30t11 -29q8 -15 19.5 -61.5t11.5 -61.5v-41 q-10 -31 -20 -41l-11 -10l-10 -41l-20 -11q-5 0 -56.5 -5t-56.5 -5t-20.5 -5t-20.5 -5l21 -20l30 -11q52 -41 62 -51l20 -20l41 -52q21 -31 21 -41l10 -30l10 -21l10 -41v-41q0 -5 -5 -35.5t-5 -35.5q-10 -21 -10 -31l-10 -21l-11 -28l-10 -21l-10 -10l-10 -20l-62 -62 q0 -5 -10 -20.5t-10 -20.5t-5 -56t-5 -56q-42 -42 -52 -62l-20 -20l-21 -11q-5 0 -25.5 -5t-25.5 -5h-174zM395 12l11 -10h92q4 0 9 2.5t8 5.5l3 2v123l92 92q41 41 41 52q8 8 19.5 30t11.5 29q0 4 5 37.5t5 44.5v51q0 5 -5 25.5t-5 25.5t-10 20.5t-10 20.5l-31 41 q-41 21 -51 31l-21 10l-20 21l-41 20l-11 10l-51 11l-30 10q-4 4 -17 12t-24 13l-11 6l-61 61l-10 20l-11 41v62q11 21 11 31l10 20q0 4 7.5 12t15.5 13l8 6l20 10l31 10h92l31 -10q31 -21 41 -31l10 -10q0 -4 15.5 -37.5t15.5 -44.5l10 -41h51q5 0 30.5 5t30.5 5v11 q0 11 -10 49.5t-10 42.5l-10 20l-41 51q-31 29 -41 29q-21 10 -56.5 25.5t-56.5 25.5l-10 11l-10 20v133h-103v-174l-20 -10q-5 0 -36 -19.5t-36 -19.5l-31 -31l-20 -30l-31 -41q-20 -42 -20 -62l-10 -41v-133l10 -20l41 -41l20 -11q5 0 31 -10t31 -10t46 -10.5t46 -10.5 l41 -10q5 0 25.5 -10t25.5 -10q7 0 25 -11.5t26 -19.5l41 -31q21 -51 31 -71q0 -5 5 -20.5t5 -20.5v-62q-41 -41 -51 -59l-21 -21q-20 -20 -30 -20l-21 -10h-51q-41 20 -51 20l-10 10l-52 60q-8 8 -19 26t-11 25h-72l-10 -10v-21q0 -33 3 -45.5t17 -34.5q4 -4 12 -17t13 -23 l6 -11l20 -20l21 -11l31 -10q4 0 14.5 -5t18.5 -10l8 -5q4 0 11.5 -5t13.5 -11l5 -5v-123zM416 901q0 -5 5 -25.5t5 -25.5l10 -10q8 -8 36.5 -24.5t35.5 -16.5h10v10l-10 82q-10 21 -10 31q0 9 -21 30l-20 11l-31 -11l-10 -20v-31z" />
<glyph unicode="%" horiz-adv-x="974" d="M410 111q0 4 -5 18t-6 18q-1 -3 -6.5 -17t-9.5 -26t-4 -16l-21 -31l-41 -41q-8 -8 -36 -24.5t-35 -16.5h-31q-18 0 -78.5 10.5t-62.5 10.5q-5 0 -20.5 10t-20.5 10l-10 21v10l10 31l30 43q0 5 20.5 41t20.5 41t26 35.5t26 35.5t19.5 31t19.5 31l10 10l10 21l10 10 q21 21 21 31q4 9 17 28.5t23.5 35.5t10.5 20l10 20l21 31v10l-21 -10q-5 0 -30.5 -5.5t-30.5 -5.5h-41l-21 11l-28 10q-4 0 -14.5 5t-18.5 10l-8 5q-31 21 -41 31l-21 21l-20 30v41l-10 21l-21 63v113q10 31 10 41l11 31l10 51q0 7 16.5 36.5t24.5 37.5l51 51q7 0 28 15.5 t31 25.5q4 4 14.5 9t18.5 8l8 3h154q31 -10 41 -20q4 0 12 -5t14 -11l5 -5l38 -41q4 -7 14.5 -24t18.5 -30.5t8 -18.5v-173q2 11 41 50l21 41q0 5 25.5 35.5t25.5 35.5l10 54q11 20 21 20q21 20 31 20l20 11q4 4 19.5 9t28.5 8l13 3h50q11 0 59.5 -5t52.5 -5t9.5 -2.5 t8.5 -4.5l3 -3v-41l-11 -21q-5 -5 -30.5 -42t-30.5 -42l-10 -20q-4 -4 -12 -17t-13 -24l-6 -10l-10 -11q-5 -5 -40 -71.5t-40 -71.5l-10 -10l-21 -33l-10 -10q0 -5 -20.5 -36t-20.5 -36q-31 -41 -31 -51l-10 -21l-10 -10q0 -5 -15.5 -30.5t-15.5 -30.5h154q5 0 25.5 -5 t25.5 -5q29 -21 39 -31l20 -21l41 -53q0 -5 10.5 -36t10.5 -36v-82q-11 -51 -21 -71q-5 -10 -10 -25.5t-10 -25.5q0 -7 -16 -31t-25 -33q0 -5 -15.5 -20.5t-15.5 -20.5l-8 -10q-65 -42 -102 -51q-4 0 -12 -3t-13 -6l-6 -2h-72q-5 0 -41 10.5t-41 10.5l-20 20l-29 21l-10 10 l-31 41q-20 54 -20 64zM471 141q0 -5 5 -31.5t5 -31.5q0 -4 4.5 -12t9.5 -14l5 -5l30 -10l21 -21h31l10 -10h51q41 11 51 21l21 10q4 0 11.5 7.5t13.5 15.5l5 8q21 33 21 43l41 92q8 51 8 61v21q-8 20 -8 30q0 4 -5.5 17t-10.5 24l-5 11q-20 20 -20 30l-10 11l-21 12l-51 10 l-20 10h-11l-61 -20q-8 0 -41 -33q-21 -31 -31 -41l-10 -20l-29 -72q0 -4 -5 -32.5t-5 -39.5v-41zM94 57q5 0 20.5 -5t20.5 -5h49q20 40 31 53l10 11l11 20q5 5 30.5 46t30.5 46l20 41l31 41q5 5 31 46t31 46l10 11l20 43l21 30q0 5 19.5 36t19.5 36q30 41 30 51l11 21 l30 41q0 4 5.5 11.5t10.5 12.5l5 6l10 21q5 5 41 72.5t41 72.5l10 21l21 20l20 31q9 14 21.5 39.5t21.5 44.5l8 18v23q-5 0 -35.5 -6t-35.5 -6l-31 -41l-10 -11l-10 -20q-8 -8 -24.5 -36.5t-16.5 -35.5l-21 -31l-10 -20l-21 -51l-10 -10l-31 -41l-10 -23l-20 -31l-11 -10 l-28 -41q-5 -5 -46 -76.5t-46 -76.5l-11 -11l-10 -20l-20 -21l-21 -43l-20 -20l-11 -21l-10 -30q-7 -7 -30 -42.5t-31 -50.5l-21 -20q-20 -31 -28 -41l-21 -31l-20 -20q-21 -43 -21 -53v-11zM520 213q10 21 10 31q4 4 9.5 17t8.5 23l3 11q31 41 41 51l10 10l31 21h92 q7 0 19 -11.5t12 -19.5q0 -5 10 -25.5t10 -25.5v-31q-10 -41 -10 -51q0 -5 -5 -20.5t-5 -20.5q0 -4 -3 -12t-5 -14l-3 -5l-10 -20q-20 -33 -30 -33l-21 -10l-31 -21h-41l-20 11l-10 10l-31 10l-10 12q0 5 -10.5 31t-10.5 31v51zM63 791l11 -31l10 -43q41 -52 61 -72l11 -10 h8l31 -10h41l20 10q4 0 12 5t14 10l5 5l41 41q20 54 30 64q0 5 10.5 25.5t10.5 25.5l10 41l10 31v92q0 5 -5 30.5t-5 30.5q0 4 -7.5 15t-15.5 19l-8 9h-10q0 -5 10.5 -31.5t10.5 -31.5q10 -92 10 -133v-11q-19 -76 -41 -122l-10 -11q-4 -5 -17 -16t-24 -19l-11 -8 q-41 -10 -51 -10h-20l-60 64q-10 31 -10 41v102q10 31 10 41q0 4 2.5 12t5.5 14l3 5q0 5 9 20.5t9 20.5q0 4 5 11.5t11 12.5l5 6q5 0 30.5 21.5t30.5 21.5l10 11l21 10q5 0 25.5 -5t25.5 -5v10l-10 10l-21 10h-102q-5 0 -20.5 -15t-20.5 -15l-8 -11l-21 -32l-31 -41l-10 -21 l-10 -31q-7 -13 -14 -47.5t-7 -44.5v-71zM236 821l10 -20h10l20 20l11 21l10 30v113l-10 10q0 -5 -10.5 -20.5t-10.5 -20.5l-10 -10q0 -5 -10 -30.5t-10 -30.5v-62zM694 305l-20 -20q-21 -42 -21 -52l-10 -40v-52h10l21 11l10 20l10 31q0 5 5.5 30.5t5.5 30.5v31zM520 862 q-8 0 -8 -10t8 -10t8 10t-8 10z" />
<glyph unicode="&#x26;" horiz-adv-x="1087" d="M35 106v144q0 4 5 36.5t5 43.5l10 51l11 10q0 5 20 41t20 41q4 4 12 17t14 24l5 10q10 10 61.5 77t61.5 77l41 41l-10 31q-8 33 -19.5 96.5t-11.5 77.5v71q0 4 5 41.5t5 48.5q18 109 49 164l11 11l41 51l10 10q5 5 30.5 20.5t30.5 20.5q4 4 17 12t24 14l11 5l41 10l20 10 l31 10l41 21h82q15 0 61 -11.5t61 -19.5q21 -20 29 -20l51 -52l11 -20l10 -31q4 -9 9 -29.5t8 -36.5l3 -16v-51q-10 -52 -20 -72l-10 -28q0 -4 -5 -17t-11 -24l-5 -10q-3 -6 -16.5 -36.5t-26 -56.5t-16.5 -30q-41 -62 -51 -82l-21 -31q0 -5 -20.5 -36t-20.5 -36l-31 -41 l-10 -20q0 -5 5 -25.5t5 -25.5q21 -52 31 -72q0 -4 2.5 -9t4.5 -8l3 -3l41 -41q0 5 5.5 25.5t5.5 25.5t25.5 51t25.5 51v41q10 21 18 31l21 20l61 41h41l21 -10q5 0 40.5 -5t40.5 -5l21 -10l10 -11q0 -5 5 -35.5t5 -35.5l11 -11v-10l-21 -31q0 -5 -5 -30.5t-5 -30.5 q-10 -31 -10 -41q0 -4 -3 -12t-5 -13l-3 -6l-10 -20l-10 -31q0 -5 -15.5 -30.5t-15.5 -30.5l-10 -31v-39l10 -20l21 -31q10 -31 10 -41v-10q0 -5 -10.5 -26t-10.5 -26q-20 -20 -20 -30l-10 -10h-10l-82 -82l-21 -31h-10q-5 0 -24.5 10t-24.5 10l-31 21l-20 10l-41 31 l-31 -21l-41 -20l-21 -21q-5 0 -46 -20.5t-46 -20.5l-20 -10q-52 -10 -72 -10q-11 0 -49.5 -5t-42.5 -5h-31q-5 0 -45 15t-45 15h-20l-31 21l-21 10q-5 0 -25.5 15.5t-25.5 15.5q-4 0 -12 5t-13 10l-6 5l-10 11l-20 41l-10 10h-11l-10 10zM96 199v-41q0 -5 10.5 -31 t10.5 -31l30 -30q21 -21 31 -21q4 -4 17 -12t23 -13l11 -6l31 -10q5 0 25 -10t24 -10h174q52 10 62 20q7 0 30 11.5t31 19.5l72 41q5 5 30.5 25.5t30.5 25.5h11l30 -10l41 -11l21 -40l10 -11l18 11l21 30l20 21v20l-10 21l-31 30q-18 31 -18 41v11l8 20l21 29q8 8 19 26 t11 25l11 20q3 11 14 41.5t19 54t8 27.5q0 5 5 46t5 46h-62q-41 -71 -51 -102l-8 -31l-10 -20l-11 -31q-4 -4 -9 -17t-8 -24l-3 -10l-41 -41l-20 -10l-21 10l-20 20q-21 21 -21 31q0 5 -20.5 36t-20.5 36q-5 5 -20.5 30.5t-20.5 30.5q0 5 -25.5 31t-25.5 31l-10 51l-10 31 v20l10 21l143 143l41 51l10 10l62 123q10 21 10 31l10 39v164q0 5 -10 20.5t-10 20.5l-21 20l-20 10l-31 21l-20 10q-5 0 -31 5t-31 5h-20q-14 0 -29 -5t-34 -13.5t-29 -11.5l-31 -11q-4 -4 -19.5 -11.5t-28.5 -12.5l-14 -6l-30 -31l-11 -20l-10 -11l-10 -20 q-4 -14 -14.5 -37t-18.5 -39l-8 -16q0 -4 -5 -47t-5 -54v-123l10 -51q0 -5 5 -30.5t5 -30.5t15.5 -31t15.5 -31v-20q0 -4 -2.5 -9.5t-4.5 -8.5l-3 -3h-31l-59 -61l-21 -31l-82 -92l-41 -82q-41 -81 -41 -192zM188 240q0 5 5.5 20.5t5.5 20.5q0 4 10 24t10 25q21 20 21 30 l30 41l70 72q5 5 30.5 25.5t30.5 25.5q31 21 41 21h11l51 -10l10 -41q8 -8 36.5 -64.5t35.5 -79.5l20 -31l10 -20q5 -5 31 -40t31 -40v-20q-31 -42 -51 -52l-21 -10l-10 -10q-52 -21 -72 -31q-4 -4 -17 -9t-23 -8l-11 -3h-102q-5 0 -31 5t-31 5l-28 10q-4 0 -14.5 5 t-18.5 11l-8 5l-21 41l-20 20q-11 21 -11 31v31zM391 1016q0 5 5 34.5t5 34.5q11 42 21 52q20 40 31 51l20 20q41 21 51 31l21 10q5 0 35.5 5.5t35.5 5.5h21l51 -11l10 -10l41 -31q0 -5 10.5 -30.5t10.5 -30.5v-51q0 -4 -10.5 -36.5t-10.5 -43.5l-10 -21q-5 -5 -25.5 -35.5 t-25.5 -35.5l-10 -11q-81 -81 -103 -92l-10 -20q-51 -21 -61 -31h-11l-20 10l-10 11q0 5 -15.5 30.5t-15.5 30.5q-10 21 -10 31q-4 9 -9.5 29.5t-8.5 36.5l-3 16v51zM371 168l10 -10l20 -11h31q31 11 41 11l31 10q5 5 41 20.5t41 20.5v10l-11 21l-10 10l-20 31l-10 8l-11 20 l-20 31q0 5 -10.5 20.5t-10.5 20.5l-10 -10l-10 -21l-21 -10l-10 -10l-31 -41l-10 -8q-4 -4 -9 -14.5t-8 -18.5l-3 -8v-72zM555 985q0 -5 5 -30.5t5 -30.5q27 13 45 32.5t37 49.5l21 30q0 5 10 30t10 30v41l-10 20l-21 21l-20 10h-10l-21 -21l-31 -20l-10 -21q0 -5 -5 -35 t-5 -34v-72zM647 147q7 0 7 -10t-7 -10t-7 10t7 10zM657 127v-10h-10z" />
<glyph unicode="'" horiz-adv-x="448" d="M37 1182q10 51 20 61q21 21 21 31q0 4 8 12t16 14l9 5l20 10h31q15 0 103.5 -5t105.5 -5l30 -21l31 -31v-51q-10 -54 -10 -74l-10 -61q0 -5 -15.5 -46t-15.5 -46t-5 -36t-5 -36t-6.5 -20.5t-6.5 -20.5t-10 -26.5t-10 -26.5l-21 -31l-10 -30q0 -5 -10 -20.5t-10 -20.5 q-5 0 -47 -5.5t-47 -5.5h-82l-13 21q0 5 -5 20.5t-5 20.5t-5 41t-5 41q0 12 -5 109.5t-5 107.5q0 5 -5.5 30.5t-5.5 30.5t-10 32t-10 32zM152 778l10 -10h61l10 10l13 21l10 41q0 6 5 78t5 77q10 52 10 72q0 9 3 24t5 26l3 11l10 11v10l-10 12h-84q-5 0 -36 -6t-36 -6v-31 q0 -15 5 -96.5t5 -97.5q0 -10 5.5 -73t5.5 -73z" />
<glyph unicode="(" horiz-adv-x="618" d="M532 1323l50 -10q5 0 35.5 -5t35.5 -5q21 -11 21 -21l10 -20v-21q-10 -41 -20 -51l-11 -21q-5 -5 -20.5 -30.5t-20.5 -30.5l-10 -10q0 -4 -5 -12t-10 -14l-5 -5q0 -6 -14.5 -37.5t-14.5 -36.5l-21 -41q0 -5 -10 -30.5t-10 -30.5l-10 -21l-10 -41q0 -5 -10.5 -30.5 t-10.5 -30.5q-10 -41 -10 -51q-21 -107 -21 -154v-33q0 -36 5 -79.5t14 -96.5t12 -80q0 -10 10.5 -87t10.5 -87q10 -20 10 -30l20 -52l31 -84v-30q-31 -52 -41 -72l-10 -10q-5 -2 -31.5 -16.5t-47 -24.5t-24.5 -10q-5 0 -34.5 -5.5t-34.5 -5.5l-31 -10q-4 0 -14.5 5 t-18.5 11l-8 5l-41 82v10l-10 10l-10 31l-21 41q0 5 -9 30.5t-9 30.5q0 6 -20.5 42.5t-20.5 41.5l-11 41l-20 41q-7 13 -13.5 52t-6.5 50v361q0 10 6.5 51t13.5 62q0 5 10 35.5t10 35.5t20.5 51.5t20.5 51.5l11 41q0 5 19.5 35.5t19.5 35.5l10 21q4 5 20 31.5t21 31.5l10 10 q21 42 31 52l10 20q0 4 5 12t10 14l5 5l11 10q4 0 11.5 5.5t12.5 10.5l6 5q6 7 39 24t41 17q5 0 31 10t31 10h30zM207 39l51 -115q0 -4 5 -14.5t11 -18.5l5 -8q20 -31 30 -41l10 -10h21l49 10q21 11 31 21l10 10v10q0 5 -15.5 41t-15.5 41q-4 15 -19 67t-27.5 96.5 t-12.5 53.5q0 2 -10.5 58.5t-10.5 74.5q0 11 -5 60t-5 53v166q0 4 5 53t5 60q0 18 10.5 79.5t10.5 63.5q10 51 20 61q25 86 91 187l20 30q0 4 5.5 14.5t10.5 18.5l5 8v11q-5 0 -20.5 5t-20.5 5h-52q-20 -11 -30 -21l-19 -20l-20 -41l-11 -10l-30 -54l-10 -10 q0 -5 -20.5 -30.5t-20.5 -30.5l-11 -10q0 -5 -10 -31t-10 -31t-20.5 -56.5t-20.5 -56.5t-9.5 -30.5t-9.5 -30.5t-5 -20.5t-5 -20.5q0 -11 -5 -39.5t-5 -32.5v-309q0 -5 5 -25.5t5 -25.5q0 -11 10.5 -44.5t10.5 -37.5q0 -5 9 -30.5t9 -30.5t15.5 -31t15.5 -31v-10z" />
<glyph unicode=")" horiz-adv-x="630" d="M20 -209v10l11 41q0 5 15 36t15 36l11 31l10 20q0 5 10 25.5t10 25.5q7 7 19 45.5t12 47.5q10 31 10 41q0 6 10.5 52.5t10.5 51.5l10 31q0 10 5 76.5t5 76.5v267q-10 61 -10 81l-10 72l-10 31l-11 41l-10 33l-20 51l-11 30q0 5 -15 41t-15 41q0 4 -3 12t-5 14l-3 5v31 l72 72q52 30 62 40q7 7 25 14t26 7h10l31 -10l51 -11h51l21 -10q20 -41 30 -51q8 -8 19.5 -31t11.5 -30l10 -41q0 -5 20.5 -51.5t20.5 -51.5t10.5 -35.5t10.5 -35.5t10 -32t10 -32q0 -13 15.5 -73.5t25.5 -90.5l10 -51v-205q-10 -41 -10 -51q0 -5 -5 -20.5t-5 -20.5 t-10.5 -36t-10.5 -36l-10 -41l-92 -186q0 -5 -20.5 -46t-20.5 -46l-10 -21q0 -5 -15.5 -35.5t-15.5 -35.5q0 -4 -2.5 -9.5t-4.5 -8.5l-3 -3q0 -4 -7.5 -11.5t-15.5 -13.5l-8 -5l-41 -21l-41 -31q-5 0 -30.5 -10t-30.5 -10t-31 -5t-31 -5h-102zM246 356q0 -4 -5 -47.5 t-5 -54.5l-11 -41q0 -5 -5 -42t-5 -42q-10 -31 -10 -41q0 -5 -15.5 -46t-15.5 -46l-10 -21l-10 -30q-4 -7 -19.5 -52t-21.5 -51h61l31 21q41 51 51 71q10 16 25.5 41t25.5 41q9 18 31 57.5t37 70.5t24 59q0 5 10.5 30.5t10.5 30.5q0 17 31 113l10 41v133q0 10 -5 82t-5 82 q-11 51 -11 61l-10 51q0 5 -10 36t-10 36q0 4 -3 12t-5 13l-3 6q-5 6 -30.5 63t-30.5 62l-10 30l-11 21q0 4 -5 12t-10 14l-5 5l-10 10q-31 10 -41 10h-21q-5 0 -41 -5t-41 -5v-10q0 -5 10.5 -26t10.5 -26t15.5 -51t15.5 -51l10 -31q31 -102 31 -125q0 -5 5 -35.5t5 -35.5 v-400z" />
<glyph unicode="*" horiz-adv-x="1003" d="M143 428q0 6 10.5 22t10.5 21l31 31l10 30q31 52 41 72q30 41 30 51v21q-10 0 -66.5 5t-66.5 5q-5 0 -30.5 5t-30.5 5l-41 11l-10 10v51q0 5 10 31.5t10 31.5l10 41q5 16 20.5 52t20.5 51l11 20q0 4 5 9.5t10 8.5l5 3q5 0 25.5 5t25.5 5h72q13 0 47.5 -20.5t44.5 -30.5 v20q0 24 -5 83.5t-5 92.5v11l10 20v31q5 5 46 30.5t46 30.5l21 11h102q4 0 58 -10.5t65 -10.5l21 -10v-82q0 -5 -5.5 -37t-5.5 -37l-10 -31q-4 -9 -9 -26.5t-8 -30.5l-3 -14v-21q5 0 25.5 10.5t25.5 10.5t35.5 15.5t35.5 15.5l31 10h31q5 0 30.5 -5t30.5 -5l11 -11 q0 -4 5 -11.5t10 -12.5l5 -6q0 -5 10.5 -31t10.5 -31l10 -10v-51l10 -21l-20 -20l-21 -41l-10 -10q-4 0 -12 -5.5t-14 -11.5l-5 -6l-31 -10q-5 0 -25.5 -10.5t-25.5 -10.5l-20 -10l-31 -10l-31 -21q5 -5 25.5 -41t25.5 -41q2 -2 19 -17t30 -27.5t13 -16.5v-92l-10 -21 q0 -5 -7.5 -13t-19.5 -18t-14 -12l-31 -20q-15 -7 -54.5 -47.5t-47.5 -55.5q-5 0 -20.5 10.5t-20.5 10.5l-11 10q-5 5 -30.5 61.5t-30.5 61.5l-10 12l-11 -12l-10 -31l-10 -10q-5 -5 -20.5 -41t-20.5 -41q-5 0 -20.5 -5t-20.5 -5l-10 -21q-31 -20 -41 -20h-21l-41 31l-30 10 q-5 0 -20.5 10t-20.5 10l-10 11q-5 0 -36 20.5t-36 20.5q-4 0 -9.5 5t-8.5 10l-3 5v41zM225 408l41 -21l31 -20q4 0 14.5 -5.5t18.5 -10.5l8 -5h10q0 5 10.5 20.5t10.5 20.5l10 31q0 5 20.5 42t20.5 42l10 30l10 21l21 31q0 5 15.5 25.5t15.5 25.5h30q21 -11 21 -21 q8 -8 19 -26t11 -25l21 -51l10 -20q7 -7 19 -36.5t12 -37.5l10 -31l10 -20l93 94v10q0 4 -5 14.5t-11 18.5l-5 8l-20 20q-52 52 -52 62l-10 20l-20 21l-31 41v41l10 10q8 0 31 11.5t31 19.5q86 43 92 43l41 10q5 0 20.5 10t20.5 10l10 11q-10 31 -10 41q0 4 -5 17t-11 24 l-5 10l-20 20h-11q-10 0 -92 -41q-7 -7 -30 -18.5t-31 -11.5l-31 -21q-4 0 -9 -2.5t-8 -5.5l-3 -2q-31 10 -41 20q-4 0 -9.5 5t-8.5 11l-3 5v41l10 31l11 41q3 17 11.5 48.5t13.5 57t5 49.5h-10l-112 -10l-11 -10v-279l-20 -10h-21q-5 0 -25.5 5t-25.5 5q-9 0 -29.5 5 t-36.5 11l-16 5q-51 20 -71 30l-21 11h-10q0 -5 -10.5 -20.5t-10.5 -20.5q0 -4 -5 -17t-10 -24l-5 -11q-10 -41 -10 -53v-10q5 0 20.5 -5t20.5 -5t61 -5t61 -5t36 -5.5t36 -5.5l21 -10v-51q-21 -52 -31 -62l-10 -10l-21 -41q0 -5 -15.5 -25.5t-15.5 -25.5l-10 -20l-10 -11 q-4 -4 -12 -17.5t-14 -24.5l-5 -11v-20z" />
<glyph unicode="+" horiz-adv-x="952" d="M307 401h-41l-39 -10q-5 0 -41 -5t-41 -5h-51l-10 10q-10 31 -10 41v21q0 5 -5.5 35.5t-5.5 35.5q0 2 -5 63t-5 79v10l72 82h182v172q5 5 36 25.5t36 25.5q4 0 11 6t18 15t20 14l141 12l68 -10l14 -25l4 -37v-157q10 0 55.5 -5.5t55.5 -5.5h113l20 -10v-192l-10 -21 l-31 -30q-20 -21 -20 -31q0 -5 -10.5 -20.5t-10.5 -20.5q-5 0 -41 -5t-41 -5l-41 -11v-112q-4 0 -11 -5t-12 -9l-5 -5l-11 -20q-5 -5 -20.5 -31t-20.5 -31l-10 -10l-31 -10q-17 0 -80.5 -10.5t-72.5 -10.5h-82q-11 11 -21 11l-10 10v192zM348 483l31 -10v-203h82l82 11 l10 10q10 60 10 80q0 10 5 56t5 56l21 21q21 10 31 10h30q40 10 50 10l40 11l11 10v131q-5 0 -45 -5t-45 -5t-41 -10.5t-41 -10.5h-41q-11 11 -11 21l-10 30v72q0 10 -5 56.5t-5 56.5h-113q-4 0 -11.5 -2.5t-13.5 -5.5l-5 -3v-215q-21 -10 -31 -10l-31 -10q-10 0 -81 -5 t-81 -5l-10 -29v-41q0 -5 5 -46t5 -46h72l41 10q4 0 29 5t30 5h31z" />
<glyph unicode="," horiz-adv-x="532" d="M-80 -240l174 174l21 41l-11 11q-5 0 -40.5 20.5t-40.5 20.5l-11 10l-10 20v11q0 5 5 30.5t5 30.5t5.5 20.5t5.5 20.5t20 61.5t20 61.5v20l11 11q82 82 102 92h92l31 -10h123l51 -31v-123q0 -5 -5 -46t-5 -46t-10.5 -46t-10.5 -46q-10 -42 -20 -52l-10 -20q0 -7 -16 -30 t-25 -32q-5 -5 -26 -35.5t-26 -35.5l-30 -41l-51 -41l-62 -62q-31 -20 -41 -30l-20 -11l-92 -40h-21l-20 20l-21 31l-20 20q-21 31 -21 41v10zM-8 -250q0 -8 12 -19.5t19 -11.5q30 11 40 11q21 20 31 20l51 41l72 72q21 21 21 31q4 4 11.5 17t12.5 23l6 11q0 5 10.5 41 t10.5 41t15 46t15 46l11 41v71q-5 0 -25.5 5.5t-25.5 5.5h-82l-72 -11l-31 -61q0 -5 -10 -30.5t-10 -30.5v-31l10 -10l31 -11l20 -10l41 -10q4 0 9.5 -5t8.5 -10l3 -6v-51q-21 -31 -31 -41q0 -5 -20.5 -25.5t-20.5 -25.5l-21 -31l-41 -41q-30 -20 -40 -30z" />
<glyph unicode="-" horiz-adv-x="851" d="M51 692l10 21q52 31 72 41l21 10q5 0 25.5 15.5t25.5 15.5q10 0 83 5t83 5h10q5 0 77 5t77 5h247l21 -20q10 -62 10 -93v-71q0 -4 -10.5 -14.5t-20.5 -18.5l-10 -8l-31 -51l-10 -11q-15 0 -98 -10t-98 -10l-41 -10q-5 0 -72 -5.5t-72 -5.5l-51 -10q-5 0 -42 -5t-42 -5 t-36 -5t-36 -5h-51q-8 0 -19.5 11.5t-11.5 18.5v52q0 5 -5 56t-5 56v41zM659 672h-309q-2 0 -48.5 -5t-65.5 -5q-5 0 -36 -5.5t-36 -5.5l-31 -10v-92h62q5 0 57 5t57 5h10q5 0 67 10.5t67 10.5q10 0 87 5t89 5l30 10v72z" />
<glyph unicode="." horiz-adv-x="385" d="M57 164l11 92q0 7 28.5 35t44.5 35q31 10 41 10h125q5 0 20.5 -10.5t20.5 -10.5l10 -20q0 -4 5.5 -46.5t5.5 -53.5v-41q0 -5 -20.5 -40.5t-20.5 -39.5l-11 -31l-10 -10l-22 -10q-5 0 -20.5 -5.5t-20.5 -5.5q-10 0 -73 -10t-73 -10l-20 10q-10 21 -10 31q0 5 -5.5 29.5 t-5.5 29.5v72zM254 195h-82l-43 -11q-10 -41 -10 -51v-70l125 11q10 18 10 28v93z" />
<glyph unicode="/" horiz-adv-x="618" d="M-33 31v92q10 31 10 41q5 10 20.5 61.5t20.5 61.5q0 5 15.5 42t15.5 42q5 10 31 92t31 92q0 5 10 25.5t10 25.5l10 51l11 11q20 41 20 51l10 31l21 41q75 169 112 278l11 31q0 10 51 61l41 41h133q31 -10 41 -10q5 0 25.5 -10.5t25.5 -10.5l10 -10v-51q0 -4 -8 -27.5 t-19 -54t-14 -41.5q0 -8 -11.5 -36.5t-18.5 -35.5l-21 -43l-10 -41l-21 -40l-10 -31l-10 -21l-10 -51l-11 -20l-10 -31q-20 -41 -20 -51q0 -5 -10.5 -31t-10.5 -31l-10 -10l-10 -41q-5 -10 -36 -108.5t-36 -108.5l-10 -41l-31 -92l-31 -41l-10 -21q-30 -30 -41 -30 q-15 0 -92 -5.5t-92 -5.5h-62zM387 1038q-5 -5 -20.5 -41t-20.5 -41l-20 -51q0 -6 -15.5 -37.5t-15.5 -36.5l-10 -20q0 -5 -10.5 -30.5t-10.5 -30.5l-10 -21q0 -7 -11.5 -42t-19.5 -50q0 -5 -15 -51t-15 -51q0 -4 -2.5 -12t-5.5 -13l-3 -6l-20 -41q-41 -82 -41 -92l-10 -31 l-11 -53q0 -5 -10 -41t-10 -41l-10 -51l-11 -21l-10 -31h133q10 40 41 117.5t41 120.5q0 5 10.5 36t10.5 36l20 41q0 5 20.5 61t20.5 61t15.5 36t15.5 36q10 21 10 31q0 5 10.5 36t10.5 36l20 41q31 62 31 71q10 31 10 43l10 51q21 65 21 93h-62q-5 0 -25.5 -5.5t-25.5 -5.5 z" />
<glyph unicode="0" d="M66 674q0 5 5 20.5t5 20.5v51l10 10q0 5 10 41t10 41t10.5 31t10.5 31q5 5 20.5 40.5t20.5 40.5t20.5 31t20.5 31l90 92l31 10q5 0 35.5 20.5t35.5 20.5l21 11q5 0 30.5 10t30.5 10t26 5t26 5h102q72 -20 90 -30q4 0 17 -5.5t24 -10.5l10 -5l31 -31q20 -20 20 -30 q3 -5 17 -31.5t24.5 -47t10.5 -24.5q7 -7 18.5 -46.5t11.5 -55.5q0 -10 10.5 -66.5t10.5 -66.5v-185q-10 -41 -10 -51q0 -5 -10.5 -46t-10.5 -46q-4 -16 -16.5 -77.5t-25 -101.5t-30.5 -77q0 -4 -5 -14.5t-10 -18.5l-5 -8q0 -5 -25.5 -25.5t-25.5 -25.5l-10 -21 q-3 -3 -14.5 -17t-21.5 -24t-14 -10l-30 -10l-11 -10l-30 -21q-5 0 -41 -5t-41 -5l-41 -10h-51q-11 0 -50 5t-43 5q-51 10 -61 20q-4 0 -16.5 5t-22.5 11l-10 5l-10 10l-72 82l-21 21q0 4 -5 11.5t-10 12.5l-5 6q0 5 -10.5 25.5t-10.5 25.5q-20 73 -20 93q-4 14 -9 39.5 t-8 44.5l-3 18v246zM137 428q10 -41 10 -51l11 -41l10 -51q0 -5 10 -31t10 -31q0 -4 5 -14.5t11 -18.5l5 -8l110 -102q31 -10 41 -10h154q11 0 41 30l102 103q21 41 31 51l10 20l11 41q0 5 9 31t9 31t5 30.5t5 30.5v441q-10 51 -10 61l-8 41q0 4 -5.5 17t-10.5 24l-5 10 q0 10 -41 51l-41 31l-10 10q-5 0 -25.5 5.5t-25.5 5.5h-51l-21 -11h-61q-31 -10 -41 -20q-8 -8 -36.5 -24.5t-35.5 -16.5l-10 -10q-7 -13 -34 -48t-36 -44l-10 -21l-10 -10q0 -5 -10.5 -31t-10.5 -31q-4 -21 -17 -73.5t-23.5 -95t-10.5 -46.5v-225zM240 582q0 10 5 71.5 t5 71.5q0 5 5 25.5t5 25.5l10 31q0 5 9.5 36t9.5 36l10 20q0 5 20.5 31t20.5 31l10 20q31 31 41 31q62 20 82 20h10l31 -10q4 0 14.5 -5t18.5 -11l8 -5q21 -41 31 -51l10 -20l10 -41v-359q-10 -51 -10 -61q0 -5 -10.5 -36t-10.5 -36q-7 -15 -18.5 -49.5t-11.5 -42.5 q0 -4 -5.5 -14.5t-10.5 -18.5l-5 -8q-41 -31 -51 -41q-4 -4 -12 -9t-13 -8l-6 -3h-41q-5 0 -20.5 5t-20.5 5q-4 0 -14.5 5t-18.5 10l-8 5q-7 0 -18.5 16.5t-11.5 24.5l-10 41q0 5 -9.5 36t-9.5 36t-5 25.5t-5 25.5q0 11 -5 39.5t-5 32.5v72zM391 500q0 -4 5 -48t5 -55 q0 -5 5.5 -20.5t5.5 -20.5q0 -4 5 -14.5t10 -18.5l5 -8l21 -10q20 11 20 21q21 31 21 41q10 20 10 30l31 123v359q-11 41 -21 51l-10 10l-21 -10q-20 -31 -20 -41l-31 -72q0 -5 -10 -51t-10 -51t-5.5 -20.5t-5.5 -20.5l-10 -31v-143z" />
<glyph unicode="1" horiz-adv-x="702" d="M205 653q-5 0 -31 5.5t-31 5.5l-20 10q-10 21 -10 31q0 4 -5.5 52.5t-5.5 59.5v31q0 5 10.5 25.5t10.5 25.5t20.5 25.5t20.5 25.5l31 41l10 21l10 10l12 20l11 31l20 31l10 20l11 41l10 11l20 10l82 31h94q5 0 31 -5.5t31 -5.5q4 0 9 -5t8 -10l3 -5v-1063 q-30 -21 -30 -31l-11 -20l-10 -11l-20 -51q0 -7 -11.5 -18.5t-19.5 -11.5h-125l-31 -11h-51l-10 11l-10 20q0 5 -5.5 46t-5.5 46q0 20 -6 215t-6 215q0 10 -5 65.5t-5 65.5zM289 61l10 -10h51l62 10l10 72v930q-11 10 -21 10h-71l-21 -20l-20 -31l-21 -21l-20 -40l-10 -11 q-5 -5 -32 -46t-32 -46l-10 -20v-11q0 -5 5 -41t5 -41q5 0 37 -5t37 -5l20 -20v-82q0 -5 5.5 -45t5.5 -45q0 -36 5 -241t5 -241z" />
<glyph unicode="2" horiz-adv-x="894" d="M68 29q0 5 -5.5 41t-5.5 41v61q0 5 5.5 26.5t5.5 26.5v62l82 82l40 30l62 62l20 31l41 40q21 31 31 41l21 31l20 23q0 5 15.5 30.5t15.5 30.5t10 31t10 31t15.5 30.5t15.5 30.5v113l-10 20h-41q-21 -10 -21 -20l-10 -21q-4 -4 -9 -17t-8 -24l-3 -10v-31l-11 -20l-41 -21 l-20 -20h-10l-11 -21l-10 -10h-10l-51 10q-5 0 -46 5.5t-46 5.5t-20.5 10t-20.5 10v72q0 5 5 30.5t5 30.5l10 21q4 4 9.5 17t8.5 23l3 11l10 53l10 21l31 41l61 61q5 0 36 15.5t36 15.5l20 10q5 0 46.5 15.5t46.5 15.5l20 10h184q72 -31 103 -51l10 -11l31 -20 q3 -3 14.5 -12t19 -17t7.5 -12l10 -20l20 -31q0 -5 10.5 -37t10.5 -37q10 -62 10 -82v-10l-10 -51q0 -5 -5 -31t-5 -31q-5 -15 -46.5 -92t-46.5 -94q0 -5 -15 -25.5t-15 -25.5t-20.5 -41t-20.5 -41q-5 -5 -31 -41t-31 -41l11 -10h153l10 -21q4 -4 9.5 -14.5t8.5 -18.5l3 -8 v-166l-72 -71q-5 -5 -25.5 -20.5t-25.5 -20.5q-20 0 -148 -10.5t-149 -10.5q-5 0 -25.5 -5t-25.5 -5h-195q-10 5 -35.5 15.5t-35.5 15.5zM129 80l21 -10h194q5 0 56.5 5t56.5 5h82q11 0 54.5 5t47.5 5v125h-246q-5 0 -20.5 -6t-20.5 -6h-10l-20 12l-11 10v31q11 20 21 20 l51 41l10 11l41 51l31 31q0 5 15.5 20.5t15.5 20.5l10 20q5 5 30.5 46t30.5 46l31 41q0 5 20.5 37t20.5 37l21 31q20 62 20 82l10 51v41l-10 51v10q0 5 -10 47t-10 47l-11 11q-9 9 -31.5 25t-29.5 16q-7 7 -30.5 18.5t-31.5 11.5q-5 0 -30.5 10.5t-30.5 10.5h-31 q-11 0 -54.5 -10.5t-47.5 -10.5q-52 -20 -62 -30q-20 -21 -30 -21l-11 -10q-5 -5 -25.5 -37t-25.5 -37l-10 -20q0 -4 -5 -17t-10 -24l-5 -11l-11 -41v-61h82q0 5 5 20.5t5 20.5q0 7 16 45.5t25 56.5l11 21l20 20q21 21 31 21l20 12h62l51 -12l51 -51l10 -21v-113 q-10 -51 -20 -71l-10 -21l-11 -30l-10 -11l-10 -20l-10 -31q0 -8 -12 -32t-19 -31q-20 -21 -20 -31q-4 -9 -17 -27t-24 -32l-11 -13q0 -5 -25.5 -25.5t-25.5 -25.5l-31 -41q-20 -31 -30 -31q-5 -5 -26 -20.5t-26 -20.5l-20 -10l-31 -31q0 -3 -5 -36.5t-5 -46.5v-113z" />
<glyph unicode="3" horiz-adv-x="976" d="M39 377l10 31l31 20q31 41 41 41h41l33 -10h92l41 -10q7 0 18.5 -16.5t11.5 -24.5l11 -52q0 -4 10 -31.5t10 -37.5l10 -31l31 -41h21q4 0 17.5 5.5t24.5 10.5l11 5q20 20 20 40v152l-10 21l-31 30q-43 10 -53 10t-71.5 5.5t-71.5 5.5q-7 0 -24 17t-17 24q-10 41 -10 51 v113q0 10 30 40l21 11l20 20l31 10l20 11h11l30 -11h62q23 11 33 11t30 20v72l-10 31q0 7 -17 30t-26 29l-20 20l-21 11h-41l-10 -11q-21 -42 -21 -59l-10 -51v-21l-10 -20q0 -4 -5 -12t-11 -14l-5 -5l-41 -20l-10 -11q-31 -10 -41 -10q-4 0 -48.5 -5t-55.5 -5h-21l-20 10 l-10 10q0 4 -5.5 48t-5.5 55v61q0 7 11.5 41t19.5 49q0 5 10.5 20.5t10.5 20.5l10 11l20 30l11 11l30 20l23 21l20 10l31 20l20 10q5 5 41 31t41 31l21 10q5 0 36 10.5t36 10.5l53 10h102q31 -10 41 -10q4 0 12 -2.5t13 -5.5l6 -3q5 -5 30.5 -20.5t30.5 -20.5l64 -61 q20 -31 20 -41q0 -5 10.5 -30.5t10.5 -30.5l10 -52v-202l-10 -21l-10 -51q0 -5 -5.5 -20.5t-5.5 -20.5q5 -5 20.5 -36t20.5 -36q22 -45 41 -123l10 -30v-123q0 -5 -5 -25.5t-5 -25.5q-5 -10 -25.5 -65.5t-25.5 -65.5q0 -7 -12 -31t-19 -31l-41 -61q-53 -42 -73 -52l-31 -20 l-10 -10q-5 0 -31 -10.5t-31 -10.5q-14 -7 -43.5 -13.5t-38.5 -6.5h-63q-11 0 -55 5t-48 5q-7 0 -52.5 11.5t-69.5 19.5q-41 13 -84 41l-41 30q-21 21 -21 31q-12 18 -21 59t-10 44q0 5 -10 40.5t-10 40.5v101zM111 326q0 -5 5 -35t5 -35q0 -20 31 -82q7 -7 18.5 -30 t11.5 -31q0 -7 12.5 -19t20.5 -12q51 -21 61 -31l31 -10q1 0 75.5 -5t100.5 -5h41q5 0 25.5 5t25.5 5l31 10q4 0 14.5 5.5t18.5 10.5l8 5q4 0 12 7.5t17 19t12 14.5q0 7 16 29.5t25 31.5q0 5 10.5 20.5t10.5 20.5l10 41q0 5 11 24.5t11 24.5v103q-10 31 -10 41l-12 30 q0 5 -10.5 25.5t-10.5 25.5q0 4 -5 14.5t-10 18.5l-5 8l-10 11q-21 20 -31 20l-21 10l-51 11q-4 0 -9 2.5t-8 4.5l-3 3v41l71 71l21 31l31 41q10 21 10 31q0 5 5 36t5 36v69q0 9 -6.5 32t-13.5 30q-4 4 -12 19.5t-13 28.5l-6 13l-62 62q-20 10 -30 10q-4 0 -42.5 5t-49.5 5 h-23q-11 0 -54.5 -10t-47.5 -10t-19.5 -7.5t-36 -19t-26.5 -14.5q-5 -5 -41 -26t-41 -26q-8 0 -20.5 -11.5t-12.5 -18.5q-20 -31 -20 -41q-4 -4 -9.5 -16.5t-8.5 -22.5l-3 -10q0 -10 -5 -56.5t-5 -56.5h84l10 10q0 5 5 41t5 41t5.5 20t5.5 19l10 20q0 4 5 12t10 13l5 6 l10 10l72 41h82q8 0 32.5 -11.5t31.5 -18.5l30 -31q21 -21 21 -31q8 -8 19 -30t11 -29q7 -7 14 -30t7 -32v-102q-11 -31 -21 -41q-20 -31 -30 -31l-21 -10l-41 -10q-17 0 -94 -5t-92 -5v-82h41l41 -11h31q14 -7 55 -18.5t49 -11.5q4 0 14.5 -10.5t22 -24.5t14.5 -17 q8 -8 19.5 -42.5t11.5 -49.5v-121q0 -5 -5 -20t-5 -20q0 -4 -5 -12t-11 -14l-5 -5q-41 -41 -51 -41q-5 0 -26.5 -10.5t-26.5 -10.5h-72q-21 11 -31 11l-20 10q-21 31 -31 41q0 4 -5 12t-10 13l-5 6q0 4 -5.5 14t-10.5 18l-5 8q0 5 -5 25t-5 25h-145z" />
<glyph unicode="4" horiz-adv-x="911" d="M391 25l10 20v205h-325q-21 10 -31 10l-10 21v256q10 31 20 41l21 20q0 4 15 24t15 25q5 5 31 61.5t31 61.5l18 31l11 30q0 5 15 31t15 31l21 51q0 5 15.5 31t15.5 31q20 20 20 30q4 9 17 27t24 31l10 14l72 72l20 30l11 11l28 20q4 4 14.5 9.5t18.5 8.5l8 3h41 q5 0 41 -5.5t41 -5.5l51 -10l11 -10l41 -72v-543q29 -10 49 -10h92l10 -8v-20q0 -16 -5 -93t-5 -92l-10 -20l-72 -72q-21 -20 -31 -20l-18 -11v-225l-72 -72l-20 -10h-82q-5 0 -26 -5t-26 -5h-79l-21 10l-20 21l-21 10v31zM401 311q5 0 20.5 -5t20.5 -5l21 -20q0 -4 4 -32.5 t4 -39.5q0 -15 5 -97t5 -98h41l31 11q5 0 30.5 5t30.5 5v276l21 31h92l10 10v51q0 5 -5 31t-5 31l-31 10h-112l-11 10v31q0 20 5.5 214t5.5 214v164h-131q-21 -11 -21 -21l-20 -30l-21 -21l-20 -41l-52 -92q-5 -5 -35.5 -51t-35.5 -51q-21 -41 -21 -51q0 -5 -10 -31t-10 -31 l-10 -51l-70 -141v-174q41 -11 49 -11h225zM186 455q0 23 10.5 45.5t28 48.5t23.5 39l82 162q0 5 15 25.5t15 25.5l11 30q0 4 5 17t10 24l5 11q4 4 12 19.5t13 28.5l6 13l20 21h29l10 -21q0 -4 5.5 -53t5.5 -60v-122q0 -32 -5 -93t-10.5 -110t-5.5 -51l-8 -31 q-52 -10 -72 -10h-143q-21 10 -31 10l-20 10l-11 10v11zM412 647q-5 -5 -26 -45t-26 -45l-10 -20h62q10 41 10 51v39z" />
<glyph unicode="5" horiz-adv-x="894" d="M104 94l-10 31l-10 51q0 5 -10.5 46t-10.5 46v62q0 7 11.5 30t19.5 31q3 3 14.5 17t22 24t14.5 10q5 0 26 5.5t26 5.5l-21 20q-5 0 -36 20.5t-36 20.5q-7 0 -18.5 11.5t-11.5 19.5v174l10 51v21q0 5 5 35.5t5 35.5t5 56.5t5 56.5t10.5 36t10.5 36t10 20t10 20l11 11 l30 20q5 0 26 20.5t26 20.5q20 10 30 10q11 0 44.5 5.5t37.5 5.5h443l20 -41v-174l-10 -21l-62 -61q-20 -11 -30 -11h-258l-21 -10l10 -10h115q5 0 30.5 -5t30.5 -5t31 -10.5t31 -10.5q5 -5 30.5 -20.5t30.5 -20.5q9 -9 32 -38.5t30 -43.5q0 -5 10 -25.5t10 -25.5t5.5 -30.5 t5.5 -30.5q10 -41 10 -51v-113l-10 -41l-11 -51q0 -5 -5 -41t-5 -41l-10 -62q-21 -31 -21 -41l-10 -10l-10 -20l-72 -72q-51 -31 -61 -41l-21 -10l-30 -21l-41 -10q-5 0 -31 -10t-31 -10h-125q-8 0 -42.5 11.5t-49.5 18.5q-31 21 -41 21q-4 0 -12 5t-13 10l-6 5zM166 135 l61 -61q5 0 20.5 -15.5t20.5 -15.5t20.5 -10t20.5 -10t41 -10.5t41 -10.5h51l43 21l31 10q14 4 39.5 17t44.5 24l18 10q31 52 41 72q0 4 5.5 14.5t10.5 18.5l5 8q10 20 10 30l10 41q0 5 5.5 56.5t5.5 56.5t5 25.5t5 25.5v92q0 10 -10.5 77t-10.5 77l-10 10l-41 31 q-8 8 -31 19.5t-30 11.5q-62 10 -82 10h-31l-33 -10l-41 -11q-41 -20 -51 -30l-10 -11h-41q-20 11 -20 21v10q0 5 5 31t5 31l10 30v82l10 21q41 10 51 10q11 0 44.5 5t37.5 5h207l10 31v20l-10 21l-10 10l-82 10l-340 -10q-10 -10 -10 -20q0 -5 -5 -36t-5 -36t-5.5 -31 t-5.5 -31q-10 -41 -10 -51q0 -5 -5 -51t-5 -51t-5 -25.5t-5 -25.5v-103q20 -20 30 -20l31 -10h10l11 10q0 5 20.5 30.5t20.5 30.5q0 4 7.5 12t18.5 17t14 12l21 10q9 4 27 9.5t31 8.5l14 3h84l20 -10l10 -11l21 -10l20 -20q21 -42 21 -52q4 -9 9 -24t8 -26l3 -11v-123 q-10 -31 -10 -41q-8 -15 -19.5 -50t-11.5 -42q-4 -4 -11.5 -19.5t-13.5 -28.5l-5 -13q-31 -21 -41 -31q-4 -4 -15 -9.5t-19 -8.5l-9 -3h-52q-5 0 -25.5 5.5t-25.5 5.5q-41 20 -51 30l-10 11q-5 10 -15.5 25.5t-15.5 25.5q0 5 -10 25.5t-10 25.5h-82l-11 -10v-10 q0 -10 10.5 -72t10.5 -72zM330 432q0 -10 5 -61.5t5 -61.5q0 -5 10 -30.5t10 -30.5l11 -10l20 -11h41l21 11q22 20 22 30q4 4 9.5 14.5t8.5 18.5l3 8q0 5 5 31t5 31t10 25.5t10 25.5v72q0 5 -10 35.5t-10 35.5q0 4 -5 14.5t-11 18.5l-5 8l-20 10h-33q-8 0 -31 -11.5 t-30 -18.5l-11 -11l-41 -61q0 -5 -10 -30.5t-10 -30.5q21 -21 31 -21z" />
<glyph unicode="6" horiz-adv-x="927" d="M55 637q0 9 10.5 78t10.5 86q10 31 10 41q0 5 10 30.5t10 30.5t10.5 26t10.5 27q4 14 17 39.5t24 44.5l10 19l72 71l10 21l21 20l51 41l41 21q5 0 25.5 20.5t25.5 20.5q52 10 72 10h41q11 0 54.5 -10t47.5 -10l10 -11l21 -10q4 0 14.5 -7.5t18.5 -15.5l8 -8l51 -51 l10 -20l21 -21q4 -4 12 -19.5t17 -36t12 -26.5v-10l-11 -94q-10 -21 -10 -31q0 -4 -2.5 -9t-4.5 -8l-3 -3h-41l-31 10l-31 -10q-11 0 -54.5 -10.5t-47.5 -10.5h-41l-10 10q0 10 -10.5 57.5t-10.5 57.5q0 5 -10 20.5t-10 20.5h-10l-31 -10q-5 -5 -20.5 -42t-20.5 -42 q0 -5 -5 -20.5t-5 -20.5v-72h30l31 10h184q62 -10 82 -20l31 -10l10 -10l31 -21l41 -41l20 -31l11 -10l10 -20l10 -31v-256q0 -4 -5 -37.5t-5 -44.5q0 -5 -5 -26.5t-5 -26.5q0 -4 -2.5 -12t-5.5 -14l-3 -5l-40 -82l-103 -102q-21 -21 -31 -21q-7 -7 -30 -18.5t-31 -11.5 l-41 -11l-31 -10l-41 -10h-71q-5 0 -31 5t-31 5h-20q-5 0 -31 10.5t-31 10.5q-4 0 -14.5 5t-18.5 10l-8 5q-11 11 -49.5 44.5t-42.5 37.5t-14.5 24.5t-22 46.5t-14.5 31q0 4 -15.5 42.5t-15.5 49.5q0 13 -10 52.5t-10 42.5q0 7 -10.5 99.5t-10.5 115.5v51zM127 504 q0 -17 10 -91t10 -83q0 -4 7.5 -27.5t19 -55.5t14.5 -42q0 -5 10.5 -20.5t10.5 -20.5l10 -10l21 -41q41 -31 51 -41l20 -11l41 -30q5 0 20.5 -5.5t20.5 -5.5h113q7 0 42 11.5t50 19.5q51 31 61 41l11 10l20 41l21 31q4 4 9 14.5t8 18.5l3 8q7 14 14 60.5t7 64.5v225 q0 5 -5.5 20.5t-5.5 20.5l-10 31q0 4 -5 14.5t-10 18.5l-5 8l-62 61l-20 11h-154l-20 -11q-5 0 -36 -15t-36 -15q-4 0 -9.5 -2.5t-8.5 -5.5l-3 -3l-20 -41q-31 -20 -41 -20h-31q-10 21 -10 31v102q0 11 7 50t14 52l10 31q0 5 10 42t10 42q0 7 11.5 31t19.5 31l10 10l21 31 q8 8 26 19t25 11h51l21 -10q4 0 11.5 -5t12.5 -10l6 -5q31 -42 41 -52l11 -20q0 -5 10 -31t10 -31h41q5 0 30.5 5.5t30.5 5.5v20l-20 41l-10 31l-11 20l-51 51q-31 31 -41 31l-30 10h-82q-21 -10 -31 -10q-4 0 -17 -5t-23 -10l-11 -5l-11 -11l-20 -10q-15 -8 -60.5 -52.5 t-52.5 -59.5q-31 -75 -41 -95l-10 -30q-20 -42 -20 -52q-11 -30 -11 -40q0 -5 -5 -26t-5 -26l-10 -71v-164zM270 473l11 62q20 20 20 30l92 92l31 11h92q5 0 31 -10.5t31 -10.5l30 -31q0 -5 15.5 -25.5t15.5 -25.5q20 -41 20 -51l21 -61v-93q-10 -51 -10 -61 q-11 -33 -11 -43l-10 -31q0 -5 -15.5 -25.5t-15.5 -25.5l-51 -51l-20 -10h-154l-51 51l-10 20l-10 11q-21 51 -21 61q-9 28 -14 59t-9.5 69t-7.5 58v31zM424 319l10 -10q0 -5 5 -31.5t5 -31.5q0 -4 5 -14.5t11 -18.5l5 -8q0 -4 7.5 -9.5t15.5 -8.5l8 -3l20 11l31 10l10 10 l10 21q4 4 9.5 17.5t8.5 24.5l3 11q0 11 10 54.5t10 47.5v62q-20 62 -30 82l-11 20l-30 31q-31 10 -41 10h-31q-7 0 -14 -16t-7 -25zM373 164q-7 0 -7 -10.5t7 -10.5t7 10.5t-7 10.5z" />
<glyph unicode="7" horiz-adv-x="815" d="M160 41l10 20q5 10 26.5 77t26.5 77l10 41l11 31l10 41q0 5 10 30.5t10 30.5q21 65 21 103q0 5 5 40.5t5 40.5t15.5 61.5t15.5 61.5l10 52l21 40q0 5 -5.5 31t-5.5 31h-123q-5 0 -77.5 -10.5t-77.5 -10.5h-31q-4 0 -12 2.5t-13 5.5l-6 3l-10 20v154q0 5 5 46t5 46l11 10 l30 21q7 0 35.5 16.5t36.5 24.5l21 10q22 7 79.5 19t65.5 12q10 0 107.5 5t107.5 5q5 0 52 5t52 5h93q5 0 25.5 -5t25.5 -5l10 -10l10 -21q0 -20 10.5 -138t10.5 -138v-21q-11 -10 -11 -20q-5 -5 -35.5 -66.5t-35.5 -66.5l-10 -21l-11 -31q0 -5 -20.5 -56t-20.5 -56t-10 -31 t-10 -31l-10 -20q0 -5 -10.5 -61.5t-10.5 -61.5t-16.5 -61.5t-16.5 -61.5t-5 -30.5t-5 -30.5l-20 -21l-21 -41q-31 -41 -41 -51l-20 -21l-41 -30q-42 -21 -62 -21q-9 -4 -26.5 -9t-31.5 -8l-13 -3h-105l-20 20v31zM479 891q0 -5 -15 -36t-15 -36l-21 -41q0 -5 -10 -41 t-10 -41t-10.5 -35.5t-10.5 -35.5q0 -11 -10 -44.5t-10 -37.5v-21l-11 -41q0 -5 -5 -30.5t-5 -30.5t-10 -36t-10 -36l-11 -41q0 -5 -10 -30.5t-10 -30.5q0 -10 -15.5 -56.5t-15.5 -56.5v-10l-10 -31v-31q5 0 36 5.5t36 5.5q31 20 41 20l10 10q5 25 46 179.5t46 179.5 q10 21 10 31q21 41 21 51l10 41q0 5 10 35.5t10 35.5t10.5 31t10.5 31q5 16 37 87t37 87v20q0 5 -5.5 41t-5.5 41v11q0 5 -5 30.5t-5 30.5h-84q-4 0 -42.5 -5t-49.5 -5q-41 -11 -51 -11h-248l-61 -10v-112l10 -21h10q11 0 49.5 5t42.5 5q43 11 53 11q15 0 92 5t93 5l31 10 l10 -10q0 -5 10 -20.5t10 -20.5z" />
<glyph unicode="8" d="M178 606l-31 31q0 5 -15 30.5t-15 30.5l-11 11q0 4 -5 11.5t-10 13.5l-5 5l-10 31q0 5 -5 36t-5 36v30l10 105q0 5 20.5 30.5t20.5 30.5l10 31q5 5 20.5 30.5t20.5 30.5q0 4 7.5 12t19 17t14.5 12l41 31q5 0 25.5 20.5t25.5 20.5l31 21q7 7 34 13.5t37 6.5h164l21 -10 l41 -10q5 0 25.5 -10.5t25.5 -10.5q4 -4 17 -12t23 -13l11 -6l72 -71l20 -41l31 -41q10 -31 10 -41l10 -51l11 -43v-93q-21 -51 -31 -71q0 -5 -15.5 -31t-15.5 -31v-10q0 -5 20.5 -41t20.5 -41q21 -51 21 -61q0 -5 5 -20.5t5 -20.5l10 -62v-92q0 -5 -5 -25.5t-5 -25.5 l-10 -10q0 -6 -10.5 -32.5t-10.5 -31.5t-10 -20.5t-10 -20.5l-10 -10l-11 -20l-20 -31l-10 -10l-52 -31l-30 -31q-21 -20 -31 -20l-21 -11l-30 -20l-21 -10l-71 -31q-5 0 -31 -5t-31 -5h-72l-30 10q-5 0 -25.5 5t-25.5 5t-36 5.5t-36 5.5q-4 0 -24.5 10t-47 24.5t-31.5 16.5 l-10 10q-5 5 -25.5 30.5t-25.5 30.5l-20 21q-4 4 -9.5 17t-8.5 24l-3 10v166q10 21 10 31l11 20q0 5 15 41t15 41l21 31q0 5 15 30.5t15 30.5l21 21zM137 154l10 -21q0 -4 5.5 -12t10.5 -13l5 -6q51 -31 61 -41l21 -10q5 0 20.5 -5t20.5 -5q4 0 47.5 -5t54.5 -5h41q5 0 31 5 t31 5l30 10q6 3 26.5 14.5t36 19t19.5 7.5q10 0 51 41l52 51q7 7 18.5 30.5t11.5 31.5q7 15 19 62.5t12 62.5v92q-10 10 -10 20q-4 4 -12 17t-14 24l-5 11q0 4 -7.5 11.5t-19 16.5t-14.5 12l-20 11l-11 20v41q0 4 2.5 12t5.5 13l3 6l41 41q7 7 18.5 30t11.5 31v154 q-20 74 -30 94l-11 21l-20 20q-15 15 -49.5 38t-42.5 23q-4 0 -37.5 10.5t-44.5 10.5h-82q-5 0 -41 -5t-41 -5l-20 -11l-11 -20l-41 -20l-51 -52q-6 -6 -31.5 -42.5t-29.5 -41.5q-4 -4 -9.5 -14.5t-8.5 -18.5l-3 -8v-102q0 -8 7 -26t14 -25q5 -5 30.5 -46t30.5 -46 q2 -2 22.5 -18.5t30 -31t9.5 -32.5v-11l-31 -30l-10 -21l-11 -10l-10 -20l-10 -11q-5 -5 -25.5 -46t-25.5 -46q-11 -21 -11 -31l-10 -41v-165zM270 883q0 5 10.5 25.5t10.5 25.5q0 4 7.5 12t19.5 18.5t14 12.5q31 20 41 20l30 11l21 10h82l31 -10l61 -64l10 -20v-123 q0 -9 -6.5 -32t-13.5 -30q0 -7 -17 -41t-24 -41q-21 -20 -21 -30l-10 -11h-31q-4 0 -19.5 7.5t-36 19t-26.5 14.5q-20 21 -30 21l-51 41q-31 41 -41 51l-11 21v92zM260 340l10 51q0 4 10.5 22.5t24 40.5t17.5 29q5 5 20 26t20 26l21 10h41l31 -31l30 -20q11 0 52 -41l10 -11 q21 -41 31 -51q20 -40 20 -72v-20l-10 -53q-21 -31 -31 -41l-20 -21l-31 -20l-21 -21h-10l-123 31q-41 31 -61 41q-21 21 -21 31l-10 30v64zM383 913v-10q20 -31 20 -41q0 -4 5.5 -12t10.5 -14l5 -5l61 -61l21 -10l10 20l21 21v102l-11 21l-20 20q-21 10 -31 10h-10l-10 -10 h-21l-20 -10q-4 0 -12 -5t-14 -11zM403 309q21 -21 31 -33q4 -4 12 -9t14 -8l5 -3h41l10 10l10 33v61l-71 72h-21q-20 -31 -20 -41q0 -5 -5.5 -20.5t-5.5 -20.5v-41z" />
<glyph unicode="9" horiz-adv-x="911" d="M287 389q31 -10 41 -20q7 0 18.5 -11.5t11.5 -19.5v-82l11 -20l10 -11h31q30 21 30 31q8 8 20.5 31t12.5 30q0 5 5 26t5 26v82h-10l-43 -21q-41 -20 -133 -20h-51q-21 10 -31 10l-20 10l-62 62q-21 30 -31 40l-10 21q0 5 -10 30.5t-10 30.5l-21 43q0 5 -5 31t-5 31v102 q10 41 10 51l10 31q0 5 15.5 61.5t15.5 61.5t15.5 26t15.5 27l20 41l41 41l21 31l10 10l21 10l10 11q4 0 11.5 5t12.5 10l6 5l31 10l41 21l41 10h166q9 0 31.5 -6.5t29.5 -13.5q6 -3 26.5 -14.5t36 -19t19.5 -7.5l72 -72q21 -41 31 -51q7 -7 18.5 -31.5t11.5 -32.5 q11 -31 11 -41q0 -11 10 -49.5t10 -42.5q4 -14 9.5 -39.5t8.5 -43.5l3 -19v-82q0 -14 -10.5 -109.5t-10.5 -117.5q0 -5 -5 -26t-5 -26l-10 -30l-11 -41l-10 -11q0 -5 -15 -35.5t-15 -35.5q0 -4 -5.5 -14.5t-10.5 -18.5l-5 -8q0 -4 -5 -12t-10 -14l-5 -5q-5 -6 -52 -53 l-51 -41l-20 -21l-52 -41q-8 -8 -41 -24.5t-40 -16.5q-5 0 -37 -5t-37 -5h-174q-8 0 -41 17t-41 24q-31 21 -31 31q-31 52 -41 72l-10 20l-10 31v155q10 11 20 11q31 10 41 10l51 10h103zM143 236q0 -8 12 -37.5t19 -36.5l21 -31l41 -41l20 -10q5 0 36 -5t36 -5h82l41 20 l53 21q7 0 25 11t26 19q41 31 51 41l10 11l11 22q0 5 20.5 30.5t20.5 30.5q10 21 10 31q0 5 5 20.5t5 20.5l10 51q0 17 10.5 86t10.5 78v51q0 5 5 37t5 37v164l-10 31q0 5 -5 51t-5 51q-11 21 -11 31l-10 20q0 4 -8 15t-16 19l-7 9l-41 41l-30 21q-7 7 -30 13.5t-32 6.5 h-135q-9 0 -38.5 -6.5t-43.5 -13.5q-5 0 -20.5 -10.5t-20.5 -10.5l-20 -20l-51 -64q-4 -4 -14.5 -24t-23 -47t-14.5 -31q0 -5 -5 -31t-5 -31l-10 -51q0 -5 -5 -41t-5 -41v-30q10 -52 20 -62l31 -84l10 -10l21 -31l41 -41l20 -10l31 -10h10q5 0 25.5 5t25.5 5l31 10l20 11 l31 10q21 20 31 20l43 31l20 10h21l20 -20v-174q0 -5 -5 -31t-5 -31q0 -11 -15.5 -44.5t-15.5 -37.5q-41 -43 -51 -53q-23 -20 -33 -20l-20 -11q-31 -10 -41 -10h-10l-52 10q-5 0 -20.5 10.5t-20.5 10.5q-4 0 -11.5 8t-12.5 16l-6 7q-10 22 -10 32q0 5 -5.5 20.5t-5.5 20.5 h-71l-11 -10v-20zM195 821q0 5 5 25.5t5 25.5q20 31 20 41q4 4 12 17t13 24l6 11l20 20q4 0 20 10.5t35 23.5t27 17l21 11q5 0 25.5 5t25.5 5h84l31 -10l51 -52q20 -31 20 -41l11 -30v-154q0 -10 -7 -37.5t-14 -34.5l-31 -30l-10 -21q-20 -22 -30 -22q-4 0 -14.5 -5.5 t-18.5 -10.5l-8 -5q-5 0 -42 -10t-42 -10h-82q-7 0 -35.5 16.5t-36.5 24.5q-2 2 -14 12.5t-19.5 18.5t-7.5 12q-10 20 -10 30l-10 41v82zM348 739q0 -4 10 -14.5t24 -22t17 -14.5q21 -10 31 -10h43q31 10 41 20l10 11q0 5 10.5 20.5t10.5 20.5l10 41v102q-10 31 -10 41 q0 4 -5.5 14.5t-10.5 18.5l-5 8q-20 20 -41 20q-5 0 -31.5 -5t-31.5 -5l-10 -31l-21 -20q-7 -8 -19 -31t-12 -31q-10 -72 -10 -92v-41z" />
<glyph unicode=":" horiz-adv-x="540" d="M104 758q0 10 5.5 56t5.5 56l41 41l20 31q0 4 5 9.5t11 8.5l5 3q5 0 30.5 5t30.5 5h166l31 -10l20 -21l10 -20q0 -10 10.5 -67t10.5 -67v-53l-10 -10l-11 -31q0 -5 -15 -30.5t-15 -30.5l-11 -10v-31l-30 -31l-21 -10q-5 0 -25.5 -5t-25.5 -5q-1 0 -76.5 -10.5 t-99.5 -10.5h-10l-21 10l-10 21q-10 31 -10 41l-11 51v115zM74 27v71q0 16 10 119t10 119l21 20q5 5 30.5 26t30.5 26l10 10l21 10q2 0 54.5 5t70.5 5h41q5 0 30.5 -10t30.5 -10l10 -10q0 -4 5 -14.5t11 -18.5l5 -8q0 -5 5 -31t5 -31v-186l-10 -10l-31 -21 q-10 -10 -30.5 -36t-30.5 -36q-5 0 -41.5 -5t-42.5 -5l-31 -10h-133q-5 0 -20.5 10t-20.5 10zM156 78l10 -10h102q21 10 33 10l10 10q7 7 14 30t7 32q0 10 5 56t5 58h-41q-6 0 -37.5 -5t-36.5 -5q-4 0 -11.5 -3t-13.5 -6l-5 -3l-21 -21l-10 -20q0 -5 -5 -25.5t-5 -25.5v-72z M176 653q0 -5 5 -20.5t5 -20.5h11q10 0 72.5 5.5t72.5 5.5l10 10q0 5 5 30.5t5 30.5v94h-83q-5 0 -20.5 -5t-20.5 -5q-4 0 -14.5 -5t-18.5 -10l-8 -5l-11 -43l-10 -31v-31z" />
<glyph unicode=";" horiz-adv-x="532" d="M-41 -207q10 10 61.5 66.5t61.5 66.5q31 52 41 62l10 20l-92 31v92q0 5 5 36t5 36t10.5 30.5t10.5 30.5v51q10 19 20 29t31 25.5t31 25.5l10 11l20 10h244l21 -10l20 -21l10 -20v-31q0 -10 -5 -53.5t-5 -47.5l-10 -30q0 -5 -10.5 -46t-10.5 -46t-10 -31t-10 -31 q-8 -8 -36.5 -64t-35.5 -79q0 -7 -11.5 -25t-19.5 -26l-30 -41l-21 -31l-31 -21q-12 -7 -41 -29.5t-38 -31.5l-21 -20q-4 0 -14.5 -5.5t-18.5 -10.5l-8 -5h-51l-61 61q0 5 -10.5 20.5t-10.5 20.5v31zM102 590v174q0 10 5.5 61.5t5.5 61.5q0 4 5 12t10 13l5 6q5 5 46 35.5 t46 35.5q9 0 65 5t66 5h21l51 -10q4 0 14.5 -5t18.5 -10l8 -5q20 -31 20 -41q11 -62 11 -82v-10q0 -10 -5.5 -82t-5.5 -82l-20 -10l-82 -82q-5 0 -36 -5.5t-36 -5.5l-30 -10h-142l-30 21zM51 -227l21 -21h20l31 21l92 92l10 20l8 11l11 20q0 5 20.5 36t20.5 36l10 30 q0 5 20.5 51.5t20.5 51.5l10 31q0 5 5 35.5t5 35.5v41q-5 0 -46 5t-46 5h-69q-4 0 -17 -5t-24 -10l-11 -5q-10 -41 -10 -51v-103l10 -10q21 -10 31 -10l51 -10l8 -11q0 -4 2.5 -11.5t5.5 -13.5l3 -5l-11 -21l-18 -20l-31 -51l-51 -82l-41 -41l-31 -21l-10 -10v-10zM174 641 l21 -10h100q21 10 31 10l10 10v31l10 31q0 5 5 35.5t5 35.5v41h-41q-5 0 -35.5 -5t-35.5 -5q-4 0 -11.5 -2.5t-12.5 -4.5l-5 -3l-20 -21l-11 -20q0 -5 -5 -25.5t-5 -25.5v-72z" />
<glyph unicode="&#x3c;" horiz-adv-x="845" d="M109 307q0 5 -5.5 47t-5.5 47t5.5 56.5t5.5 56.5v41l10 113q0 5 25.5 51t25.5 51l10 31l21 20q3 3 57 37t66 47l20 10q4 0 12 5.5t14 10.5l5 5l10 10l41 21l41 30l31 11q5 5 35.5 30.5t35.5 30.5q5 0 31 20.5t31 20.5t25.5 20.5t25.5 20.5h10q4 0 9.5 -2.5t8.5 -4.5l3 -3 q10 -21 10 -31t5 -87t5 -87q0 -5 5 -26t5 -27q-10 -21 -10 -31q0 -5 -15.5 -25.5t-15.5 -25.5t-15 -31t-15 -31l-31 -30l-20 -11q-5 0 -26 -15t-26 -15q-5 -5 -51 -26t-51 -26l-10 -10l-51 -41l-11 -10v-10q21 -21 31 -21q5 0 41 -20.5t41 -20.5l31 -20l20 -10q5 0 36 -10.5 t36 -10.5t20.5 -10t20.5 -10l20 -21v-31l-10 -43q0 -4 -5 -52.5t-5 -59.5v-62l-10 -30l-52 -11l-20 -10q-5 5 -46 20.5t-46 20.5l-11 10q-41 21 -51 21q-10 5 -82 30.5t-82 30.5zM621 915h-31l-10 -10l-21 -10l-10 -12q-4 0 -12 -5.5t-13 -10.5l-6 -5l-51 -20l-21 -21 l-30 -20l-10 -10l-31 -21l-10 -10l-31 -21l-10 -10l-21 -10q-5 -5 -36 -25.5t-36 -25.5q-9 -4 -24 -17t-26 -24l-11 -11v-256q10 -22 20 -22l21 -10l31 -11q10 -5 128 -51t128 -51l30 -10q5 0 41 -10.5t41 -10.5v113q-10 10 -20 10l-31 10l-123 64q-5 0 -35.5 20.5 t-35.5 20.5q-5 5 -46.5 20.5t-46.5 20.5q0 5 -10 20.5t-10 20.5v31q10 20 20 20q31 31 41 31q42 20 52 30l20 11l21 20q41 21 51 31l41 20l10 11q5 0 20.5 15t20.5 15q8 0 34.5 17t26.5 24q11 41 11 51v84z" />
<glyph unicode="=" horiz-adv-x="1036" d="M80 854l123 123q53 10 73 10q11 0 44.5 5t37.5 5q39 6 136 13.5t112 7.5h248q5 0 25.5 -5t25.5 -5l10 -11l11 -30l10 -21q0 -4 5 -47.5t5 -54.5v-31l-10 -20q0 -5 -15.5 -26t-15.5 -26l-10 -20q0 -4 -5.5 -12t-10.5 -13l-5 -6q0 -4 -5 -9t-10 -8l-5 -3l-557 -31 q-5 0 -36.5 -10.5t-37.5 -10.5h-20l-72 11q-31 20 -31 30v21q0 5 -5 41t-5 41t-5 30.5t-5 30.5v31zM121 465l10 20l21 11l30 20q5 5 37 20.5t37 20.5q16 0 87 10.5t87 10.5q10 0 67.5 5t67.5 5h62q5 0 76.5 -5t76.5 -5h21q10 0 67.5 -5.5t67.5 -5.5l10 -10q0 -5 10.5 -20.5 t10.5 -20.5q10 -31 10 -41v-10h-10q0 -5 -5.5 -31t-5.5 -31q-10 -20 -10 -30l-10 -21l-31 -20l-10 -31l-10 -10q-21 -10 -31 -10q-5 0 -31.5 -5.5t-31.5 -5.5t-51.5 -10t-51.5 -10t-46 -5t-46 -5q-14 0 -115 -5.5t-123 -5.5h-155l-10 -20h-41l-11 10l-10 51l-10 41v154z M193 362l10 -51q10 -10 20 -10q5 0 13.5 -2.5t13.5 -4.5l6 -3h51q10 0 77 5t77 5q22 0 76.5 5.5t101 10.5t49.5 5q9 0 38.5 6.5t43.5 13.5l21 10q4 0 9 5t8 11l3 5v51l-31 10q-10 0 -56 5t-56 5h-166q-12 0 -62.5 -6.5t-70.5 -13.5l-41 -10l-52 -11q-5 0 -41.5 -5t-41.5 -5 v-31zM172 782l10 -82h74q57 0 254.5 12t249.5 19l20 10v11l-10 71l-10 21h-133q-5 0 -52 -5t-53 -5q-1 0 -70.5 -5.5t-93.5 -5.5h-10q-5 0 -56 -5t-56 -5h-43l-11 -20z" />
<glyph unicode="&#x3e;" horiz-adv-x="903" d="M135 133v266q0 5 5 31t5 31l11 20q20 21 20 31l31 41l8 10l41 21q5 5 36 20.5t36 20.5l30 20l21 10l10 11q-5 0 -20.5 10t-20.5 10t-30.5 10.5t-30.5 10.5t-31 5t-31 5t-24.5 5t-24.5 5l-41 10q-10 0 -31 21v235q11 41 11 51l10 31l20 21q5 0 26 5t26 5h110l31 -10 q5 0 30.5 -20.5t30.5 -20.5q8 -8 58.5 -36.5t72.5 -35.5q5 -2 31.5 -16.5t47 -24.5t24.5 -10q5 0 29.5 -10.5t29.5 -10.5l21 -10l51 -20q10 -42 10 -52t5 -81.5t5 -81.5l11 -21v-10q-2 -5 -14.5 -31.5t-23 -47t-14.5 -24.5t-11.5 -17t-13.5 -23l-5 -11l-31 -10l-8 -20 l-10 -11q-5 -5 -36 -25.5t-36 -25.5h-10l-11 -20l-30 -11l-31 -30q-5 0 -30.5 -20.5t-30.5 -20.5q-4 0 -24.5 -25.5t-25.5 -25.5l-20 -11l-10 -10q-11 0 -52 -41l-41 -31l-51 -30l-10 -11l-29 -10h-30l-11 10zM510 655q0 -5 -10.5 -20.5t-10.5 -20.5l-30 -30l-70 -62 l-10 -10q-5 -5 -46 -36t-46 -36l-11 -10l-30 -20q-4 0 -9.5 -5t-8.5 -11l-3 -5q0 -5 -5 -30.5t-5 -30.5v-133h10l11 10l40 31l21 10q5 5 61.5 51t61.5 51q5 0 29.5 20.5t29.5 20.5q5 5 41 31t41 31l31 20l10 10l10 21q0 4 5.5 37.5t5.5 44.5v30q0 5 5 56.5t5 56.5v61l-21 11 q-5 0 -35.5 15t-35.5 15l-21 11l-41 10q-5 0 -24.5 10t-24.5 10q-15 10 -111.5 56.5t-111.5 56.5h-21q-10 -62 -10 -82v-61q10 -21 10 -31l11 -10q10 0 53 -10.5t47 -10.5q82 -31 113 -41l49 -20l30 -10l21 -21v-31zM469 502h20v-10h-20v10z" />
<glyph unicode="?" horiz-adv-x="880" d="M274 471q11 62 21 82l10 31q0 5 15.5 30.5t15.5 30.5l20 51q0 7 11.5 25.5t19.5 26.5l31 40q4 4 12 17t14 24l5 11q0 5 10 30.5t10 30.5t5 26t5 27v52l-10 10h-51l-10 -10q0 -4 -5 -12t-11 -14l-5 -5q-10 -21 -10 -33q0 -5 -10.5 -46t-10.5 -46t-10 -31t-10 -31 q0 -4 -5 -17t-11 -23l-5 -11l-10 -10q-10 0 -62.5 -5t-62.5 -5q-5 0 -25.5 -5t-25.5 -5l-20 -11l-41 11q-11 20 -11 30v174q11 64 21 84q10 21 10 31q4 4 9.5 17t8.5 23l3 11q31 41 41 51l10 11q14 9 40 29.5t44 31.5l20 10q5 0 36 15.5t36 15.5l41 21q4 0 52.5 10t59.5 10 h62q11 0 50.5 -10t43.5 -10q7 0 25 -11.5t26 -19.5q5 -5 31 -36t31 -36l30 -31l11 -20q0 -5 10 -36t10 -36v-41q0 -5 -5 -42t-5 -42q-10 -20 -10 -30q0 -5 -10.5 -26t-10.5 -26t-10 -20.5t-10 -20.5t-15.5 -25.5t-15.5 -25.5l-10 -20q0 -5 -15.5 -25.5t-15.5 -25.5 q-14 -22 -44 -89t-30 -75q-7 -7 -13.5 -45.5t-6.5 -57.5l-10 -10q0 -5 -20.5 -30.5t-20.5 -30.5l-21 -11l-41 -10q-2 0 -58.5 -5t-74.5 -5h-51l-10 10q0 5 -5.5 25.5t-5.5 25.5v113zM551 995q0 -11 -5 -45.5t-5 -38.5q0 -5 -10.5 -30.5t-10.5 -30.5l-20 -31l-11 -20l-10 -11 q-5 -5 -25.5 -51t-25.5 -51l-10 -10l-21 -31l-10 -10l-10 -41l-21 -41l-10 -41l-10 -31v-112h41q5 0 30.5 5t30.5 5l11 10l10 31q0 5 5 36t5 36q20 41 20 51q5 5 20.5 41t20.5 41l11 10l10 20l20 31l11 21l10 10l63 123l11 30q20 42 20 52q0 5 5 26.5t5 26.5v41l-10 31 q0 8 -12 24t-19 16l-32 21l-41 31q-4 4 -12 9t-14 8l-5 3q-5 0 -41 10.5t-41 10.5h-72q-31 -11 -41 -11q-5 0 -30.5 -10t-30.5 -10l-21 -10q-4 0 -11.5 -5.5t-12.5 -10.5l-6 -5q-18 -15 -64 -61q-20 -31 -20 -41q0 -5 -10.5 -25.5t-10.5 -25.5l-10 -33l-10 -51v-103l10 -10 h61q5 0 20.5 5t20.5 5v133q0 5 6.5 27t6.5 27l10 20l72 72q20 20 30 20l31 10h51q31 -10 41 -10l31 -10l20 -20q0 -4 5 -12t11 -13l5 -6v-21zM285 -33q0 10 -5.5 72t-5.5 72l-10 30v11q0 5 15.5 30.5t15.5 30.5q21 31 31 41l10 10q5 0 41 5t41 5h82l30 -10l21 -20 q0 -5 10 -46t10 -46v-93q0 -7 -16.5 -41t-24.5 -41q-5 0 -20.5 -5t-20.5 -5t-40.5 -5t-40.5 -5q-42 -10 -52 -10h-51zM326 70q0 -5 5 -26t5 -26h41q5 0 30.5 5.5t30.5 5.5l21 10v20q0 5 -5 31t-5 31l-11 20h-71q-5 0 -20.5 -5t-20.5 -5v-61z" />
<glyph unicode="@" horiz-adv-x="1685" d="M51 195q0 11 5 49.5t5 42.5t10.5 37.5t10.5 44.5l10 30q0 5 5 36t5 36q0 4 8 27.5t19 54t14 41.5l11 20l10 11q0 5 10 30.5t10 30.5q2 4 19.5 36.5t33 62.5t19.5 44q20 21 20 31l31 41q5 5 31 46t31 46q60 60 71 82q8 10 80 82l31 21l10 10l21 31q20 20 30 20l21 10 l41 11q5 0 46 15t46 15q21 7 83 19t71 12h215q5 0 41 -5t41 -5q4 0 16.5 -5.5t22.5 -10.5l10 -5l30 -10q34 -14 67.5 -38.5t53 -42.5t53.5 -52q11 -11 39.5 -44.5t32.5 -37.5q21 -31 21 -41q0 -5 15 -36t15 -36l11 -20q10 -31 10 -41l10 -51q0 -5 5 -41t5 -41v-31 q-16 -98 -41 -174l-10 -21q0 -5 -10 -30.5t-10 -30.5l-21 -31l-10 -20q-4 -4 -12 -17t-14 -23l-5 -11l-10 -11l-10 -20q0 -4 -5.5 -12t-10.5 -14l-5 -5l-61 -61q-41 -31 -51 -41q-21 -21 -82 -41q-5 0 -50.5 -10.5t-50.5 -10.5l-41 -10l-51 -10l-10 -10v-11l31 -20 q30 -15 30 -51v-11l-20 -61l-21 -10q-30 -21 -30 -31l-21 -31l-71 -71q-4 0 -17.5 -10.5t-30 -24t-24.5 -17.5l-21 -10l-30 -10q-5 0 -31 -20.5t-31 -20.5h-41q-31 -10 -41 -10l-30 -10l-52 -11l-41 -10h-71q-5 0 -20.5 5t-20.5 5l-29 21l-51 20l-41 21l-31 10l-20 10 l-62 41q-51 62 -71 82l-41 51q0 4 -7.5 19.5t-19 36t-14.5 26.5q0 4 -3 12t-5 14l-3 5q0 5 -5 46t-5 46v62zM123 92q10 -31 10 -41l10 -31q0 -5 10.5 -20t10.5 -20q9 -9 25 -32t16 -30l61 -61q10 -10 37.5 -31t34.5 -21q62 -20 82 -30l59 -21h123q5 0 31 5t31 5t25.5 10.5 t25.5 10.5q4 0 25 13t45 28.5t32 19.5q4 0 12 5t13 11l6 5q15 7 54.5 47t47.5 55v21q0 10 -41 51l-92 -92q-10 -5 -38.5 -33.5t-33.5 -28.5q-7 -7 -35 -18.5t-36 -11.5h-144q-5 0 -35.5 5t-35.5 5q-4 0 -19 7.5t-35 19t-26 14.5q-10 0 -41 31l-41 41q0 4 -7.5 19.5t-19 35.5 t-14.5 26q-10 21 -10 31l-10 51v103q0 11 6.5 57t13.5 66l10 41l10 51q45 138 52 153q0 11 41 93q7 23 30 68.5t31 53.5q5 5 29.5 46.5t29.5 46.5l11 20l61 62l10 20l11 10q5 0 20.5 15.5t20.5 15.5q4 0 11.5 5t13.5 10l5 5l21 11l31 20l30 10l21 11l30 10q9 4 29.5 9 t36.5 8l16 3h123q5 0 36 -5t36 -5t30.5 -10t30.5 -10q42 -21 52 -31l61 -41q4 0 11 -7.5t16 -19t12 -14.5q21 -31 31 -41q0 -4 5 -12t10 -13l5 -6q8 -8 19.5 -31t11.5 -30q10 -21 10 -31l10 -51v-113q0 -5 -5 -30.5t-5 -30.5q0 -9 -12 -59t-19 -64l-10 -31q0 -4 -5 -14.5 t-10 -18.5l-5 -8q0 -9 -52 -61l-59 -62l-20 -10q-65 -42 -93 -51h-10l-20 10q-5 0 -20.5 15.5t-20.5 15.5l-31 31q0 5 -10 20.5t-10 20.5v41q0 5 5 41t5 41t10 40.5t10 40.5l10 21q0 5 15.5 41t15.5 41l10 20q4 4 9.5 19.5t8.5 28.5l3 14v41q-31 10 -41 10h-10q-10 0 -36 -5 t-36 -5q-17 0 -25 18.5t-16 22.5l-20 10h-113q-11 -10 -21 -10l-92 -52l-30 -30q-5 -5 -31 -41t-31 -41t-25.5 -46t-25.5 -46l-10 -11l-11 -30l-10 -11l-10 -40l-10 -31v-113q0 -5 5 -20.5t5 -20.5l20 -20q5 0 20.5 -10.5t20.5 -10.5q42 -10 62 -10h10q5 0 25.5 5t25.5 5 q29 7 58 23.5t46 30t48 41.5t43 38l20 11h21l20 -21q0 -5 5.5 -41t5.5 -41l10 -51l31 -31l20 -10l41 -10h72q5 0 20.5 5t20.5 5q7 7 35 19t36 12q21 10 21 20q9 10 36.5 43.5t32.5 38.5q21 21 21 31q0 5 15.5 30.5t15.5 30.5t15 36t15 36l11 31q20 41 20 51q3 11 14 41.5 t19 54t8 27.5q0 5 5 35.5t5 35.5v93l-10 30q0 5 -10 41t-10 41q0 4 -5 17t-11 24l-5 10q0 11 -41 52l-61 61q-21 21 -31 21l-21 10q-8 4 -30.5 12t-40.5 14l-19 5h-82q-10 0 -97 -10.5t-97 -10.5h-31q-5 0 -46 -5t-46 -5h-10q-21 -10 -31 -10l-82 -31q-7 0 -34.5 -20.5 t-37.5 -30.5q-5 0 -25.5 -26t-25.5 -26q-3 -3 -39 -34t-41 -37q-10 -11 -10 -21l-10 -30l-10 -11q0 -5 -20.5 -30.5t-20.5 -30.5t-20.5 -25.5t-20.5 -25.5l-11 -21q0 -5 -15 -25.5t-15 -25.5l-21 -51q0 -5 -15 -31t-15 -31t-15.5 -41t-15.5 -41q-21 -41 -21 -51 q0 -5 -10 -30.5t-10 -30.5t-10.5 -41t-10.5 -41q-7 -20 -13.5 -66t-6.5 -57v-123zM541 492q0 5 5 25.5t5 25.5l10 30q5 5 20.5 41t20.5 41q21 42 31 52l20 30q21 21 31 21q5 0 20.5 10t20.5 10l31 10h41l30 -10q31 -20 41 -30l21 -21l20 10l11 11h41v-21q-11 -41 -21 -51 l-10 -21l-10 -41q0 -5 -20.5 -41t-20.5 -41l-11 -40q-20 -21 -20 -31q0 -4 -8 -12t-16 -13l-7 -6q-7 -7 -42 -30t-50 -31l-20 -11l-31 -10h-10l-62 10q-31 21 -41 31l-10 10q0 5 -5 26t-5 26v41zM1245 819q0 -5 -19.5 -41t-19.5 -41l-10 -30q0 -5 -20.5 -56.5t-20.5 -56.5 l-10 -41l-10 -21q0 -5 -10.5 -30.5t-10.5 -30.5t-5 -25.5t-5 -25.5v-72l20 10q5 5 26 20.5t26 20.5l61 62q7 8 23 41.5t16 40.5q20 92 20 123q0 11 5.5 44.5t5.5 37.5v51l-11 30l-10 41q-20 42 -20 52q0 4 -3 9t-5 8l-3 3l-69 72q-5 0 -31 20.5t-31 20.5l-10 10 q-7 7 -29.5 13.5t-31.5 6.5h-82q-62 -10 -82 -20l-31 -10l-20 -11l-72 -40l-31 -31l-30 -21l-52 -51l-20 -31q5 0 20.5 10.5t20.5 10.5t25.5 10t25.5 10l41 11h92q31 -11 41 -11l31 -10l20 -10l11 10l10 21l10 10q5 0 30.5 5t30.5 5q42 10 52 10h51l41 -30l31 -11l10 -10 q0 -5 9 -30.5t9 -30.5v-21zM399 123q11 -42 11 -62l10 -51q10 -20 10 -30q0 -4 2.5 -9.5t5.5 -8.5l2 -3q29 -20 39 -20q4 0 12 -2.5t13 -5.5l6 -3h143q21 11 31 11l21 10q28 18 71 61q5 5 51.5 61.5t51.5 61.5l10 10q5 0 20.5 5.5t20.5 5.5l-62 61l-10 21l-10 30l-10 21 l-21 -21q-52 -31 -72 -41l-20 -10q-21 -10 -31 -10l-41 -10h-112q-52 10 -72 20l-20 10q-4 5 -50 51v-153zM827 696q-8 0 -24.5 -11.5t-16.5 -18.5l-20 -41l-10 -11q-8 -8 -24.5 -36t-16.5 -35q0 -5 -10.5 -25.5t-10.5 -25.5v-52l31 11q10 0 51 41q0 4 7.5 19.5t19 35.5 t14.5 26l10 41q0 5 15.5 26t15.5 26v20l-10 10h-21zM1053 133q-7 0 -7 -10t7 -10t7 10t-7 10z" />
<glyph unicode="A" horiz-adv-x="958" d="M567 1235l21 -10h41q5 0 30.5 -10.5t30.5 -10.5l21 -20l10 -41q0 -5 10 -31t10 -31t10.5 -51t10.5 -51l10 -21l10 -30q0 -5 5.5 -36t5.5 -36q0 -11 10 -54.5t10 -47.5l10 -31q0 -5 5.5 -20.5t5.5 -20.5t5 -30.5t5 -30.5q10 -31 10 -41l10 -31q0 -5 10.5 -46t10.5 -46 t10 -36t10 -36t10.5 -25.5t10.5 -25.5v-51q-11 -42 -11 -52l-10 -30q0 -5 -5 -31t-5 -31l-10 -30q0 -5 -5.5 -26t-5.5 -26h-215l-10 11q0 5 -5 30.5t-5 30.5t-20.5 46t-20.5 46q0 10 -10 56.5t-10 56.5h-11q-5 0 -41 -5t-41 -5l-61 -11l-10 -10q0 -16 -12 -77.5t-19 -75.5 q0 -5 -10.5 -20.5t-10.5 -20.5l-51 -52l-30 -10l-21 -20q-41 -11 -51 -11q-5 0 -31 -5t-31 -5l-41 -10h-71v82l10 31q0 5 15.5 56t15.5 56l10 21q0 5 5 35.5t5 35.5q10 31 10 41l11 31q0 10 20.5 82t20.5 82q0 5 10 25.5t10 25.5l10 51l11 31l10 41q0 8 12 48t19 54l10 31 q0 5 5 31t5 31t15.5 46t15.5 46q10 41 10 51q0 5 5 30.5t5 30.5q0 4 12.5 17t30 28t19.5 17q9 9 31.5 25t29.5 16q92 10 123 10h10zM362 1071q-2 -8 -10 -63.5t-20 -79.5l-10 -21q0 -5 -5.5 -35.5t-5.5 -35.5t-15 -41t-15 -41l-11 -52q0 -5 -10 -35.5t-10 -35.5 q0 -10 -20.5 -82t-20.5 -82q0 -5 -10.5 -36t-10.5 -36l-10 -41l-10 -30q0 -5 -10.5 -41t-10.5 -41t-10 -36t-10 -36l-10 -20q0 -5 -10.5 -41t-10.5 -41h31q5 0 41 10t41 10l10 10l10 21q11 41 11 51q0 5 5 30.5t5 30.5t5 20.5t5 20.5l10 31q0 5 5.5 25.5t5.5 25.5 q24 0 102.5 12t101.5 19l31 10h82q21 -10 31 -20l10 -10q0 -11 10 -55t10 -48l41 -143h113v10l-10 31q0 5 -15.5 35.5t-15.5 35.5q-10 52 -10 72q0 5 -5 41t-5 41l-11 21q-20 81 -30 112l-11 41l-10 31q-10 41 -10 51q0 5 -5 30.5t-5 30.5t-10.5 51.5t-10.5 51.5 q0 10 -15.5 92t-15.5 92q0 12 -40 92l-11 11h-102q-5 0 -36 -5.5t-36 -5.5zM557 487h-72q-5 0 -46 -5t-46 -5h-82l-20 10v62q0 5 5 30.5t5 30.5q4 20 14.5 68.5t18.5 85.5t8 41q0 5 10 25.5t10 25.5t15.5 46t15.5 46l10 21q0 4 5.5 11.5t10.5 13.5l5 5q0 4 5 9.5t10 8.5l5 3 q31 -11 41 -21l21 -20q0 -5 5 -46t5 -46q0 -4 10.5 -37.5t10.5 -44.5l10 -31q0 -5 10 -56t10 -56t15.5 -36t15.5 -36t5 -25.5t5 -25.5v-52l-10 -20h-10q-11 0 -31 20zM475 774l-10 -31l-10 -20q0 -5 -10.5 -36t-10.5 -36v-41h72l10 11l-10 30q0 5 -5 36t-5 36l-11 41z" />
<glyph unicode="B" horiz-adv-x="874" d="M106 897q0 5 5.5 36t5.5 36v133l10 72q41 30 61 40q5 0 30 15.5t30 15.5l31 21l30 10h51l52 -10q5 0 45.5 -5.5t44.5 -5.5q41 -10 51 -20q5 0 20.5 -10.5t20.5 -10.5t25.5 -15t25.5 -15l21 -10l61 -62l31 -41q0 -5 9 -41t9 -41v-143q-10 -21 -10 -31q0 -5 -19.5 -51 t-19.5 -51v-11q7 0 28.5 -15.5t30.5 -24.5l11 -21l20 -20l21 -31l30 -41v-31l11 -31q0 -5 5 -30.5t5 -30.5v-61q-21 -73 -31 -93l-10 -20l-21 -31l-10 -10l-20 -31q-31 -31 -39 -41l-31 -20l-10 -10l-31 -21l-20 -20l-21 -11q-7 -7 -40 -18.5t-42 -11.5l-41 -11l-20 -10 q-19 -10 -29 -10l-41 -10l-31 -11q-5 0 -56 -5t-56 -5t-45 -5t-45 -5h-11q-4 0 -17 5t-23 10l-11 5l-10 21v51l-10 21q0 11 -5.5 44.5t-5.5 37.5v747zM168 88l10 -31q0 -9 21 -30h141q5 0 30.5 5t30.5 5t26 10t26 10q31 11 41 11l49 10q5 0 25.5 15.5t25.5 15.5l20 10l11 20 q5 5 35.5 31t35.5 31l11 10l20 31q4 4 9.5 14.5t8.5 18.5l3 8v194q-21 52 -31 62l-21 20l-51 41l-41 21l-41 41l72 71l31 41q0 8 11.5 42.5t18.5 49.5q11 42 11 52v10l-31 92l-31 31l-41 30q-7 0 -42 11.5t-50 19.5q-12 7 -46 14t-44 7h-154q-11 0 -53.5 -10.5t-46.5 -10.5 v-235q0 -5 -5 -31t-5 -31v-31q0 -10 5 -87t5 -87v-522zM258 170l10 31l11 51v307l10 31q31 10 41 10h102q5 0 35.5 -5t34.5 -5q7 0 30 -11.5t31 -19.5q31 -21 41 -31l21 -20l20 -31l10 -31v-71q0 -4 -5 -17t-10 -24l-5 -10l-10 -31q0 -5 -10.5 -20.5t-10.5 -20.5 q0 -4 -5 -12t-10 -14l-5 -5l-31 -20l-21 -21l-20 -10q-4 0 -46.5 -15.5t-53.5 -15.5q-5 0 -26 -5t-26 -5h-92l-10 31v10zM268 1020l11 10h143q51 -10 61 -20q8 -8 30.5 -19.5t29.5 -11.5q4 0 12 -7.5t17 -19t12 -14.5q10 -21 10 -31q0 -5 5 -25.5t5 -25.5v-31 q0 -5 -10 -20.5t-10 -20.5l-31 -30l-41 -31q-4 0 -36.5 -10.5t-43.5 -10.5q-5 0 -41 -5t-41 -5l-20 -10q-5 0 -20.5 -5t-20.5 -5q0 16 -5 87t-5 87q0 5 -5.5 56t-5.5 56v62zM412 539v-277h20l70 10l30 41q0 5 20.5 26t20.5 26v92l-10 20l-20 21q-21 20 -31 20l-18 10l-41 11 h-41zM381 969v-51q10 -42 10 -52l10 -41l111 -10l10 10l10 21v51q-30 31 -38 41l-21 10q-4 0 -19.5 5t-28.5 11l-13 5h-31z" />
<glyph unicode="C" horiz-adv-x="888" d="M29 571q0 2 5 45.5t5 61.5q0 10 5 41t5 35l8 39l11 47q0 9 5 25.5t10 28.5l5 13q0 5 19.5 39t19.5 39l10 29l31 37l10 20q0 4 5 11.5t11 12.5l5 5l18 20q31 17 41 27l29 20l39 37l30 10l50 21l28 8h199q9 0 25.5 -5.5t23.5 -12.5q62 -38 82 -58l10 -10q4 -10 26.5 -36 t22.5 -31q8 -19 8 -29q11 -48 11 -68l10 -75v-78q-8 0 -18.5 -11t-10.5 -18q-31 -48 -41 -68l-8 -18l-10 -8h-160q0 -7 -12 -19t-19 -12h-28q-7 0 -14 11.5t-7 19.5v164q-8 27 -8 37q0 4 -2.5 11t-5.5 12l-2 5h-31l-18 -10q-4 0 -12.5 -4.5t-14.5 -9.5l-6 -4l-10 -37 q0 -5 -14.5 -44.5t-14.5 -43.5l-10 -19l-10 -41l-9 -16q0 -4 -10 -55t-10 -62q0 -10 -5 -46t-5 -40v-96q0 -4 5 -35.5t5 -42.5l10 -37q0 -5 14.5 -29.5t14.5 -29.5l20 -8h39q9 0 32 10.5t30 17.5q20 50 28 58l11 38l10 29q0 15 10 87t10 85l8 10l50 39l20 21l21 8h129 q20 -8 20 -18q8 -9 15 -21t14 -27t10 -20q0 -15 -5 -82t-5 -82q-11 -75 -19 -106l-10 -47l-10 -29q0 -5 -19.5 -34t-19.5 -34l-10 -18q0 -4 -5 -12t-11 -13l-5 -6q-4 -7 -19.5 -23.5t-28.5 -28.5l-13 -13l-78 -39q-72 -29 -78 -29h-121l-10 10q-5 0 -39.5 9.5t-38.5 9.5 q-8 0 -35 10.5t-34 17.5q-29 19 -39 29l-52 47l-10 21q0 5 -19.5 28.5t-19.5 28.5l-10 39l-20 37l-11 49l-8 39v18l-10 31v18q0 4 -5 28.5t-5 29.5v114zM88 514l10 -115q0 -26 29 -116q8 -14 19.5 -46.5t11.5 -39.5q20 -39 30 -47q0 -4 5 -11.5t11 -12.5l5 -5l39 -39 q4 -4 23.5 -13.5t44.5 -21t30 -14.5q29 -8 39 -8h10l29 8q12 0 66.5 5t64.5 5l18 10q4 0 12 5.5t13 10.5l6 5q19 27 29 37q8 8 19.5 24.5t11.5 22.5l8 28q0 5 25.5 68.5t25.5 67.5q0 15 5 87t5 85h-100q0 -5 -5 -43t-5 -43q-9 -48 -19 -68q-8 -14 -19.5 -46.5t-11.5 -39.5 q-8 -19 -18 -27l-10 -10l-29 -20l-10 -11l-60 -28h-120q-5 5 -25 19.5t-25 19.5l-18 20q-20 19 -20 27l-11 20q0 5 -9 38.5t-9 37.5v281q0 4 4 39.5t4 46.5q0 10 10.5 50.5t10.5 43.5q5 10 19 58.5t19 58.5q21 39 31 47q0 4 4.5 11t9.5 12l5 5q0 4 7.5 12t14.5 13l8 6l19 10 q3 0 36 4t46 4h39q20 -8 28 -18l11 -10l30 -39l8 -19l11 -28l10 -47v-107h88l20 10v134l-10 47q0 5 -5 29.5t-5 29.5l-10 18q0 4 -5 11t-9 13l-5 5l-30 29q-4 0 -11 5t-12 10l-6 5q-5 0 -29.5 8.5t-29.5 8.5t-34.5 5t-33.5 5h-33q-5 0 -24.5 -5t-24.5 -5l-20 -9 q-14 -6 -48 -28t-41 -29q-7 0 -17.5 -11.5t-10.5 -17.5q-21 -39 -31 -49q-59 -95 -59 -106q-21 -66 -31 -86l-10 -37l-11 -31l-8 -47q-10 -115 -10 -162v-10zM68 322q-8 0 -8 -9.5t8 -9.5t8 9.5t-8 9.5z" />
<glyph unicode="D" horiz-adv-x="894" d="M102 27l11 30v535q0 10 5 124t5 124v299l61 61q31 21 41 31l21 10q4 4 17 9.5t23 8.5l11 3h61q5 0 46.5 -5.5t46.5 -5.5q31 -10 41 -10l61 -20l31 -21l30 -10l11 -10l82 -72l10 -10q41 -41 41 -54q20 -20 20 -30q4 -4 12 -17t14 -23l5 -11l10 -41q0 -5 15.5 -41t15.5 -41 q0 -10 10 -66.5t10 -66.5v-136q-10 -71 -20 -102l-10 -41l-11 -20l-10 -41q-21 -31 -31 -41l-51 -62l-92 -94l-41 -31l-10 -10q-18 -9 -56.5 -31.5t-45.5 -29.5q-4 -4 -29 -17t-57.5 -28t-36.5 -17q-5 0 -26 -10t-26 -10t-30.5 -5.5t-30.5 -5.5l-41 -10h-72l-20 10l-10 11 l-11 20v21zM174 68l10 -21h92q21 10 31 10l21 11q5 0 35.5 15t35.5 15q6 3 26.5 14.5t36 19t19.5 7.5q5 5 31 20.5t31 20.5q10 12 92 94l31 41l10 11q8 8 19.5 31t11.5 30q8 16 19 45.5t11 36.5q0 4 5.5 37.5t5.5 44.5v51q0 66 -21 217q0 5 -5 25.5t-5 25.5l-10 41 q0 5 -15.5 26t-15.5 26q-82 82 -92 94q-42 20 -52 20l-40 10l-11 11h-184q-11 0 -54.5 -10.5t-47.5 -10.5v-166q0 -5 -5.5 -51t-5.5 -51q0 -23 -5 -105.5t-5 -91.5v-544zM287 264v266q0 5 5 52.5t5 52.5v215q0 5 -5 25.5t-5 25.5v92l10 11q5 0 20.5 5t20.5 5h123l61 -31 q4 -4 17 -12t23 -13l11 -6q4 0 12 -7.5t17 -19t12 -14.5q21 -20 21 -30q0 -4 5 -14.5t10 -18.5l5 -8q0 -5 10.5 -41t10.5 -41q0 -10 5 -61.5t5 -61.5q0 -4 -5 -43.5t-5 -50.5t-10.5 -44.5t-10.5 -37.5q-3 -5 -14.5 -31.5t-22 -47t-14.5 -24.5l-92 -92q-31 -20 -41 -20 l-72 -31h-61q-4 0 -14.5 5t-18.5 10l-8 5q-10 21 -10 31zM440 592q0 -5 -5 -46t-5 -46v-113h21q5 0 20.5 10.5t20.5 10.5l30 30q5 5 25.5 31t25.5 31l11 20q30 76 30 156v31q-10 31 -10 41l-10 20q0 5 -10.5 36t-10.5 36q-20 31 -30 41l-31 30q-31 21 -41 21l-31 10 q-10 -10 -10 -20v-21q0 -5 5 -76.5t5 -76.5v-156z" />
<glyph unicode="E" horiz-adv-x="788" d="M150 309v31q0 17 -12 165.5t-19 213.5q0 5 -5 36t-5 36v327q4 0 11.5 8t13.5 16l5 7l11 20l10 11l41 30q8 8 31 19.5t30 11.5q10 0 77 5t77 5h246l10 -10q5 -5 20.5 -41t20.5 -41l10 -31q0 -4 5 -37t5 -44v-31q-5 0 -25.5 -10.5t-25.5 -10.5q-31 -41 -41 -41 q-41 -10 -61 -10q-5 0 -41 -5t-41 -5q-27 0 -92 -21v-92l10 -30h51q5 0 46 5t46 5h92l21 -10v-164q0 -5 -5 -36t-5 -36l-11 -20l-20 -21q-5 0 -31 -10t-31 -10t-35.5 -5.5t-35.5 -5.5t-31 -10t-31 -10v-51q0 -5 5 -36t5 -36h154q5 0 36 5t36 5h112l21 -10l10 -10 q0 -5 5 -20.5t5 -20.5v-51q-10 -42 -10 -52l-10 -30q0 -11 -41 -52l-51 -51q-72 -20 -103 -20q-5 0 -41 -5t-41 -5t-41 -10.5t-41 -10.5t-25.5 -5t-25.5 -5l-61 -10h-133q-11 0 -31 20l-10 21v92q0 15 -5 97t-5 97zM190 483q0 -5 5.5 -20.5t5.5 -20.5q0 -6 10 -101t10 -124 v-31q0 -10 5 -66.5t5 -66.5h113q5 0 31 5t31 5t35.5 10.5t35.5 10.5q52 10 62 10q5 0 35.5 5t35.5 5l41 11l11 10v41l-11 20l-10 11h-205q-20 -11 -30 -11l-41 -20h-31l-21 20q-10 42 -10 52q0 5 -5 56t-5 56t-5 36t-5 36v102l10 11h31l41 10q5 0 46 5t46 5l41 10l10 10v41 q0 8 -12 19.5t-19 11.5h-143l-21 10q-20 20 -20 31l-10 41l-11 31l-10 41q0 5 -5 35.5t-5 35.5v103q5 0 20.5 5t20.5 5h10q11 0 44.5 5t37.5 5l41 11q5 0 56.5 5t56.5 5l20 10v31l-10 20q-21 10 -31 10q-38 -3 -106.5 -7t-125 -9t-106.5 -14v-123q0 -36 5 -225.5t5 -225.5z " />
<glyph unicode="F" horiz-adv-x="788" d="M123 438q0 5 5 25.5t5 25.5q0 11 5 44.5t5 37.5v54q0 33 -10 166t-10 151q0 4 -5 32.5t-5 39.5q-11 43 -11 53q0 20 21 41l51 31l31 20q5 0 35.5 20.5t35.5 20.5l31 21q5 0 20.5 5t20.5 5q20 0 128 5t128 5h123l31 -20l10 -11v-176l-10 -10l-82 -72l-31 -30l-20 -11 q-5 0 -26 -5t-26 -5q-10 0 -56 -5t-56 -5v-103h215q21 0 41 -20q10 -21 10 -31v-20q0 -18 -5 -70.5t-5 -54.5l-10 -21l-93 -92q-5 0 -35.5 -5t-35.5 -5l-62 -10l-20 -10q-10 -31 -10 -41l-11 -52v-217l-20 -20l-31 -51l-10 -11l-21 -41l-10 -10l-41 -10l-31 -10h-92 q-31 10 -41 20l-10 10q0 5 -5 26t-5 26v370zM195 68l20 -11h51l31 11v145q0 10 -5 82t-5 82v123l20 20l21 10h133q5 0 30.5 5.5t30.5 5.5l31 10v84q-11 10 -21 10q-5 0 -35.5 5t-35.5 5t-31 -5t-31 -5l-20 -10h-31l-20 20q0 15 -5.5 118t-5.5 118v20l11 41q31 11 41 11t56 5 t56 5h103l10 10q0 5 5 25.5t5 25.5v33h-153q-5 0 -36 -5t-36 -5q-15 0 -97 -11.5t-98 -11.5v-71q0 -66 5.5 -200t5.5 -202v-41q0 -5 -5.5 -25.5t-5.5 -25.5v-279q0 -10 5.5 -61t5.5 -61z" />
<glyph unicode="G" horiz-adv-x="940" d="M59 647q0 11 5.5 49.5t5.5 42.5q0 9 11.5 59t18.5 64q0 8 17 58t24 65l11 21l10 41q31 53 43 63l41 51l20 10q5 0 25.5 20.5t25.5 20.5q8 8 26.5 19.5t25.5 11.5q31 10 41 10q5 0 36.5 5.5t36.5 5.5h62q51 -11 71 -21l31 -10l31 -21l20 -10l43 -51l31 -31l10 -20l11 -10 l10 -21l10 -10l10 -43l11 -31q0 -5 5 -61.5t5 -61.5l10 -31q-7 -7 -30 -18.5t-31 -11.5q-2 0 -49.5 -5t-65.5 -5h-103l-20 10l-10 10q0 11 -5 54.5t-5 47.5q0 7 -11.5 31t-19.5 31q-31 -31 -43 -41q0 -4 -5.5 -12t-10.5 -14l-5 -5v-31q-10 -20 -10 -30l-10 -21v-30l-10 -21 q0 -5 -5.5 -25.5t-5.5 -25.5q0 -10 -5 -67.5t-5 -67.5v-62q0 -11 5 -49.5t5 -42.5q0 -5 10.5 -25.5t10.5 -25.5l10 -10v-11q0 -7 16.5 -30t26.5 -31l10 -10l31 -21l21 -10h10l20 10q21 21 21 41v82l-11 10l-30 -10h-51q-8 0 -20.5 12t-12.5 19q0 4 -10.5 47.5t-10.5 54.5v10 q0 5 5.5 36t5.5 36l10 43l12 10l31 21q5 0 35.5 25.5t35.5 25.5l21 10h20q11 0 50 -5t43 -5q19 0 65.5 -10t48.5 -10q8 0 24.5 -12t16.5 -19q10 -31 10 -41v-248q0 -5 -5 -20.5t-5 -20.5t-5 -30.5t-5 -30.5q-20 -41 -20 -51q-7 -7 -19 -31.5t-12 -32.5l-31 -41l-10 -20v-11 l-21 -20l-22 -10q-5 0 -36 -26t-36 -26t-20.5 -10t-20.5 -10q-4 -4 -19.5 -9.5t-28.5 -8.5l-13 -3h-105q-5 0 -46 26t-46 26l-41 20q-21 21 -31 21l-40 30q-5 5 -27 31t-27 31l-20 20q-21 33 -21 43l-41 92q0 5 -5 36t-5 36q-10 31 -10 41l-10 31v20q0 5 -5.5 36t-5.5 36v94 zM131 532q0 -5 10.5 -35.5t10.5 -35.5q10 -41 10 -51q0 -5 5 -31t5 -31l10 -31l11 -41l12 -20q0 -4 5 -12t10 -14l5 -5q0 -12 51 -63l11 -10l51 -41q51 -21 61 -31q5 -1 31.5 -11t46 -15t37.5 -5h10q41 11 51 21q4 0 14.5 5t18.5 10l8 5q5 5 31 25.5t31 25.5q31 31 31 41 q8 9 20 33t12 31q0 16 5.5 87t5.5 87v82q-11 31 -11 41l-12 30q-4 0 -47.5 5.5t-54.5 5.5l-92 -11l-11 -10v-92h62q20 -10 30 -10l21 -10q7 -7 19 -45.5t12 -47.5v-20q0 -5 -5.5 -25.5t-5.5 -25.5l-10 -21q0 -4 -5 -11.5t-10 -12.5l-5 -6q-42 -42 -52 -54l-20 -10l-31 -10 h-63l-41 10q-42 43 -62 53l-10 11q0 5 -10 20t-10 20q0 4 -8 25t-18.5 48.5t-14.5 39.5q0 4 -2.5 12t-5.5 13l-3 6q-10 41 -10 51l-10 61v228q0 5 5 20.5t5 20.5q0 10 10.5 66.5t10.5 66.5l20 20l21 31l51 51l20 11q3 0 37 6t47 6h21q4 0 14.5 -5.5t18.5 -11.5l8 -6 q3 -3 14.5 -12t19 -17t7.5 -12q10 -20 10 -30q0 -5 10 -36t10 -36t5.5 -25.5t5.5 -25.5h30q5 0 31 5t31 5v20l-10 31q0 5 -5.5 31t-5.5 31q0 8 -11.5 31t-18.5 30q-31 33 -41 43q-5 5 -36 30.5t-36 30.5l-20 11q-5 0 -26 5t-26 5h-104l-31 -10l-10 -21l-51 -20 q-11 -21 -21 -31q-4 -10 -17 -31t-23 -37l-11 -16l-10 -51q0 -5 -21.5 -61.5t-21.5 -61.5l-10 -51l-11 -41q0 -3 -5 -52.5t-5 -62.5v-72z" />
<glyph unicode="H" horiz-adv-x="1110" d="M113 264q0 10 5 107.5t5 107.5v135q0 26 -10.5 242t-10.5 242v10l11 41q0 4 7.5 12t19 17t14.5 12q8 8 26 19.5t25 11.5l51 10l31 10h73q5 0 41 -10t41 -10l11 -11v-196q0 -5 5 -46t5 -46q0 -10 5 -61.5t5 -61.5h10l103 10l20 10q10 31 10 41q0 5 5.5 77t5.5 77t5 31.5 t5 31.5q0 22 20 62l31 41l41 20q5 0 36 20.5t36 20.5h43q5 0 41 -5t41 -5h71l11 -10l10 -41l10 -31q0 -5 5 -36t5 -36t5.5 -26t5.5 -27q0 -30 10 -189t10 -190v-31q0 -59 -5 -169.5t-5 -159.5q0 -15 5 -46t5 -46v-23q-5 -5 -30.5 -36t-30.5 -36l-31 -30l-21 -31 q-31 -21 -41 -21q-20 -10 -30 -10q-5 0 -20.5 -5t-20.5 -5l-53 -10h-31q-21 31 -21 41q-10 31 -10 41q0 5 -5 41t-5 41q-10 43 -10 53q0 21 -10.5 128t-10.5 128l-10 10h-123q-5 0 -30.5 -5t-30.5 -5l-11 -10v-123q0 -5 5.5 -51.5t5.5 -51.5v-84l-31 -20l-103 -103l-22 -10 q-10 0 -61.5 -10t-61.5 -10h-72l-20 10q0 5 -5 25.5t-5 25.5v217zM184 129v-31q0 -5 5.5 -20.5t5.5 -20.5h10l82 11l20 10l10 10q0 10 5.5 56.5t5.5 58.5q0 5 5 25.5t5 25.5v235l22 21q21 10 31 10t97.5 10.5t97.5 10.5q5 0 35.5 5t35.5 5t31 -5t31 -5l10 -11l10 -20 q4 -4 9.5 -19.5t8.5 -28.5l3 -13q0 -4 5 -43t5 -50q0 -5 5 -76.5t5 -76.5q0 -12 10.5 -63.5t10.5 -61.5l10 -10h53l21 10l10 10q0 5 5 41t5 41v10q0 6 -5 27t-5 26q0 31 -5 222t-5 221q0 5 -5.5 46t-5.5 46v289l-10 20h-20l-105 -10l-10 -10q-10 -74 -10 -105q0 -10 -5 -82 t-5 -82q0 -5 -5.5 -20t-5.5 -20q0 -8 -11.5 -31.5t-18.5 -30.5q-5 0 -41 -5t-41 -5t-36 -5t-36 -5q-10 0 -61.5 -5.5t-61.5 -5.5h-41l-22 11l-21 20v391q-31 10 -41 10h-82v-237q0 -10 5.5 -112.5t5.5 -112.5v-74q0 -72 -5.5 -214t-5.5 -208z" />
<glyph unicode="I" horiz-adv-x="458" d="M137 16q0 10 -5 67t-5 67q0 26 -10.5 261t-10.5 261q0 5 -5 51t-5 51t-5 72t-5 72t-5 51t-5 51v102q10 21 51 41l20 11l39 30q5 0 20.5 10.5t20.5 10.5h21q5 0 50.5 -5.5t49.5 -5.5h10l41 -71q11 -338 11 -481v-93q0 -10 5 -76.5t5 -76.5q0 -5 5 -41t5 -41v-51 q0 -5 5 -41t5 -41v-11l-82 -163l-10 -11l-18 -10l-164 -10l-19 10zM158 938q0 -5 4 -51t4 -51q0 -41 10 -179.5t10 -148.5v-154q0 -16 5.5 -102t5.5 -102q0 -5 5 -41t5 -41h82q4 0 11.5 5t13.5 10l5 5v143l-10 31l-10 41l-31 778h-61q-5 0 -25 -5t-24 -5v-133z" />
<glyph unicode="J" horiz-adv-x="598" d="M39 160v43l10 20q5 0 31 5t31 5t20.5 10.5t20.5 10.5l22 20q0 4 5 12t11 14l5 5l10 31q0 5 5 41t5 41v217q0 2 -5 58.5t-5 74.5q0 5 -5 41t-5 41q-11 41 -11 51q0 5 -5 77.5t-5 78.5l-12 30v72l12 10l21 11l30 30q4 0 19.5 7.5t36 19t26.5 14.5q4 0 12 2.5t13 5.5l6 3h61 q5 0 32 -5.5t32 -5.5l10 -10l21 -31q0 -16 10 -109t10 -108q0 -5 5 -30.5t5 -30.5q0 -16 5.5 -98t5.5 -97v-299q-11 -41 -11 -61l-10 -51v-11q-7 -14 -19 -54t-12 -48q-20 -33 -30 -43l-105 -102q-51 -31 -61 -41q-5 0 -20.5 -10.5t-20.5 -10.5t-31 -10t-31 -10l-43 -11h-82 q-20 122 -20 185zM111 88l10 -31h20q4 0 17.5 5.5t25.5 10.5l11 5q10 0 61 51l92 94q8 8 19.5 54t11.5 69q0 6 5 96t5 119v330q0 4 -5 58t-5 65q0 5 -5 26.5t-5 26.5l-11 31q-5 0 -41 -5.5t-41 -5.5l-30 -10v-73q0 -4 5 -58t5 -65q0 -10 10 -92.5t10 -92.5q0 -7 5.5 -90 t5.5 -106v-72q0 -11 -5.5 -54.5t-5.5 -47.5q0 -5 -10 -31t-10 -31q-21 -31 -31 -41l-30 -30l-54 -33l-30 -21v-51z" />
<glyph unicode="K" d="M102 684q0 5 5.5 77t5.5 77v297l20 30l10 11l31 20l10 10l41 11l31 10q5 0 31 5t32 5h21q9 0 29.5 -5t36.5 -10l16 -5l20 -21v-256h11q30 21 30 31q12 12 103 153l30 52l11 10q5 0 25.5 15.5t25.5 15.5q4 4 14.5 9t18.5 8l8 3h22q5 0 31 -5t31 -5q10 0 56 -5t56 -5 l11 -11q0 -4 5 -14.5t10 -18.5l5 -8v-20q0 -5 -10 -25.5t-10 -25.5q-21 -42 -31 -52q-5 -5 -30.5 -46t-30.5 -46l-31 -41q-9 -9 -25 -31.5t-16 -29.5q0 -5 -16.5 -31t-16.5 -31t-15.5 -25.5t-15.5 -25.5l-10 -20q5 -5 20.5 -41t20.5 -41l23 -51q0 -5 15 -31t15 -31l21 -51 l10 -20v-31l21 -21l81 -164q21 -51 21 -71v-10l-10 -21l-11 -10v-41l-20 -21l-10 -30l-11 -11l-30 -10h-62q-10 0 -72.5 -5t-72.5 -5l-21 10q-20 31 -30 41l-11 21q0 5 -15 46t-15 46t-15.5 35.5t-15.5 35.5t-10 31t-10 31l-11 20l-10 31q0 4 -9.5 23.5t-10.5 25.5v-254 l-11 -10l-20 -31l-21 -20q0 -5 -20.5 -31t-20.5 -31l-10 -10q-5 0 -26.5 -5t-26.5 -5h-113l-20 10l-31 31q-10 31 -10 41l-10 61v164q0 10 -5.5 92t-5.5 92v195zM184 950q0 -10 5.5 -122.5t5.5 -122.5v-390q0 -9 5 -83t5 -91l10 -71h61v409l31 31l33 41q0 4 8 12t16 13l7 6 l20 10h21l20 -10l31 -31q20 -42 20 -62l11 -40l20 -31l10 -21q0 -5 10.5 -30.5t10.5 -30.5l20 -41l62 -184l20 -11h21l30 11q5 0 47.5 5t47.5 5q-4 4 -14.5 24t-23 47t-14.5 31l-12 31q-10 32 -32 89.5t-29 64.5q-5 5 -31 66.5t-31 66.5t-30.5 71.5t-30.5 71.5l-21 41v20 q5 5 31 46.5t31 46.5l92 102q11 11 45.5 54.5t38.5 47.5q0 5 10 20.5t10 20.5l-10 11l-31 10h-84l-20 -31q-5 -5 -36 -51t-36 -51l-10 -21l-31 -30q-41 -41 -41 -52q-5 -5 -35.5 -56t-35.5 -56l-21 -21l-20 -41l-21 -10h-20l-23 10l-10 11v348q-21 31 -21 41l-10 10h-41 l-10 -31l-20 -10q-11 -31 -11 -41v-72z" />
<glyph unicode="L" horiz-adv-x="874" d="M164 106q0 46 -12 189.5t-19 189.5q0 10 -10 87t-10 87v21q0 5 -5.5 36t-5.5 36v378l52 52l41 20l10 10q5 0 20.5 10.5t20.5 10.5h123l41 -10q20 -21 20 -31q0 -5 10.5 -25.5t10.5 -25.5q7 -14 13.5 -38.5t6.5 -33.5q0 -5 5 -71.5t5 -71.5t5.5 -26t5.5 -26v-71 q0 -5 5 -66.5t5 -66.5v-72q0 -2 5 -53.5t5 -69.5q0 -5 5 -46t5 -46h72q5 0 25.5 5t25.5 5h31q5 0 41 5t41 5l41 11h30l21 -21q20 -62 20 -82q0 -5 5.5 -25.5t5.5 -25.5v-10l-11 -21l-30 -30q-5 -10 -46 -56.5t-46 -56.5q-5 0 -20.5 -5t-20.5 -5l-52 -10l-30 -11h-21l-51 -10 q-5 0 -46 -5t-46 -5t-31 -5t-31 -5h-51q-5 0 -51 -5.5t-51 -5.5h-51l-11 11q0 5 -10 40.5t-10 40.5zM225 117q0 -10 21 -31h143q5 0 31 5t31 5h20q5 0 61.5 10.5t61.5 10.5h10l41 10l21 10l30 10v52q0 5 -5 25.5t-5 25.5h-31q-5 0 -51 -5t-51 -5q-10 0 -66.5 -5.5 t-66.5 -5.5h-31q-4 0 -12 2.5t-13 5.5l-6 3l-20 20q0 10 -5 71.5t-5 71.5v267q0 5 -5.5 46t-5.5 46q0 10 -5 107.5t-5 107.5l-10 51l-31 31l-20 10h-72l-10 -10v-133q0 -28 5 -130.5t5 -115.5q0 -5 5 -31t5 -31t5.5 -46t5.5 -46v-20q0 -31 15 -195t15 -194z" />
<glyph unicode="M" horiz-adv-x="1323" d="M102 39q0 5 5.5 36t5.5 36q0 42 5 259.5t5 252.5q0 14 5 108.5t5 116.5q0 2 5 48.5t5 64.5l11 92q10 20 10 30l10 21q10 10 31 25.5t31 25.5l30 31l21 10h153l21 -10l10 -21l10 -41l11 -20q0 -4 5 -17t10 -23l5 -11l10 -41l10 -31l11 -41q10 -21 10 -31q4 -12 14.5 -39 t18.5 -48t8 -25l10 -21l10 -31l11 -20l10 20q0 5 10 31t10 31t15.5 30.5t15.5 30.5q10 31 10 41q0 5 5.5 31t5.5 31l10 30l10 52l10 41q0 4 5.5 14.5t10.5 18.5l5 8q31 20 41 30l30 21l11 10q5 0 20.5 10.5t20.5 10.5l30 10l21 10h31q4 0 47.5 -5t54.5 -5t39.5 -5t32.5 -5 l20 -11l10 -10q0 -5 5.5 -36t5.5 -36t10 -51t10 -51l10 -61v-31q0 -5 10.5 -46t10.5 -46v-11l-10 -10l10 -20q0 -5 5 -41t5 -41t10.5 -56.5t10.5 -56.5v-10q0 -5 10 -51.5t10 -51.5v-20q0 -5 5 -20.5t5 -20.5l10 -20l-10 -11l10 -30v-21l11 -20l-11 -41v-21l-20 -41l-20 -51 q0 -4 -5 -14.5t-11 -18.5l-5 -8l-31 -10l-20 -10h-62l-20 -11h-62l-40 -10h-21l-10 10l-10 21q0 5 -10.5 30.5t-10.5 30.5q-20 119 -41 174q0 -5 -5 -35.5t-5 -35.5q-7 -14 -19 -64t-12 -59l-20 -31l-11 -20l-20 -21l-41 -20l-10 -21l-10 -10l-21 -10h-31v10h-10l-20 10h-21 l-10 -20h-82q-21 20 -21 30q-3 5 -14.5 31.5t-22 47t-14.5 24.5q-10 21 -10 31q0 5 -15.5 61t-15.5 61q0 32 -20 52q0 -5 -5 -31t-5 -31v-143l-11 -31l-20 -20q0 -4 -5.5 -12t-10.5 -13l-5 -6l-10 -51l-20 -11q-5 0 -61.5 -5t-61.5 -5l-31 -10h-20q-4 0 -14.5 5t-18.5 10 l-8 5zM225 1012q0 -5 -5 -41t-5 -41v-21q0 -5 -5 -35.5t-5 -35.5t-5 -123t-5 -154v-61q0 -28 -5.5 -146t-5.5 -131q0 -5 -5 -61.5t-5 -61.5v-20h72l30 10l11 21v102q0 10 5 61.5t5 61.5l10 41q0 10 5 61.5t5 61.5v164l11 10h41l10 -10q5 -10 36 -82t36 -82q0 -5 15 -41 t15 -41q21 -41 21 -51q0 -7 11 -53.5t19 -69.5l11 -51l10 -21l10 -10l10 -41l11 -21q5 0 30.5 -5t30.5 -5h31l20 10q0 5 10.5 41t10.5 41t10 31t10 31q0 11 10.5 44.5t10.5 37.5q0 5 5 46t5 46q0 4 10 47.5t10 54.5q0 8 12 59t19 74q5 10 10.5 36t10.5 36q0 4 2.5 9t5.5 8 l2 3l20 11h11l20 -11q4 0 9.5 -5t8.5 -10l3 -5q0 -5 10 -36t10 -36l10 -30q0 -5 5.5 -61.5t5.5 -61.5q0 -9 11.5 -77.5t18.5 -96.5q11 -42 11 -52l-11 -20l11 -10l10 -31q0 -4 5 -14.5t10 -18.5l5 -8l21 -10h41q5 0 35.5 5t35.5 5q0 10 -5 71.5t-5 71.5q0 5 -10 31t-10 31 q0 10 -15.5 87t-15.5 87q0 5 -15.5 61.5t-15.5 61.5t-5 41t-5 41q0 24 -10.5 83t-10.5 60q0 16 -11.5 72.5t-18.5 70.5q-5 0 -20.5 5.5t-20.5 5.5h-164q-5 -10 -20.5 -72t-20.5 -72q0 -5 -5 -20.5t-5 -20.5l-10 -51q-11 -31 -11 -41q0 -5 -15 -56t-15 -56t-10.5 -41 t-10.5 -41t-10 -36t-10 -36l-11 -31v-20q0 -5 -5 -46t-5 -46l-10 -11h-31l-20 11v10l-21 41l-10 31q-10 31 -36 97.5t-36 96.5q0 5 -15 51t-15 51l-11 31q0 5 -15 41t-15 41l-11 41l-20 41l-10 51l-11 21l-10 10h-102zM1085 152q-7 0 -7 -10.5t7 -10.5t7 10.5t-7 10.5z M1239 254q-7 0 -7 -10.5t7 -10.5t7 10.5t-7 10.5z" />
<glyph unicode="N" horiz-adv-x="1089" d="M45 1059q0 4 7.5 12t19 17t14.5 12l41 20q5 0 30.5 20.5t30.5 20.5l21 10h172l10 -10q0 -4 5.5 -12t10.5 -13l5 -6q39 -68 102 -215q0 -5 20.5 -51t20.5 -51q31 -52 41 -72l20 -30q5 -5 20.5 -41t20.5 -41v41q-17 159 -41 256q0 5 -5 30.5t-5 30.5l-10 31v102l72 72 l30 20l11 11l20 10h111q5 0 41 -5t41 -5l10 -21l10 -31q0 -5 5 -56t5 -56l11 -41q0 -5 5 -41t5 -41t5 -36t5 -36v-41q0 -5 5 -41t5 -41l11 -51q0 -5 5 -46t5 -46q0 -10 5 -82t5 -82q0 -5 5 -30.5t5 -30.5t5 -46t5 -46l11 -52v-20q-21 -41 -31 -51l-10 -11q-16 -15 -41 -51 t-41 -51q-5 0 -46 -5t-46 -5h-49l-41 -10l-41 41l-11 20q0 5 -15 25.5t-15 25.5q-9 9 -25 32t-16 30q0 5 -20.5 25.5t-20.5 25.5q0 7 -16 29.5t-25 31.5q0 5 -15.5 25.5t-15.5 25.5l-10 21v-61q10 -31 10 -41q0 -5 10.5 -36t10.5 -36v-21q0 -5 -15.5 -30.5t-15.5 -30.5 l-10 -41q-21 -31 -21 -41l-10 -10h-193q0 -4 -7.5 -9.5t-14.5 -8.5l-8 -3h-11q-9 0 -30 21l-11 20q0 4 -10 37.5t-10 44.5v10q0 5 -5 46.5t-5 46.5q0 2 -5.5 63.5t-5.5 79.5q0 41 -20 143v11q0 18 -5 74.5t-5 58.5q0 10 -10.5 92t-10.5 92q0 5 -5 66.5t-5 66.5l-10 31 l-31 20v21zM299 772l10 -10q11 -11 49.5 -60t42.5 -53q53 -53 82 -112q5 -5 26 -41t26 -41l20 -21q5 -5 25.5 -46t25.5 -46l31 -41q5 -5 30.5 -46t30.5 -46l11 -10l30 -52q0 -4 5.5 -11.5t10.5 -13.5l5 -5q0 -4 5 -9.5t10 -8.5l5 -3l101 10v93q0 5 -5.5 46t-5.5 46v71 q0 2 -5 59t-5 75q0 5 -5 46t-5 46v30q0 10 -5 72t-5 72q0 5 -5.5 46t-5.5 46q0 10 -10 71.5t-10 71.5q0 5 -4 26t-4 26l-10 30h-21q-11 0 -54.5 -5t-47.5 -5v-31q10 -51 10 -71q0 -5 5 -31t5 -31l10 -41q0 -5 5.5 -30.5t5.5 -30.5t5 -56.5t5 -56.5t5 -30.5t5 -30.5t5 -61.5 t5 -61.5t5.5 -25.5t5.5 -25.5v-103l-21 -10h-20l-21 20l-10 21q-21 31 -31 41l-10 10l-31 41l-10 10q-5 5 -30.5 46.5t-30.5 46.5l-11 10l-20 30l-10 21l-11 10l-20 41q0 5 -20.5 36t-20.5 36l-21 41q0 5 -15 25.5t-15 25.5l-31 41q-9 9 -25 31.5t-16 29.5l-18 41l-11 11 l-10 20l-10 10h-51l-41 -10v-31l10 -51q0 -11 5 -39.5t5 -32.5v-61l10 -20v-11q0 -5 5.5 -35.5t5.5 -35.5q0 -10 5 -97.5t5 -97.5t10 -87t10 -87q0 -16 5.5 -97.5t5.5 -97.5l10 -30q41 -11 59 -11h82v21q0 5 -5 30.5t-5 30.5l-10 31q0 4 -10.5 42.5t-10.5 49.5 q0 10 -20.5 102.5t-20.5 102.5q0 5 -14 56.5t-14 56.5l-11 41l-10 51v31l21 20h18zM494 403q-8 0 -8 -10t8 -10t8 10t-8 10z" />
<glyph unicode="O" d="M66 674q0 5 5 20.5t5 20.5v51l10 10q0 5 10 41t10 41t10.5 31t10.5 31q5 5 20.5 40.5t20.5 40.5t20.5 31t20.5 31l90 92l31 10q5 0 35.5 20.5t35.5 20.5l21 11q5 0 30.5 10t30.5 10t26 5t26 5h102q72 -20 90 -30q4 0 17 -5.5t24 -10.5l10 -5l31 -31q20 -20 20 -30 q3 -5 17 -31.5t24.5 -47t10.5 -24.5q7 -7 18.5 -46.5t11.5 -55.5q0 -10 10.5 -66.5t10.5 -66.5v-185q-10 -41 -10 -51q0 -5 -10.5 -46t-10.5 -46q-4 -16 -16.5 -77.5t-25 -101.5t-30.5 -77q0 -4 -5 -14.5t-10 -18.5l-5 -8q0 -5 -25.5 -25.5t-25.5 -25.5l-10 -21 q-3 -3 -14.5 -17t-21.5 -24t-14 -10l-30 -10l-11 -10l-30 -21q-5 0 -41 -5t-41 -5l-41 -10h-51q-11 0 -50 5t-43 5q-51 10 -61 20q-4 0 -16.5 5t-22.5 11l-10 5l-10 10l-72 82l-21 21q0 4 -5 11.5t-10 12.5l-5 6q0 5 -10.5 25.5t-10.5 25.5q-20 73 -20 93q-4 14 -9 39.5 t-8 44.5l-3 18v246zM137 428q10 -41 10 -51l11 -41l10 -51q0 -5 10 -31t10 -31q0 -4 5 -14.5t11 -18.5l5 -8l110 -102q31 -10 41 -10h154q11 0 41 30l102 103q21 41 31 51l10 20l11 41q0 5 9 31t9 31t5 30.5t5 30.5v441q-10 51 -10 61l-8 41q0 4 -5.5 17t-10.5 24l-5 10 q0 10 -41 51l-41 31l-10 10q-5 0 -25.5 5.5t-25.5 5.5h-51l-21 -11h-61q-31 -10 -41 -20q-8 -8 -36.5 -24.5t-35.5 -16.5l-10 -10q-7 -13 -34 -48t-36 -44l-10 -21l-10 -10q0 -5 -10.5 -31t-10.5 -31q-4 -21 -17 -73.5t-23.5 -95t-10.5 -46.5v-225zM240 582q0 10 5 71.5 t5 71.5q0 5 5 25.5t5 25.5l10 31q0 5 9.5 36t9.5 36l10 20q0 5 20.5 31t20.5 31l10 20q31 31 41 31q62 20 82 20h10l31 -10q4 0 14.5 -5t18.5 -11l8 -5q21 -41 31 -51l10 -20l10 -41v-359q-10 -51 -10 -61q0 -5 -10.5 -36t-10.5 -36q-7 -15 -18.5 -49.5t-11.5 -42.5 q0 -4 -5.5 -14.5t-10.5 -18.5l-5 -8q-41 -31 -51 -41q-4 -4 -12 -9t-13 -8l-6 -3h-41q-5 0 -20.5 5t-20.5 5q-4 0 -14.5 5t-18.5 10l-8 5q-7 0 -18.5 16.5t-11.5 24.5l-10 41q0 5 -9.5 36t-9.5 36t-5 25.5t-5 25.5q0 11 -5 39.5t-5 32.5v72zM391 500q0 -4 5 -48t5 -55 q0 -5 5.5 -20.5t5.5 -20.5q0 -4 5 -14.5t10 -18.5l5 -8l21 -10q20 11 20 21q21 31 21 41q10 20 10 30l31 123v359q-11 41 -21 51l-10 10l-21 -10q-20 -31 -20 -41l-31 -72q0 -5 -10 -51t-10 -51t-5.5 -20.5t-5.5 -20.5l-10 -31v-143z" />
<glyph unicode="P" horiz-adv-x="874" d="M100 356q0 19 10.5 242.5t10.5 280.5q0 10 5 87t5 87v51l10 20l11 31l10 10q8 5 31.5 21.5t44 29t38.5 21.5q4 0 9.5 2.5t8.5 4.5l3 3h72q11 0 59.5 -5t52.5 -5q6 0 22 -5t21 -5l21 -10q5 0 41 -10.5t41 -10.5t30.5 -25.5t30.5 -25.5l41 -21q43 -41 53 -61l41 -51l11 -11 q20 -20 20 -30l10 -21l10 -30v-144q0 -5 -5 -35.5t-5 -35.5t-10 -31t-10 -31q-11 -21 -21 -31q0 -5 -15 -20.5t-15 -20.5q-3 -3 -25 -29t-29 -32l-10 -10q-8 -4 -29.5 -20t-40 -29t-22.5 -13q-5 0 -41 -20.5t-41 -20.5l-10 -10l-51 -10q-5 0 -13.5 -2.5t-14.5 -4.5l-5 -3 l-21 -205q-5 -5 -35.5 -46t-35.5 -46l-11 -31l-10 -21l-10 -10q-41 -10 -51 -10q-11 0 -50.5 -5t-43.5 -5h-62l-10 10q-10 52 -10 72q0 11 -5.5 59.5t-5.5 52.5v174zM172 193q0 -10 5 -61.5t5 -61.5h84l31 348q21 10 31 10q5 0 51 5t51 5t31.5 10.5t32.5 10.5q5 0 30.5 15 t30.5 15q10 0 41 31q3 3 14.5 12t19 17t7.5 12l10 21l41 102q0 2 5 58.5t5 74.5v82q0 10 -6.5 37.5t-13.5 34.5q0 5 -10.5 20.5t-10.5 20.5l-10 10l-10 20q-5 5 -41 20.5t-41 20.5q-41 21 -51 21l-33 10h-268v-92q0 -5 -5 -36t-5 -36q0 -11 -5.5 -54.5t-5.5 -47.5 q0 -27 -5 -142.5t-5 -134.5v-378zM297 541q0 15 -5 112t-5 113q0 5 -5.5 36t-5.5 36v51q21 71 31 102l10 31l11 10q5 0 20.5 5t20.5 5h30l62 -10q8 0 32 -12t31 -19q3 -3 17 -14.5t24 -22t10 -14.5q7 -7 14 -34t7 -37v-205q-21 -41 -31 -51l-61 -62q-43 -20 -53 -20 q-42 -11 -52 -11q-5 0 -30.5 -5t-30.5 -5h-10q-10 0 -31 21zM420 920v-256q5 0 20.5 5t20.5 5q4 0 15 5t20 10l8 5q8 8 19.5 31t11.5 31v51q0 5 -5.5 25.5t-5.5 25.5l-10 31q0 4 -5 14.5t-10 18.5l-5 8l-23 20q-5 0 -20.5 5.5t-20.5 5.5z" />
<glyph unicode="Q" horiz-adv-x="980" d="M520 39l-31 -10h-71l-21 10q-5 0 -30.5 5t-30.5 5q-8 0 -46.5 17t-45.5 24q-21 11 -21 21q-5 5 -25.5 31.5t-25.5 31.5l-31 31q-20 31 -20 41q0 7 -11.5 42t-19.5 50q0 5 -5 20.5t-5 20.5t-5 30.5t-5 30.5q0 11 -5.5 65t-5.5 58v176q0 24 5.5 98.5t5.5 75.5q0 7 11 53.5 t19 69.5l11 21q0 5 15 36.5t15 36.5l11 21q0 4 5 12t10 13l5 6q3 3 12 14.5t17 19t12 7.5l20 10l41 41l21 10l10 10q82 41 92 41q5 0 31 5.5t31 5.5h102q21 -11 31 -11l123 -61q41 -21 51 -31q4 0 12 -5t14 -10l5 -5l41 -41l20 -41l21 -21q0 -8 11.5 -37t18.5 -36l11 -41 q0 -5 10 -26t10 -26t5 -25.5t5 -25.5v-289q0 -5 -5 -30.5t-5 -30.5q0 -15 -11.5 -61.5t-19.5 -61.5q0 -5 -10 -30.5t-10 -30.5l-10 -21l-11 -51q0 -5 -20.5 -51t-20.5 -51v-11q0 -5 15.5 -36.5t15.5 -36.5v-31q0 -5 -10 -31t-10 -31l-11 -10q-31 -31 -41 -31 q-5 -5 -46 -30.5t-46 -30.5l-10 -10q-4 0 -14.5 -5t-18.5 -11l-8 -5h-31l-10 11q0 7 -11.5 25t-19.5 26l-20 41l-21 30zM121 553q0 -5 5 -41t5 -41v-31q11 -51 21 -71q0 -5 10 -31t10 -31q21 -31 21 -41q4 -4 11.5 -17t13.5 -23l5 -11l51 -51q21 -21 31 -21l21 -10 q4 -5 17 -10.5t23 -8.5l11 -3h184l10 -11q21 -20 21 -30q5 -5 20.5 -36t20.5 -36h10l31 20l20 11l21 20v21q-21 31 -21 41l-10 10q0 5 -5 16t-10 19l-5 8v20l10 31l10 10q21 62 31 82l10 31q4 11 15 52t21.5 77t14.5 45l10 41q0 11 5.5 45.5t5.5 38.5v256q0 5 -10.5 46 t-10.5 46t-10 31t-10 31t-15.5 36.5t-15.5 36.5l-10 10l-21 11q-5 5 -46 30.5t-46 30.5q-21 21 -51 21l-41 10h-102q-11 0 -44.5 -10.5t-37.5 -10.5t-20 -13t-35 -28.5t-27 -19.5q-21 -21 -21 -31q-41 -94 -51 -104q0 -5 -10 -31t-10 -31t-10.5 -25.5t-10.5 -25.5 q0 -15 -5 -92t-5 -92v-166zM213 627q10 62 10 82l31 153q0 5 15.5 46t15.5 46l10 21q4 9 19.5 29.5t28.5 36.5l13 16q42 20 52 30l20 11q21 12 31 12l41 10q20 -10 30 -10q4 0 14.5 -6t18.5 -12l8 -5l72 -71q0 -5 10.5 -31t10.5 -31q0 -2 5 -63.5t5 -79.5v-72 q0 -18 -5 -80.5t-5 -64.5q0 -7 -11.5 -53t-19.5 -70q0 -5 -10.5 -30.5t-10.5 -30.5q0 -4 -5 -14.5t-10 -18.5l-5 -8l-21 -11h-10l-20 11l-72 71q-8 0 -31 -11.5t-30 -18.5l-11 -11v-30l31 -41l10 -21v-61h-41q-5 0 -30.5 10t-30.5 10l-51 51q-21 21 -21 31q0 5 -10 20.5 t-10 20.5q-11 21 -11 31l-10 41q0 16 -5 85.5t-5 80.5zM479 584q31 -21 41 -21l10 -10l21 -31l10 -10l10 10q11 72 21 105q0 11 5 39t5 32v154q0 5 -5 41t-5 41t-10.5 30.5t-10.5 30.5l-20 21h-41l-21 -10l-20 -21q0 -5 -20.5 -36t-20.5 -36l-10 -10q-21 -51 -21 -61 l-10 -41q0 -5 -10 -25.5t-10 -25.5q0 -11 -10.5 -55t-10.5 -48v-74l10 -30h11l20 10l31 10l41 21h20z" />
<glyph unicode="R" horiz-adv-x="874" d="M524 1257q8 0 42.5 -11.5t49.5 -18.5q8 0 32.5 -12t31.5 -19q5 -5 20.5 -15.5t20.5 -15.5l41 -51l10 -10q4 -4 14.5 -27.5t21.5 -51t15 -34.5q0 -4 2.5 -11.5t5.5 -13.5l3 -5q0 -5 5 -36t5 -36l10 -41v-21q0 -5 -5 -30.5t-5 -30.5l-10 -41l-11 -51q-7 -7 -29 -45.5 t-32 -57.5l-41 -41v-30q20 -31 20 -41l11 -10l10 -31l20 -41l21 -51q0 -5 20.5 -46.5t20.5 -46.5l10 -30v-31q0 -4 -8 -27.5t-19 -54t-14 -41.5l-10 -20q-21 -21 -31 -21q-21 -10 -31 -10l-41 -10q-4 0 -48.5 -5.5t-55.5 -5.5h-31l-20 11l-10 10l-11 51l-10 41 q0 5 -25.5 56.5t-25.5 56.5t-10.5 30.5t-10.5 30.5l-10 10q0 5 -5 31t-5 31t-4.5 19t-5.5 18v-252q-5 -5 -26 -31t-26 -31v-20l-20 -31q-11 -10 -21 -10q-9 -3 -22 -7.5t-20.5 -7t-18.5 -4.5t-22 -2q-5 0 -46.5 -5t-46.5 -5h-30l-11 21v1116l11 20l10 11q16 10 41.5 30.5 t40.5 30.5l20 10l31 21l20 10l33 10h51l31 10h133zM164 653q0 -46 5 -307t5 -307h21q5 0 30.5 5t30.5 5l20 10v144q0 5 -5 61.5t-5 61.5v143q10 0 62.5 10t62.5 10h41l21 -10l10 -20q0 -5 15.5 -61.5t15.5 -61.5q4 -8 19.5 -62.5t21.5 -60.5q0 -5 25.5 -51t25.5 -51l10 -41 l10 -21q11 0 56 5t49 5l20 11l-61 184q0 5 -16.5 30.5t-16.5 30.5t-15.5 46.5t-15.5 46.5l-10 10l-10 20q0 5 -20.5 31t-20.5 31v30l10 11q5 5 46 30.5t46 30.5l10 10q4 7 18.5 26.5t25 35.5t10.5 20q0 5 5 20.5t5 20.5v144q0 10 -7 37t-14 34q-20 41 -30 51q0 4 -8 14.5 t-16 18.5l-9 8q-3 3 -14.5 17t-22 24.5t-14.5 10.5q-5 0 -20.5 10t-20.5 10t-36 5t-36 5h-133q-11 0 -51 -6.5t-53 -13.5l-31 -10l-31 -31v-62q0 -15 -5 -138t-5 -138v-72zM246 684q0 29 5 124t5 101q0 5 5 46t5 46l10 11q5 0 32 5t32 5h51l41 -10l51 -11l31 -10 q8 0 24.5 -11.5t16.5 -18.5q7 0 19 -16.5t12 -24.5l10 -31v-144q-10 -30 -10 -40l-11 -21l-10 -10q0 -5 -20.5 -31t-20.5 -31l-10 -10q-5 0 -20.5 -10t-20.5 -10q-31 -11 -41 -11q-5 0 -36 -5t-36 -5h-41l-43 10l-20 21q-10 41 -10 51v41zM391 930q0 -16 -10 -87t-10 -87 l-11 -51v-11h21q11 0 22 2t18.5 4.5t20.5 7.5t21 7l20 10q4 0 12 7.5t13 15.5l6 8l10 20q0 5 5.5 31t5.5 31v20q-21 31 -21 41l-10 10q-4 4 -17 12t-23 13l-11 6h-41z" />
<glyph unicode="S" horiz-adv-x="917" d="M119 172l-51 197v20q0 4 5 14.5t10 18.5l5 8l51 51l21 11l41 10h51l51 -10l31 -31l31 -21q0 -11 10 -54.5t10 -47.5t7.5 -19.5t19.5 -37.5t14 -27l10 -10h10l21 10l41 43v61q-10 21 -10 31l-11 21v10l-10 10l-31 41l-10 10q-7 7 -55 34.5t-68 37.5q-5 0 -20.5 10 t-20.5 10l-30 11l-31 30l-41 21q-10 0 -41 31q-3 3 -14.5 12t-19 17t-7.5 12l-10 20q-4 4 -9.5 17t-8.5 24l-3 10v113q11 51 21 74l10 30l10 21l11 31l10 20q0 4 5 12t10 13l5 6l41 51l21 10l10 10q21 21 31 21q4 4 17 12t23 14l11 5l51 20l21 10q14 7 43 14t38 7h216 q5 0 20 -5t20 -5q8 0 31 -12t31 -19q4 0 12 -5.5t14 -10.5l5 -5l41 -41q10 -20 10 -30q7 -22 19 -90t12 -84v-74l-11 -31l-20 -20l-21 -41l-20 -11l-10 -20q-31 -10 -41 -10q-5 0 -66.5 -5t-66.5 -5t-31 -5.5t-31 -5.5q14 -7 54.5 -35t48.5 -36q1 -1 21.5 -19.5t38 -36 t21.5 -26.5l21 -31l31 -31q20 -20 20 -30q5 -10 15.5 -36t15.5 -36l10 -51v-105q0 -5 -5 -30.5t-5 -30.5t-10.5 -31t-10.5 -31q-10 -20 -20 -30l-31 -41q-10 -11 -20 -11l-31 -10q-7 0 -25 -11.5t-26 -19.5l-10 -10q-4 0 -12 -5t-14 -10l-5 -5q-21 -11 -31 -11 q-5 0 -30.5 -5t-30.5 -5q-42 -10 -52 -10h-71q-21 10 -31 10l-20 10l-52 11l-41 10l-10 10l-51 41l-41 41l-31 51zM692 162q-4 0 -4 -2l14 22q11 21 11 31l10 51l10 33l-10 20q0 5 -5 36t-5 36q-11 41 -21 51l-10 21q-10 10 -61.5 66.5t-61.5 66.5q-5 0 -30.5 20.5 t-30.5 20.5l-21 20l-20 11l-31 10l-10 10l-31 10l-92 92q-10 21 -10 31q0 5 -5.5 25.5t-5.5 25.5v11q0 5 5.5 36t5.5 37l10 41q0 4 7.5 12t19 17t14.5 12q5 0 30.5 15.5t30.5 15.5h21q5 0 30.5 -5t30.5 -5l41 -10q5 0 20.5 -10.5t20.5 -10.5l21 -20q8 -8 19 -26.5t11 -25.5 q11 -43 11 -53q0 -5 5 -41t5 -41h10q5 0 46 5t46 5v52q0 5 -5 30.5t-5 30.5q0 6 -5 42.5t-5 41.5t-10.5 30.5t-10.5 30.5l-30 31l-21 10q-5 0 -46 15.5t-46 15.5l-41 10h-51q-5 0 -36 -10t-36 -10t-30.5 -5t-30.5 -5q-8 0 -31 -11.5t-31 -19.5l-10 -10l-21 -11l-41 -40 q-7 -7 -18.5 -30.5t-11.5 -31.5q0 -5 -10.5 -42t-10.5 -42l-10 -10v-10l10 -113q0 -4 2.5 -12t5.5 -14l3 -5q0 -7 11 -18.5t19 -11.5q5 0 41 -20.5t41 -20.5l21 -21q5 -5 61.5 -30.5t61.5 -30.5l30 -21l51 -31l21 -20q10 -10 30.5 -37.5t20.5 -34.5q10 -20 10 -30l11 -41 v-84l-11 -11l-10 -30q0 -7 -11.5 -25t-19.5 -26l-10 -11q-4 -4 -12 -9t-14 -8l-5 -3h-133l-20 10l-41 41q0 7 -11.5 30t-19.5 31q0 5 -10 32t-10 32q0 4 -3 9t-5 8l-3 3l-71 -10v-31q0 -5 5 -26.5t5 -26.5q0 -7 16 -45.5t25 -56.5l20 -31l52 -51l30 -21q60 -30 72 -30h72 q5 0 30.5 5t30.5 5q4 0 17 5t23 10l11 5l31 11l10 10l41 31l21 20l10 21l2 4q-2 -5 1 -10t7 -5q8 0 8 10.5t-8 10.5zM426 870l10 -41q11 -20 21 -20q5 0 20.5 -15.5t20.5 -15.5l20 -10l10 10q0 4 3 12t5 14l3 5v123q0 8 -12 20.5t-19 12.5l-21 10h-30q-21 -11 -21 -21 l-10 -22v-62zM549 758q-7 0 -7 -10.5t7 -10.5t7 10.5t-7 10.5zM528 768q-8 0 -8 -10t8 -10t8 10t-8 10zM477 625l10 -11l-10 -10v21zM688 160l-4 -4z" />
<glyph unicode="T" horiz-adv-x="927" d="M369 8q0 39 -12 165t-19 165q0 10 -15.5 128t-15.5 128q0 16 -10 113t-10 112l-11 10h-20l-31 11q-10 0 -76.5 5t-76.5 5l-11 10l-10 31v145q10 31 10 41q0 5 10.5 20.5t10.5 20.5l10 10l41 31l10 10l31 11q5 0 31 15t31 15q30 11 40 11q5 0 41 5t41 5t31 5t31 5 q10 0 76.5 5t76.5 5h164q5 0 51.5 -10t51.5 -10h61l10 -10l11 -21q0 -4 5 -58t5 -65v-71q-11 -21 -21 -31l-10 -10l-41 -31l-20 -12q-5 0 -31 -5.5t-31 -5.5q-41 -10 -51 -10h-41l-20 -20v-21q0 -5 5 -71.5t5 -71.5v-62q0 -11 5 -65t5 -58l10 -30q0 -5 5.5 -31t5.5 -31 t5 -61.5t5 -61.5t5 -26.5t5 -26.5v-102q-31 -21 -31 -31l-10 -20q-5 -5 -30.5 -26t-30.5 -26q0 -5 -10.5 -20.5t-10.5 -20.5q-5 0 -36 -5t-36 -5t-46 -15.5t-46 -15.5h-51l-10 11zM399 788v-389q0 -3 5.5 -52t5.5 -62q0 -25 11.5 -109t18.5 -106h11l10 10h61l21 10v143 q0 28 -5.5 137t-5.5 122q0 16 -15 174t-15 174v82l10 12q21 10 31 10q5 0 20.5 5t20.5 5l51 11l41 10q5 0 30.5 5t30.5 5l31 10v31q0 5 -5 25.5t-5 25.5h-185q-25 0 -183.5 -10t-184.5 -10q-5 0 -25.5 -10.5t-25.5 -10.5l-11 -10v-61l11 -21q5 0 41 -5t41 -5h20q5 0 30.5 -6 t30.5 -6l41 -11l11 -10q10 -21 10 -31v-20l10 -21q0 -5 5 -20.5t5 -20.5z" />
<glyph unicode="U" horiz-adv-x="1130" d="M158 289q0 16 -5.5 117.5t-5.5 117.5v123q0 2 -5 58.5t-5 74.5q0 5 -5 46t-5 46t-5 31t-5 31q-11 41 -11 51v82q0 20 21 41l20 10l41 31q5 0 20.5 10t20.5 10q4 4 19.5 9.5t29.5 8.5l13 3h143l21 -10q4 0 9 -5t8 -11l3 -5q10 -41 10 -51q0 -11 5.5 -44.5t5.5 -37.5v-61 q0 -10 10 -87t10 -87q0 -15 5 -118t5 -118l11 -10q0 -5 5 -46t5 -46t5 -36t5 -36t5 -25.5t5 -25.5q0 -4 2.5 -12t5.5 -14l3 -5h20l10 10l31 41q10 31 10 41q0 11 5 49.5t5 42.5v267q0 9 -5 77.5t-5 85.5q0 5 -5 31t-5 31q0 4 -5 52.5t-5 59.5v21q20 31 30 41l11 10l20 10 l41 31l62 31h153q21 -10 31 -10l20 -11l11 -10q20 -51 20 -61q4 -9 9.5 -27t8.5 -32l3 -13q0 -5 5 -41t5 -41v-328q0 -4 -5 -52.5t-5 -59.5q0 -4 -10.5 -53t-10.5 -60l-10 -41l-10 -51q-11 -41 -21 -51l-10 -21l-21 -20q-5 -5 -30.5 -36t-30.5 -36l-21 -20l-30 -41l-21 -11 l-41 -41l-30 -20l-31 -10q-41 -21 -51 -21q-5 0 -31 -5t-31 -5h-184q-5 0 -31 10.5t-31 10.5q-8 0 -31 11.5t-30 18.5q-41 20 -51 41l-31 41q-7 7 -24 41t-17 41q0 5 -10 36t-10 36zM291 145l20 -10l21 -20q4 0 11.5 -5.5t12.5 -10.5l6 -5q5 0 31 -10t31 -10t30.5 -5.5 t30.5 -5.5h123l31 11h10l21 10q5 0 25.5 25.5t25.5 25.5l51 31l41 41l21 10q20 21 20 31q9 14 14 29t9.5 34t7.5 29l10 51q0 11 5 55t5 48v286q-10 72 -10 103q0 11 -5 44.5t-5 37.5q-11 41 -11 51l-10 41l-10 10l-20 10l-134 -20v-51q0 -10 10.5 -72t10.5 -72v-481 q0 -9 -7 -38.5t-14 -43.5l-10 -10q-4 -4 -15 -20t-21.5 -29t-14.5 -13q-7 -7 -30 -18.5t-31 -11.5h-82q-21 10 -31 10q-5 5 -15.5 10t-15.5 10l-20 31h-11q-22 55 -41 154v30q0 17 -5 101.5t-5 93.5q0 5 -5 66.5t-5 66.5v277l-10 10h-31l-41 -10h-31l-41 -11l-10 -20v-31 l10 -51l11 -62q0 -4 5 -47.5t5 -54.5q0 -18 5 -74.5t5 -58.5v-225q0 -10 5 -66.5t5 -66.5q11 -21 11 -31q3 -5 14.5 -31.5t22 -47t14.5 -24.5z" />
<glyph unicode="V" horiz-adv-x="980" d="M106 676l11 31h-11l-10 10l-10 31v51l-10 10l-10 20q0 5 -5.5 20.5t-5.5 20.5v31q-10 19 -10 29l-20 41v20l-21 41v31q0 4 5 12t11 13l5 6q5 5 40.5 30.5t40.5 30.5l82 41h154q31 -10 41 -20l10 -11q0 -10 5 -71.5t5 -71.5l11 -51q0 -5 5 -35.5t5 -34.5q0 -5 15.5 -41 t15.5 -41t10 -56t10 -56l10 -52l11 -10q0 5 5 41t5 41t10 36t10 36q4 9 9.5 29.5t8.5 36.5l3 16q0 5 5 45t5 45l10 30q0 5 5.5 31t5.5 31l10 31q0 4 5 14.5t10 18.5l5 8l21 10l30 20q5 0 26 10.5t26 10.5t20.5 5t20.5 5h30q52 -10 62 -10l51 -10q11 0 39.5 -10.5t32.5 -10.5 l10 -10v-51q0 -15 -11.5 -72.5t-19.5 -81.5q0 -5 -10 -29.5t-10 -29.5l-21 -41l-10 -52q0 -5 -15.5 -46t-15.5 -46l-10 -51q0 -11 -10 -44.5t-10 -37.5q0 -5 -10.5 -30.5t-10.5 -30.5l-10 -21q-10 -20 -10 -30l-11 -41l-10 -21q-20 -40 -20 -72l-11 -49q-5 -10 -15 -35.5 t-15 -35.5q-5 -5 -20.5 -31t-20.5 -31l-31 -31l-21 -30q-30 -21 -40 -21q-5 0 -31 -5t-31 -5q-41 -10 -51 -10q-4 0 -48 -5t-55 -5h-30q-8 8 -24.5 41t-16.5 40q-5 5 -25.5 77t-25.5 77l-11 21l-10 30l-10 19v10l-10 31l-11 10l-10 51l-10 21l-10 30q-21 41 -21 51 q0 5 -5 31t-5 31t-10.5 36t-10.5 36v10zM373 104q5 0 41 -5t41 -5l20 10h21l51 11q10 41 20 61l62 213q0 5 10 51.5t10 51.5q5 10 38.5 120t43.5 136q0 4 5.5 17t10.5 23l5 11l10 30l10 41q0 5 20.5 55.5t20.5 55.5t5 20.5t5 20.5q-5 0 -35.5 5t-35.5 5h-103q0 -5 -5 -20.5 t-5 -20.5l-10 -51q0 -5 -5.5 -40t-5.5 -40q-10 -41 -10 -51l-10 -41l-31 -133q0 -5 -5 -41t-5 -41t-10 -30.5t-10 -30.5l-11 -41l-10 -31q0 -5 -5 -41t-5 -41v-39q-11 -20 -21 -20l-20 -11q-21 11 -21 21q-7 7 -18.5 34t-11.5 35q-11 73 -21 93l-10 51l-10 20q0 5 -10.5 41 t-10.5 41l-10 31l-10 20q0 5 -5 20.5t-5 20.5t-5.5 41t-5.5 41l-10 72q0 5 -10 40t-10 40q0 10 -5.5 61.5t-5.5 61.5l-10 10h-164l-20 -10v-11q0 -5 10 -30.5t10 -30.5t10.5 -40.5t10.5 -39.5q0 -5 10 -30.5t10 -30.5l10 -52q0 -5 10.5 -40.5t10.5 -40.5l10 -31 q0 -5 10.5 -41t10.5 -41l10 -31q0 -5 10 -35.5t10 -35.5l62 -183q0 -5 15.5 -41t15.5 -41l10 -30l10 -21l10 -31q0 -5 10.5 -20.5t10.5 -20.5z" />
<glyph unicode="W" horiz-adv-x="1622" d="M45 1098l10 10l41 20q5 0 25.5 15.5t25.5 15.5q4 0 9.5 2.5t8.5 4.5l3 3h174l20 -10l11 -10q0 -5 15 -31t15 -31l11 -30q0 -5 15 -31t15 -31t10.5 -35.5t10.5 -35.5q0 -6 10 -32.5t10 -31.5t5.5 -30.5t5.5 -30.5q0 -4 10 -42.5t10 -49.5q0 -20 21 -62l10 10q21 62 31 82 l10 31l10 41q0 5 15.5 46t15.5 46l10 43q0 5 15.5 46t15.5 46t5 31t5 31l10 41l21 20q9 9 20 16t30.5 16t20.5 9q4 4 16.5 9.5t22.5 8.5l10 3h93l51 -11l31 -61q10 -31 10 -41q0 -5 5 -30.5t5 -30.5q0 -11 10.5 -55t10.5 -48q0 -5 10 -42t10 -42t5 -36t5 -36l10 -30 q0 -5 10.5 -72t10.5 -72l10 -30l10 20q0 5 10.5 31t10.5 31l10 51l10 31q7 14 19 63.5t12 58.5q0 5 5 32t5 32t15.5 41t15.5 41l10 31l11 51q10 20 20 20q21 21 31 21q4 0 14.5 5t18.5 10l8 5q5 0 30.5 10.5t30.5 10.5h31q5 0 51 -10.5t51 -10.5h41l21 -10l10 -21l-10 -30 q0 -5 -5.5 -46t-5.5 -46q-10 -42 -10 -52l-10 -43q0 -5 -5 -41t-5 -41q-11 -51 -21 -61q0 -5 -10 -25.5t-10 -25.5l-10 -51q-5 -10 -20.5 -82t-20.5 -82l-11 -10q0 -5 -5 -31t-5 -31q-10 -21 -10 -31l-10 -20l-11 -10v-52l-10 -22l-20 -51q0 -4 -2.5 -9.5t-5.5 -8.5l-3 -3 l-71 -71v-41l-72 -72l-20 -10h-82q-5 0 -26 -5.5t-26 -5.5q-2 0 -53 -5t-69 -5h-11l-20 10q-21 21 -21 31l-30 82q0 5 -10.5 51t-10.5 51l-10 31q0 4 -10 38t-11 42q-1 -3 -3 -11.5t-3.5 -16t-1.5 -11.5q0 -5 -10 -30.5t-10 -30.5t-5 -25.5t-5 -25.5v-21q-21 -21 -21 -31 l-20 -20q-5 -5 -36 -31t-36 -31q-21 -20 -31 -20q-4 -4 -14.5 -9.5t-18.5 -8.5l-8 -3h-164l-20 -10h-31l-20 10l-21 21v20q0 5 -5 26t-5 26t-20.5 61t-20.5 61t-15.5 52.5t-15.5 52.5l-20 61q0 5 -25.5 61.5t-25.5 61.5l-11 31l-10 20l-10 31l-21 21q-10 31 -10 41 q-5 16 -35.5 160t-35.5 159q0 5 -10.5 31t-10.5 31v51zM883 625v-123q0 -5 5 -31t5 -31l10 -30q0 -5 5 -31t5 -31l11 -53q0 -5 5 -31t5 -31q0 -4 10 -32t10 -39q0 -5 10.5 -31t10.5 -31q0 -4 2.5 -9t4.5 -8l3 -3h10q41 0 123 20q5 0 31 5.5t31 5.5l10 10l10 31 q0 5 15.5 40.5t15.5 40.5t10 31t10 31q4 10 35.5 98t36.5 99l10 30l21 41l10 41l10 21q0 5 10.5 25.5t10.5 25.5l61 184v10q0 5 5 32t5 32v82l-10 10h-133l-10 -10q-41 -115 -51 -156q0 -5 -5.5 -30.5t-5.5 -30.5t-10 -36t-10 -36t-15.5 -66.5t-15.5 -66.5l-10 -41 q0 -5 -10.5 -25.5t-10.5 -25.5t-5 -41t-5 -41l-10 -41v-51l-10 -23v-31l-11 -10q0 -5 -5 -30.5t-5 -30.5l-10 -21l-10 -10h-21l-20 21l-10 20l-11 51l-10 31q0 13 -10 57t-10 47q0 5 -5.5 41t-5.5 41q-20 92 -30 133l-11 41q0 5 -5 36t-5 36t-5 25.5t-5 25.5l-10 31 q-21 65 -21 102v23l-10 31q0 5 -5 30.5t-5 30.5l-11 41l-10 10h-49q-5 0 -30.5 -5t-30.5 -5q0 -5 -15.5 -46t-15.5 -46l-10 -21q-11 -31 -11 -43l-10 -51q0 -5 -15.5 -46t-15.5 -46l-10 -51q0 -5 -10 -31t-10 -31l-11 -20q0 -5 -15 -41t-15 -41t-20.5 -51t-20.5 -51 q-10 -31 -10 -41q0 -5 -5.5 -31t-5.5 -31l-10 -20l-10 -11l-31 -22l-10 10l-21 33v31q0 5 -15 46t-15 46t-5.5 20.5t-5.5 20.5t-5 35.5t-5 35.5t-10 46.5t-10 46.5t-10.5 56t-10.5 56t-10 36t-10 36t-10.5 42t-10.5 42q-20 52 -30 72q0 4 -2.5 9t-5.5 8l-3 3h-10 q-5 0 -36 -10t-36 -10h-51v-21q0 -8 12 -49t19 -55l10 -21q10 -31 10 -41l11 -51q20 -52 30 -72l11 -20l10 -31q0 -5 10 -25.5t10 -25.5l11 -21q0 -5 10 -40.5t10 -40.5l10 -21q0 -5 10.5 -36t10.5 -36q0 -4 5 -17t10 -24l5 -10l10 -31l11 -22q0 -5 15 -61.5t15 -61.5 t10.5 -30.5t10.5 -30.5l10 -11h133l11 11l10 20l10 31l10 20q0 4 5 17t11 23l5 11q0 9 41 136l10 41q0 5 10 30.5t10 30.5l11 41q0 5 10 30.5t10 30.5q10 42 10 52v10q0 5 20.5 46t20.5 46l11 51l10 10h20l8 -10q11 -20 11 -30v-11l20 -30q0 -5 5 -36t5 -36z" />
<glyph unicode="X" horiz-adv-x="1024" d="M121 84q10 21 10 31l21 51l10 31l10 20l21 21l71 141q5 5 31 56.5t31 56.5q0 5 15 30.5t15 30.5q-4 4 -14.5 24.5t-22 46.5t-14.5 31l-82 174q-3 7 -14.5 26.5t-19 34.5t-7.5 19q-20 21 -20 31q0 4 -8 14.5t-16 18.5l-7 8l-10 10l-21 31q-4 4 -9 14.5t-8 18.5l-3 8v41 l10 20q21 31 31 41l10 11q9 9 32 25t30 16h10l30 -11q10 0 56.5 -5t56.5 -5q4 -4 14.5 -24.5t22 -46.5t14.5 -31l11 -31q5 -5 20.5 -41t20.5 -41q0 -5 15 -25.5t15 -25.5l10 -29q0 -10 31 -41q5 5 25.5 45t25.5 45l11 41q20 41 30 51l21 31l10 21l10 41l11 10l41 31 q4 4 17 11.5t24 12.5l10 6h82q15 0 61.5 -11.5t61.5 -18.5l20 -21v-10q0 -4 -5 -17t-10 -24l-5 -10l-11 -31q0 -5 -25.5 -51t-25.5 -51t-15.5 -45.5t-15.5 -45.5q0 -8 -17 -41t-24 -41l-10 -10l-20 -41q0 -5 -20.5 -35.5t-20.5 -35.5q0 -4 -5 -14.5t-11 -18.5l-5 -8v-11 l10 -41l21 -41l10 -30l21 -21q20 -31 20 -41l10 -30l11 -21l30 -41l21 -31l20 -49l11 -20q0 -5 20.5 -36t20.5 -36v-10q-21 -41 -21 -51l-10 -21l-10 -31l-11 -10q-4 0 -11.5 -5t-13.5 -10l-5 -5q-5 0 -20.5 -5t-20.5 -5h-72l-51 -11h-10l-21 11q-10 10 -10 20 q-5 5 -31 66.5t-31 66.5q0 4 -2.5 9.5t-5.5 8.5l-2 3l-20 20q0 5 -20.5 31t-20.5 31l-21 18l-10 -8q-4 -4 -14.5 -24.5t-22 -47t-14.5 -31.5l-21 -51q-41 -52 -51 -72l-10 -10l-41 -10q-5 0 -31 -10t-31 -10t-30.5 -5.5t-30.5 -5.5h-61l-21 11l-10 10v51zM428 553 q-10 -41 -20 -61l-11 -21l-10 -10q-5 -5 -25.5 -56.5t-25.5 -56.5l-21 -20q0 -5 -15 -30t-15 -30t-20.5 -35.5t-20.5 -35.5q0 -4 -5 -14.5t-11 -18.5l-5 -8l-10 -31q0 -5 -10 -20.5t-10 -20.5h20q5 0 20.5 5t20.5 5l20 10l31 52l21 30l10 21q0 5 10 30.5t10 30.5t10.5 19.5 t10.5 19.5l10 10q5 5 25.5 56.5t25.5 56.5l31 31h10q5 0 20.5 -10.5t20.5 -10.5l62 -123q5 -5 41 -60t41 -60q4 -4 14.5 -24.5t22 -47t14.5 -31.5q5 0 30.5 -5t30.5 -5t31 5t31 5v10q0 5 -20.5 36t-20.5 36l-11 21q-20 20 -20 30l-31 41q-5 5 -30.5 60.5t-30.5 60.5 q-8 12 -27 46.5t-35 63.5t-20 33l-31 31v62l21 20l20 31q5 5 36 71.5t36 71.5l61 111l21 31q3 6 14.5 26t19 35.5t7.5 19.5v21q-5 0 -26 5t-26 5h-10l-30 -10q-21 -21 -21 -31l-10 -20l-21 -31q0 -4 -5 -14.5t-10 -18.5l-5 -8l-10 -39l-11 -10q-31 -52 -41 -72q0 -4 -2.5 -9 t-4.5 -8l-3 -3v-31l-31 -31l-10 -20l-31 -21h-40l-31 31l-21 41q0 5 -20.5 36t-20.5 36l-61 121l-21 51q0 5 -15 30.5t-15 30.5h-62l-30 -10q5 -5 20.5 -25.5t20.5 -25.5q9 -9 24.5 -32t15.5 -30l113 -223l10 -31q0 -5 15.5 -25.5t15.5 -25.5t10.5 -20.5t10.5 -20.5l10 -31z " />
<glyph unicode="Y" horiz-adv-x="917" d="M377 481q-9 9 -25 32t-16 30q0 5 -15.5 41t-15.5 41q-5 5 -31.5 61.5t-31.5 61.5t-31 66.5t-31 66.5l-10 20q0 4 -10.5 19.5t-23.5 34t-17 26.5l-21 31l-20 41l-21 20v41q21 31 31 41l10 10l52 41l20 11h115q5 0 25.5 -5.5t25.5 -5.5l10 -10q21 -21 21 -31l10 -20 q5 -5 36 -77t36 -77q0 -4 2.5 -9t4.5 -8l3 -3l10 -10l10 -21l31 -29q0 4 10 29.5t10 30.5q0 4 5 17t11 24l5 10l10 31l10 51l11 20l10 11h10q5 5 31 20.5t31 20.5l32 30h31q5 0 36 -5t36 -5t35.5 -10t35.5 -10l21 -11l10 -10v-20l-20 -31q0 -5 -10.5 -36t-10.5 -36l-20 -41 q0 -5 -15.5 -35.5t-15.5 -35.5q0 -4 -25.5 -50t-25.5 -51t-5 -41t-5 -41q-11 -51 -21 -61q0 -5 -10 -25.5t-10 -25.5l-23 -41q0 -4 -5 -48t-5 -55v-164q0 -9 -5 -80t-5 -81l-11 -21q0 -4 -5 -12t-10 -13l-5 -6l-62 -61l-10 -20q-5 0 -30.5 -5.5t-30.5 -5.5h-82l-41 11v458z M428 125l10 -51h41l21 10l10 20l10 11q0 5 5 20.5t5 20.5q0 9 5.5 87t5.5 95v184q10 52 10 62q0 11 10 49.5t10 42.5l21 41l10 51q0 5 10.5 25.5t10.5 25.5q5 5 36 76t37 76q0 5 10.5 25.5t10.5 25.5v10l-21 10q-6 0 -22 5.5t-21 5.5h-20q-10 -11 -10 -21l-11 -41 q0 -5 -15 -35.5t-15 -35.5q0 -4 -15.5 -45t-15.5 -46t-10.5 -25.5t-10.5 -25.5t-10 -30.5t-10 -30.5t-10.5 -41t-10.5 -41l-30 -21h-10l-41 41q-5 10 -36 82t-36 82q0 20 -31 82l-10 29l-10 20q0 5 -11.5 36t-11.5 36q0 4 -5 14.5t-10 18.5l-5 8h-92v-21q5 -5 30.5 -46 t30.5 -46l10 -20q0 -5 20.5 -35t20.5 -35l12 -20q0 -5 15.5 -46t15.5 -46t15.5 -26t15.5 -26q8 -8 19.5 -31t11.5 -30q0 -5 10 -36t10 -36q21 -21 21 -31l20 -20v-387z" />
<glyph unicode="Z" horiz-adv-x="831" d="M57 176q0 5 5.5 25.5t5.5 25.5t10 26t10 26l21 30l20 41q0 5 20.5 31t20.5 31q8 8 19.5 26t11.5 25q0 5 15 30.5t15 30.5q5 5 20.5 36t20.5 36l21 31q5 5 25.5 46t25.5 46q0 5 15.5 30.5t15.5 30.5l20 31l11 31l10 20l20 31v10h-276q-31 11 -41 21l-10 10v51l10 164 l143 72h318q10 0 81.5 -10.5t81.5 -10.5h21l10 -10l10 -21q4 -4 9.5 -19.5t8.5 -28.5l3 -13v-92q0 -5 -5 -31t-5 -31l-11 -20l-20 -31l-31 -51l-10 -10l-10 -21l-21 -20l-10 -21l-10 -10l-10 -20q-5 -5 -26 -41t-26 -41l-10 -11l-10 -20l-21 -31l-20 -41l-21 -30 q-5 -5 -25.5 -46.5t-25.5 -46.5t-25.5 -41t-25.5 -41v-20l10 -10h226q5 0 30.5 5t30.5 5h10l41 -10l10 -11v-163q-20 -31 -30 -41q-6 -6 -24 -26t-31 -33t-17 -13q-31 -10 -41 -10h-184q-4 0 -48 -5t-55 -5q-5 0 -30.5 -5.5t-30.5 -5.5h-205l-20 11q-11 30 -11 40v113z M252 442l-72 -143q0 -5 -20.5 -36t-20.5 -36q-10 -62 -10 -82v-61h174q5 0 31 5t31 5q21 0 123 5t122 5q0 5 5.5 26t5.5 26v41h-52q-5 0 -56 -5.5t-56 -5.5h-41q-5 0 -51.5 -5t-51.5 -5h-20l-21 21v41q0 5 15.5 30.5t15.5 30.5t15.5 36t15.5 36q5 5 30.5 51t30.5 51l11 31 l20 31q8 8 19.5 26t11.5 25q5 10 15 35.5t15 35.5l31 41q4 4 14.5 19.5t18.5 28.5l8 14l82 164q0 5 15.5 25.5t15.5 25.5v102q-26 0 -164 5t-164 5h-41q-11 0 -60 -5t-53 -5t-9 -2.5t-8 -4.5l-3 -3v-92q10 -10 20 -10h21q31 0 92 5t92 5h21q10 0 56 -5t56 -5l11 -21v-31 l-21 -20l-20 -31l-31 -41l-21 -51q-5 -5 -40.5 -66.5t-40.5 -66.5t-31 -61.5t-31 -61.5q0 -7 -16 -29.5t-25 -31.5z" />
<glyph unicode="[" horiz-adv-x="581" d="M88 -258q0 11 -5 54.5t-5 47.5l-10 41v11l-11 256q0 10 -10 87t-10 87q0 4 -5 52.5t-5 59.5v11q0 10 -5.5 81.5t-5.5 81.5v389q0 15 5.5 108t5.5 108q0 7 11 25t19 26q0 4 7.5 12t19 17t14.5 12l21 10q5 0 25.5 5t25.5 5q16 0 116 5t122 5h155l21 -10l10 -20 q0 -2 5 -53.5t5 -69.5v-31l-51 -51q-5 -5 -26.5 -36t-26.5 -36l-21 -20q-31 -11 -41 -11q-5 0 -35.5 -5t-35.5 -5l-11 -10q0 -31 -5 -215t-5 -215v-297q0 -10 5 -66.5t5 -66.5l21 -10q5 0 41 -5.5t41 -5.5q15 0 88 -5t88 -5l20 -10l21 -21v-20q0 -5 -5 -36t-5 -36v-123 q0 -5 -10.5 -20.5t-10.5 -20.5l-51 -51h-309q-72 -10 -105 -20l-41 -11h-30zM88 561q0 -9 5 -88t5 -96q0 -4 5.5 -32.5t5.5 -39.5q10 -41 10 -51q0 -11 5 -54.5t5 -47.5q0 -10 5 -123t5 -123q0 -5 5.5 -36t5.5 -36l10 -31h33q5 0 30.5 5.5t30.5 5.5q11 0 44.5 5t37.5 5h72 q10 0 56 5t58 5v123q-63 10 -94 10h-195q-20 20 -20 31v184q0 5 5 46t5 46v62q0 16 -10 138t-10 138v430l10 11q71 10 102 10h41q31 10 41 10q4 0 9.5 2.5t8.5 4.5l3 3v93h-154q-5 0 -30.5 -5.5t-30.5 -5.5t-37 -5t-37 -5l-20 -10l-11 -10q0 -10 -5 -56.5t-5 -56.5v-461z " />
<glyph unicode="\" horiz-adv-x="667" d="M-6 1116l10 31l51 20l31 21l61 31h134q10 -11 10 -21v-20q0 -4 8 -28t18 -53t13 -42q0 -5 10 -25.5t10 -25.5q4 -9 12 -32.5t14 -43.5l5 -19v-61q10 -21 10 -31q31 -62 31 -82l20 -41q0 -5 15.5 -46t15.5 -46l10 -20q11 -21 11 -31q5 -10 10 -31t10 -31l21 -20l10 -41 l20 -41q0 -5 10.5 -36.5t10.5 -37.5q0 -5 15 -35.5t15 -35.5l11 -31q0 -5 15 -30.5t15 -30.5v-41l-10 -31l-10 -51l-10 -11h-246l-21 11q-20 20 -20 30q0 5 -9 20.5t-9 20.5l-21 52q0 5 -15.5 30.5t-15.5 30.5l-10 31l-10 20q-6 6 -21.5 52t-19.5 53l-10 30q0 5 -20.5 56.5 t-20.5 56.5l-11 51l-10 31q0 9 -5 27t-10 31l-5 14q0 5 -5.5 30.5t-5.5 30.5q0 32 -20 72q-20 41 -20 51l-11 41q0 5 -10 31.5t-10 31.5q-5 10 -20.5 82t-20.5 82zM76 1024q0 -5 5 -30.5t5 -30.5l20 -41l11 -54q0 -5 10 -25.5t10 -25.5t10.5 -41t10.5 -41t10 -35.5t10 -35.5 t5 -20.5t5 -20.5l11 -52l10 -30l20 -41q0 -5 10.5 -41t10.5 -41q0 -4 5 -17t10 -23l5 -11l11 -31q0 -5 15 -32t15 -32l11 -30q0 -5 19 -41t19 -41l11 -31l10 -10l20 -31q0 -4 5.5 -9t10.5 -8l5 -3h113v10q-21 41 -21 51l-10 21l-21 51q0 5 -20.5 46t-20.5 46t-10 37t-10 37 l-21 30l-20 52l-21 40q0 5 -10 36t-10 36q-3 9 -14 46.5t-21 68t-14 39.5l-10 20q-7 15 -24 65t-17 58l-11 51l-10 43q0 5 -15.5 46t-15.5 46l-10 52h-51q-5 0 -25.5 -5.5t-25.5 -5.5v-61z" />
<glyph unicode="]" horiz-adv-x="573" d="M49 70q0 5 5 20.5t5 20.5l82 82l21 10q5 0 46 5t46 5q0 15 5 92t5 92v154q0 5 -5 30.5t-5 30.5l-31 482h-184l-21 20v236l31 10l31 20q8 8 26 19.5t25 11.5l21 10l41 11q2 0 63.5 5t79.5 5h20l31 -10q5 0 36 -5.5t36 -5.5q20 -10 30 -10l21 -10q0 -5 5 -41t5 -41 q0 -17 5 -81t5 -73q0 -46 10.5 -302t10.5 -302q0 -5 5 -41t5 -41q0 -2 5 -145.5t5 -192.5v-51q0 -5 5.5 -36t5.5 -36v-20l-72 -72l-10 -30l-11 -11q-4 0 -47.5 -5t-54.5 -5h-41q-24 0 -98.5 -5t-75.5 -5q-5 0 -30.5 -5t-30.5 -5h-11q-4 0 -14.5 5t-18.5 10l-8 5 q-10 31 -10 41v154zM121 -2q0 -5 5 -36t5 -36h10q5 0 36 5.5t36 5.5q15 0 92 5t92 5l31 10v164q0 10 -5 128t-5 128v31q0 52 -10.5 244t-10.5 206q0 5 -5 71.5t-5 71.5v103q0 16 -5 97t-5 97h-21l-225 -10l-41 -20v-113h154q20 -10 30 -10l11 -10q10 -31 10 -41q0 -5 5 -41 t5 -41q0 -9 5 -83t5 -91v-72q0 -10 5.5 -87t5.5 -87v-246q0 -5 -5.5 -41t-5.5 -41l11 -20q0 -5 5 -41t5 -41v-51l-10 -11q-4 0 -14.5 -5t-18.5 -10l-8 -5l-52 -10q-10 -5 -56 -20.5t-56 -20.5v-31zM315 244q-7 0 -7 -10.5t7 -10.5t7 10.5t-7 10.5z" />
<glyph unicode="^" horiz-adv-x="1005" d="M537 680l-11 -10q-5 -11 -20.5 -62.5t-20.5 -62.5q-20 -31 -20 -41q0 -4 -5.5 -12t-10.5 -14l-5 -5l-30 -31l-31 -20q-5 0 -25.5 -25.5t-25.5 -25.5h-62q-9 0 -80 -5.5t-81 -5.5h-21l-20 11l-11 10v51q0 7 16 46t25 57l113 227q20 41 20 51l11 31q5 5 29.5 61.5 t29.5 61.5q0 5 20.5 62.5t20.5 62.5q3 5 14.5 31t22 46.5t14.5 24.5l21 10l30 10q42 21 52 21h41q5 0 30.5 -5t30.5 -5h82q5 0 29.5 -5.5t29.5 -5.5l11 -20q0 -5 5 -30.5t5 -30.5t15.5 -41t15.5 -41t20 -62.5t20 -62.5l11 -21q0 -5 10 -46t10 -46q0 -16 41 -143l10 -31 l11 -41q0 -5 10 -31.5t10 -31.5v-31l-10 -31l-10 -51l-31 -31q0 -5 -10.5 -20.5t-10.5 -20.5q-10 0 -71.5 -5t-71.5 -5l-39 -10h-31l-10 10q0 5 -10 20.5t-10 20.5q-11 21 -11 31l-10 41q0 5 -15 46t-15 46t-10.5 42t-10.5 42t-10 25.5t-10 25.5zM485 1008h11l20 -11l10 -20 l11 -51q10 -21 10 -31q20 -41 20 -51q11 -31 11 -41l10 -51l10 -21q7 -7 19 -47t12 -55l10 -51l20 -43l11 -41q4 -9 9 -27t8 -31l3 -14l10 -10h80l31 10v31l-20 41l-11 30q0 10 -20.5 103.5t-20.5 103.5q-10 31 -10 41q-7 14 -18 59t-11 54l-10 30l-10 41q-31 75 -41 95 l-10 20q-10 0 -82 5t-82 5h-10l-31 -10l-72 -145q-41 -82 -41 -92l-10 -41q0 -5 -19.5 -46.5t-19.5 -46.5t-15.5 -41t-15.5 -41t-25.5 -47t-25.5 -47l-10 -20q0 -5 -10 -31t-10 -31h61q5 0 35 5.5t35 5.5l10 10q0 5 10 20.5t10 20.5t10.5 31t10.5 32l10 21l20 51l11 20 q0 5 10 36t10 36l10 21l62 235q10 21 20 21z" />
<glyph unicode="_" horiz-adv-x="1705" d="M0 -250v129h1733v-129h-1733z" />
<glyph unicode="`" horiz-adv-x="421" d="M29 1143q12 16 18 22l6 6l49 31q2 0 30 3t38 3h92l12 -6q3 0 8 -4.5t9 -9.5l4 -4q12 -19 12 -25q0 -2 9.5 -26t9.5 -27l6 -12q0 -3 9 -15.5t9 -15.5l6 -25l13 -22l6 -25l6 -18v-25q-6 -12 -12 -12l-13 -6l-12 -12l-12 -7q-19 -6 -25 -6l-33 -6l-18 -6l-12 6q-6 0 -31 25 q-12 6 -55 49l-43 43l-43 47l-19 24l-18 19q-6 18 -6 24v13zM96 1106q3 -3 15.5 -21.5t15.5 -21.5l61 -59l62 -56l12 -6h12l21 6l6 6q-3 3 -13.5 18.5t-13.5 18.5q0 3 -6 12.5t-6 12.5t-9 23.5t-9 23.5t-6.5 12t-6.5 12l-6 7l-6 12l-12 12h-49l-25 -6q-3 0 -18.5 -3 t-18.5 -3z" />
<glyph unicode="a" horiz-adv-x="997" d="M35 63l10 41q0 5 5 31t5 31l11 39q0 5 10 51t10 51t10 46t10 46q0 11 10.5 55t10.5 48q0 5 5 30.5t5 30.5t10.5 45t10.5 45t5 36t5 36t15.5 61.5t15.5 61.5t10 46t10 46l10 41l11 51q0 6 16 45t25 56l10 20l31 31l10 20l30 10l41 21q92 10 123 10h11l71 -10 q31 -11 41 -21l10 -10q0 -5 10.5 -25.5t10.5 -25.5l10 -41l10 -20l11 -31l30 -39q3 -6 17 -31.5t24.5 -46t10.5 -24.5q0 -5 10 -41t10 -41t15.5 -36t15.5 -36l10 -31l10 -51l10 -20q5 -15 26 -96t26 -97q0 -5 10 -51t10 -51l10 -41l11 -21v-71q-21 -50 -31 -60l-10 -10 l-21 -31l-20 -20l-11 -21l-20 -20q-7 -7 -29.5 -14t-31.5 -7h-144q-20 21 -20 31q0 5 -5.5 36t-5.5 36q-7 27 -18.5 95t-11.5 77q0 5 -10.5 30.5t-10.5 30.5h-20l-21 -10q-5 0 -35.5 -5t-35.5 -5q-7 0 -19 -11.5t-12 -19.5q-21 -52 -21 -72q0 -4 -10 -42t-10 -48l-10 -51 l-11 -21l-30 -20l-21 -21q-7 -7 -18.5 -30t-11.5 -31h-195q0 -7 -11.5 -13.5t-19.5 -6.5q-20 10 -20 20v61zM342 1092q-7 -7 -19 -30.5t-12 -29.5q0 -9 -11.5 -53.5t-18.5 -58.5q0 -5 -15.5 -77t-15.5 -77l-10 -41q0 -10 -15.5 -91t-15.5 -91q-10 -31 -10 -41l-11 -31 q0 -5 -10 -56.5t-10 -56.5t-15.5 -76.5t-15.5 -76.5t-5 -30t-5 -30t-10.5 -30.5t-10.5 -30.5v-31h62l41 10l10 21q0 5 5 36t5 36q0 9 2.5 23.5t5.5 24.5l3 11q0 5 10 25.5t10 25.5q7 14 19 71t12 73l10 10l31 10q5 0 46 5t46 5h72l30 11q5 0 26 5t26 5h30l10 -10l11 -21 q0 -5 10 -41t10 -41t15.5 -76.5t15.5 -76.5q4 -8 9 -28t8 -36l3 -16h103l10 10v10q0 5 -10 30.5t-10 29.5q0 5 -10.5 40.5t-10.5 40.5l-10 31q0 11 -10.5 39.5t-10.5 32.5l-10 51l-10 21q0 5 -10.5 25.5t-10.5 25.5q-10 20 -10 30q-4 17 -17 56l-23.5 70.5t-10.5 35.5 l-10 41q-5 21 -20.5 57t-20.5 56l-10 41q0 5 -15.5 46t-15.5 46t-10.5 50t-10.5 50l-10 21h-61q-10 0 -56.5 -5t-56.5 -5zM301 471v133q10 29 10 39q0 5 15.5 36t15.5 36q0 1 10 70.5t10 93.5v51q11 31 21 41l10 10h21q8 0 24.5 -16.5t16.5 -24.5q20 -41 20 -51l10 -41 q0 -5 10.5 -31t10.5 -31t15.5 -66.5t15.5 -66.5l10 -41q0 -4 10 -29t10 -30v-31q-10 -10 -20 -10q-23 -9 -48.5 -14t-57.5 -9.5t-48 -7.5q-5 0 -30.5 -10t-30.5 -10h-21zM444 745l-10 -20l-10 -41v-61q31 0 41 10v31q0 5 -5 25.5t-5 25.5z" />
<glyph unicode="b" horiz-adv-x="899" d="M141 -35q0 20 -10 138.5t-10 138.5v112q0 5 -5 72t-5 72q0 22 -5.5 132t-5.5 124v123q0 15 5.5 112t5.5 113l10 31q41 31 51 41l41 20q61 61 74 61q41 11 51 11h10q24 0 99 -5.5t77 -5.5q11 0 49.5 -5t42.5 -5q31 -20 41 -20q42 -31 52 -41l20 -21l10 -30l11 -11 q8 -8 19 -26t11 -25l13 -31l10 -20v-133q-11 -31 -23 -41q0 -5 -20.5 -36t-20.5 -36l-10 -31q6 -3 32 -14.5t47.5 -22t25.5 -14.5l20 -20l20 -31l31 -31l10 -30v-174q0 -5 -5 -20.5t-5 -20.5q0 -4 -10 -24.5t-24.5 -47t-16.5 -31.5q-8 -8 -19.5 -26t-11.5 -25l-20 -21 l-10 -20q-18 -15 -54 -51q-31 -21 -41 -31q-5 0 -25.5 -15.5t-25.5 -15.5q-6 -3 -26.5 -14.5t-36 -19t-19.5 -7.5q-53 -20 -63 -20q-31 -10 -41 -10q-13 -7 -52.5 -14t-50.5 -7q-2 0 -59 -5t-76 -5h-61zM152 764q0 -5 5 -71.5t5 -71.5v-82q0 -10 10 -87t10 -87v-134 q0 -4 5.5 -52.5t5.5 -59.5l10 -72l20 -20h94l41 10q5 0 36 5t36 5l62 10q10 5 36.5 15.5t36.5 15.5q7 0 25 11.5t26 19.5q4 0 12 5t14 10l5 5l72 72q31 51 41 61q0 5 10 20.5t10 20.5q5 4 11 19.5t9 29.5l3 13v102q-10 21 -10 31q0 8 -23 31q-5 0 -25.5 15t-25.5 15l-62 31 q-4 0 -47.5 5t-54.5 5l-10 21v20l10 11q5 5 36 25.5t36 25.5l20 20q0 4 5.5 12t10.5 13l5 6l10 31l10 20l10 31v72q0 5 -5 30.5t-5 30.5l-10 31q-21 31 -31 41l-20 20q-9 9 -32 25t-30 16q-20 10 -30 10q-5 0 -37 5.5t-37 5.5h-82q-11 0 -44.5 -5.5t-37.5 -5.5 q-5 0 -25.5 -10t-25.5 -10l-53 -10q-5 0 -20.5 -5.5t-20.5 -5.5v-317zM276 528l11 11q5 0 20.5 10t20.5 10q4 4 19.5 9.5t28.5 8.5l13 3h72q5 0 25.5 -5.5t25.5 -5.5q9 0 32 -11t31 -19q31 -21 41 -31l21 -21l10 -20q4 -4 9.5 -17t8.5 -24l3 -10v-72q-21 -51 -31 -61 q-21 -21 -21 -31l-10 -10l-20 -31l-41 -41l-21 -10l-22 -21l-21 -10l-51 -10l-20 -10h-11l-30 -11h-52q0 15 -5 112.5t-5 113.5q-10 71 -20 102l-11 41v61zM246 989l10 10l51 11l31 10q5 0 25.5 5t25.5 5h21l92 -10q33 -11 43 -21q4 0 11.5 -5t13.5 -10l5 -5q11 -11 11 -21 q4 -4 9 -17t8 -23l3 -11v-20l-20 -62q-4 -4 -35.5 -45t-38.5 -47l-20 -10l-41 -10l-21 -11q-5 0 -36 -10t-36 -10l-30 -31q-11 11 -21 11l-10 10q0 5 -5 30.5t-5 30.5t-5.5 20.5t-5.5 20.5l-10 31q-7 13 -13.5 47.5t-6.5 44.5v92zM430 518v-133q0 -10 5 -56.5t5 -56.5h21 l31 11l43 10l40 41l21 31v51q-10 20 -10 30q0 4 -3 9.5t-5 8.5l-3 3q-51 21 -63 31q-4 4 -17 9t-23 8l-11 3h-31zM369 958v-61q0 -5 5 -25.5t5 -25.5l10 -10q5 0 25.5 10t25.5 10l41 10q4 0 15 5t20 11l8 5v41l-22 20q-31 10 -41 10h-92z" />
<glyph unicode="c" horiz-adv-x="942" d="M242 78q-7 0 -7.5 -10t5.5 -11h-9l-20 11l-10 10l-21 31l-20 20q0 5 -10.5 32t-10.5 32l-20 30l-10 31l-21 51q-20 40 -20 72l-11 61v103q0 24 5.5 94.5t5.5 71.5q0 5 15 71.5t15 71.5t10.5 56.5t10.5 56.5q10 31 20 41q4 8 14.5 25t18.5 30.5t8 17.5t8 14.5t16 18.5l7 8 l82 82q41 21 51 31q41 20 51 20q54 21 144 21h51q5 0 25.5 -5t25.5 -5q52 -21 72 -31q4 0 14.5 -5.5t18.5 -10.5l8 -5q4 0 11.5 -5t12.5 -10l6 -5q3 -3 14.5 -12t19 -17t7.5 -12q0 -5 15.5 -25.5t15.5 -25.5l10 -31l11 -23q0 -11 10 -59.5t10 -52.5v-62l-31 -30l-30 -41 l-52 -51l-20 -11h-195q-20 11 -20 21v30l10 11v112q-10 31 -10 41l-10 31q0 4 -2.5 9.5t-5.5 8.5l-3 3l-20 10h-21q-10 -11 -10 -21v-10l-20 -41q-11 -21 -11 -31q0 -5 -10 -35.5t-10 -35.5l-10 -41q0 -17 -10.5 -91t-10.5 -83v-105q0 -10 5.5 -71.5t5.5 -71.5l20 -21 q0 -5 10 -35.5t10 -35.5l11 -21l10 -10h10l31 10l20 21q8 8 19.5 31t11.5 30q0 10 5 82t5 82l11 51q0 4 10 14.5t24 22t17 14.5q41 23 51 33l20 10h11q10 0 71.5 -5t71.5 -5l21 -10q20 -23 20 -33l10 -31l11 -10l-21 -20q0 -10 -5 -66.5t-5 -66.5l-10 -41q0 -5 -5.5 -26 t-5.5 -26t-5 -30.5t-5 -30.5t-10 -25.5t-10 -25.5l-11 -10l-10 -23q-5 -5 -25.5 -30.5t-25.5 -30.5l-31 -31l-31 -21l-40 -30l-41 -21l-11 -10l-20 -10q-5 0 -31 -10.5t-31 -10.5l-41 -10h-20q-41 0 -123 20q-4 0 -12 2.5t-14 5.5l-5 3l-41 30v31l-10 10h-18q6 1 5 11t-7 10 zM324 57h10l10 -10l21 -10q5 0 35.5 -5t35.5 -5h21l61 10l31 20q5 0 30.5 15.5t30.5 15.5l21 21q9 9 25 31.5t16 29.5q5 6 20.5 42.5t20.5 41.5q10 21 10 31q4 9 9 29.5t8 36.5l3 16v61l-10 41h-82l-10 -10q0 -10 -5 -72t-5 -72l-10 -41q0 -7 -16 -29.5t-25 -31.5l-21 -10 q-5 0 -25.5 -16.5t-25.5 -16.5h-41q-31 12 -41 12q-5 0 -30.5 10.5t-30.5 10.5l-21 10l-41 41l-10 20q-10 21 -10 31l-11 41q0 5 -10 25.5t-10 25.5t-5 31t-5 31v217q10 51 10 61q8 34 24.5 111t16.5 84q0 5 10 30.5t10 30.5l11 11l10 20l61 63q5 0 20.5 10.5t20.5 10.5h41 q7 0 42 -11.5t50 -19.5l11 -10q20 -23 20 -33l10 -20q4 -4 9.5 -19.5t8.5 -28.5l3 -14q0 -10 5 -71.5t5 -71.5l10 -10h62l10 10v102q-10 42 -10 62q-5 16 -10.5 47t-10.5 47q-8 15 -47.5 55t-54.5 47l-21 11h-133q-9 0 -31.5 -7t-29.5 -14q-5 -5 -36 -25.5t-36 -25.5 q-51 -64 -61 -84q-8 -8 -19.5 -26t-11.5 -25q0 -5 -10.5 -25.5t-10.5 -25.5t-10 -36t-10 -36l-10 -51l-10 -31q0 -5 -5.5 -36t-5.5 -36q-10 -41 -10 -51q0 -18 -5 -83t-5 -73q0 -4 5 -42.5t5 -49.5q0 -5 5 -25.5t5 -25.5q0 -4 2.5 -12t5.5 -14l3 -5q6 -13 28.5 -56t37.5 -74 t15 -35q7 -15 42.5 -50.5t50.5 -42.5z" />
<glyph unicode="d" horiz-adv-x="929" d="M121 2q0 46 -10.5 312.5t-10.5 312.5v112q0 28 5.5 141t5.5 126q0 10 5 56t5 56l41 41q62 41 82 51l20 11q5 0 26.5 15t26.5 15q4 0 9.5 2.5t8.5 5.5l3 3h82q41 -11 51 -11q5 0 20.5 -5t20.5 -5l31 -10q5 0 30.5 -5t30.5 -5q6 -3 26.5 -12t36 -17t19.5 -12q7 -5 33.5 -47 t30.5 -46l30 -40l11 -41q0 -13 40 -93q0 -5 15.5 -30.5t15.5 -30.5q10 -41 10 -61l11 -72v-51q0 -5 -5.5 -26t-5.5 -26t-5 -51t-5 -51q-10 -21 -10 -31l-21 -41q0 -5 -10 -35.5t-10 -35.5l-10 -31q0 -5 -15.5 -30.5t-15.5 -30.5q-31 -62 -51 -82q0 -4 -10.5 -14.5t-25 -22.5 t-17.5 -15q-30 -30 -41 -30q-4 -4 -24.5 -14.5t-47 -23t-31.5 -14.5l-30 -10q-5 0 -31 -15t-31 -15q-21 -11 -31 -11q-5 0 -20.5 -5t-20.5 -5t-25.5 -5t-25.5 -5q-12 0 -73.5 -10.5t-71.5 -10.5l-31 11zM172 463q0 -10 5 -72t5 -72q0 -5 5.5 -35.5t5.5 -35.5v-31 q0 -5 5 -56.5t5 -56.5v-30h135q31 10 41 10l20 10q5 0 26 10.5t26 10.5l30 10l21 20l20 11l62 41l102 102q23 21 23 31q3 5 17 31t24 46.5t10 24.5l10 51l10 31v154q-10 51 -20 71l-10 31l-11 21q0 5 -20.5 35.5t-20.5 35.5l-12 21q-7 13 -34.5 47.5t-37.5 44.5l-41 31 l-10 10q-9 9 -31.5 25t-29.5 16q-21 10 -31 10q-5 0 -20.5 5t-20.5 5l-51 10h-135q-21 -10 -31 -10l-10 -10l-10 -41v-358q0 -5 -10.5 -46.5t-10.5 -46.5v-112zM295 268v338q0 10 6 112.5t6 112.5v103l10 51l31 31h10l21 -10l41 -11q5 0 30.5 -10t30.5 -10q10 0 72 -31 q4 0 9 -2.5t8 -5.5l3 -2l52 -51q20 -42 30 -52q0 -4 5.5 -14t10.5 -18l5 -8l10 -41l12 -31q0 -5 5.5 -36t5.5 -36l-11 -20v-41q0 -5 -6 -36t-6 -36l-10 -51l-10 -21l-21 -30l-20 -41q0 -4 -7.5 -14.5t-15.5 -18.5l-8 -8l-41 -31l-10 -10l-21 -10l-10 -11l-51 -20l-21 -10 q-5 0 -41 -10.5t-41 -10.5h-20l-21 10l-10 11zM451 514v-123h10q4 0 14.5 5.5t18.5 10.5l8 5q41 31 51 41l20 20q7 7 19 31t12 31q0 5 5 20t5 20v185q0 8 -11.5 31t-18.5 30l-52 51q-8 8 -31 19.5t-30 11.5q0 -21 -10 -128.5t-10 -127.5q0 -5 -5.5 -25.5t-5.5 -25.5v-72z " />
<glyph unicode="e" horiz-adv-x="811" d="M137 78q0 30 5 93t5 93v41q0 5 -5 66.5t-5 66.5q0 24 -5 98.5t-5 75.5v228q0 10 -10.5 113.5t-10.5 113.5v20l31 31l111 103q5 0 20.5 10t20.5 10q15 0 106 5t107 5h192l21 -10l20 -20q0 -4 10.5 -48t10.5 -55v-20l-11 -21q-8 -8 -24 -37t-16 -36l-21 -31l-10 -10 l-19 -11q-5 0 -51 -5t-51 -5l-21 -10q-4 0 -47 -5t-53 -5v-103l8 -31q5 0 46 -5t46 -5h11q10 0 25.5 5t25.5 5h10q5 0 31 -15t31 -15l8 -21v-135l-8 -20l-11 -11q-5 -5 -25.5 -30.5t-25.5 -30.5l-31 -21q0 -4 -5 -14t-10 -18l-5 -8h-92l10 -31v-92q11 -21 21 -31h10 q5 0 30.5 5t30.5 5h142q20 -10 30 -10l21 -10q4 0 9 -5.5t8 -10.5l3 -5v-166l-10 -30q-11 -11 -21 -11q-5 0 -30.5 -10t-30.5 -10h-172q-41 -10 -61 -10q-29 -7 -86.5 -19t-65.5 -12q-5 0 -30.5 -10.5t-30.5 -10.5h-60q-31 21 -31 31q-10 31 -10 41v31zM188 78q0 -4 3 -12 t5 -14l3 -5h28q9 0 71 12t83 19l41 10q9 0 54.5 5t55.5 5h93l10 21v41l-10 10h-133q-5 0 -50.5 -5t-50.5 -5h-51l-10 10q0 17 -10.5 94t-10.5 92v113l21 20l20 11q52 10 72 10q5 0 40 5t40 5v105l-10 10h-60q-5 0 -36 -11.5t-36 -11.5h-20q-4 0 -12 3t-14 7l-5 3 q-10 41 -10 51q0 5 -5 46t-5 46l-10 41q-11 92 -11 123v10q0 4 3 12t5 14l3 5q20 10 30 10q5 0 31 5t31 5t60.5 5.5t60.5 5.5q10 0 61 10t61 10v33l-10 41h-41q-28 0 -144.5 -10.5t-129.5 -10.5q-41 -10 -51 -10q-30 0 -50 -20v-412q0 -5 5.5 -78t5.5 -78v-381z" />
<glyph unicode="f" horiz-adv-x="811" d="M121 -4q0 31 -5 205t-5 205v20q0 10 -5.5 82t-5.5 82v205q0 21 10.5 138t10.5 138q0 5 10 25.5t10 25.5q21 31 31 41q0 4 8 12t16 13l7 6l20 10l10 10l21 41q33 11 43 11q11 0 49.5 5t42.5 5h371q0 -5 10 -20.5t10 -20.5l11 -10v-154q-42 -62 -62 -82l-41 -41 q-74 -10 -94 -10h-31l-31 -10h-20q-5 0 -25.5 -5t-25.5 -5q-4 0 -9.5 -3t-8.5 -5l-3 -3v-102h123l41 10h53l21 -20v-154q-41 -92 -64 -123l-10 -10q-4 0 -9 -2.5t-8 -5.5l-3 -2h-144q-10 -42 -10 -52v-20q0 -5 5 -77t5 -77v-194l-10 -21l-20 -20l-21 -41l-10 -10 q-5 0 -41 -5.5t-41 -5.5q-11 0 -55.5 -10t-48.5 -10l-21 -10h-20l-21 20zM193 57l10 -20h20q9 0 30 5t37 10l17 5v482l10 10q10 0 61.5 5t61.5 5l82 10v82h-205l-10 11l-10 20v266l10 10l31 11l276 41v92h-102q-7 0 -99.5 -10.5t-115.5 -10.5q-5 0 -26.5 -5t-26.5 -5 l-31 -10l-10 -10q-10 -42 -10 -52q0 -11 -5.5 -44t-5.5 -37q0 -12 -5 -143t-5 -165v-164q0 -30 10.5 -194.5t10.5 -194.5z" />
<glyph unicode="g" horiz-adv-x="929" d="M57 483q0 5 5.5 36t5.5 36t5 51t5 51q10 42 10 52q4 9 9.5 32t8.5 41l3 19q0 5 15 46t15 46l11 10q0 5 10 31t10 31q0 8 12.5 36t20.5 35q0 4 5 14.5t10 18.5l5 8q0 4 5.5 12t10.5 13l5 6q4 9 21.5 26.5t38.5 36t22 19.5q51 31 61 41q5 0 20.5 10t20.5 10q31 11 43 11 l51 10h31l113 -10q5 0 20.5 -10.5t20.5 -10.5q33 -31 43 -41q51 -51 51 -61q20 -31 20 -41q0 -5 10.5 -31t10.5 -31t10 -25.5t10 -25.5q0 -4 5 -32.5t5 -39.5v-30q-20 -21 -20 -31q-3 -3 -14.5 -17t-22 -24t-14.5 -10q-5 0 -20.5 -10.5t-20.5 -10.5q-10 0 -83 -5t-83 -5h-21 q-4 0 -11.5 5t-13.5 11l-5 5v153l-11 21l-10 10h-10q-5 -5 -20.5 -25.5t-20.5 -25.5q-23 -52 -33 -62l-20 -51l-10 -20l-11 -31q0 -5 -10 -41t-10 -41t-5 -31t-5 -31v-133q0 -10 5 -61.5t5 -61.5l10 -41q21 -20 21 -30l10 -10l20 -11q21 11 33 11l21 10l20 20l10 21v92 l-10 20h-94l-21 21q-10 72 -10 92v92l51 51l33 21l31 31h102q62 -11 82 -11q5 0 32 -5t32 -5h61q20 -10 20 -20q0 -7 11.5 -31t19.5 -31l10 -31v-30q0 -18 -5 -69.5t-5 -53.5l-10 -31q0 -8 -12 -53.5t-19 -59.5q0 -5 -10 -40.5t-10 -40.5t-15.5 -31t-15.5 -31t-15.5 -36 t-15.5 -36q-12 -10 -63 -61q-8 -8 -54 -31t-69 -30q-31 -11 -41 -11q-2 0 -59.5 -5t-75.5 -5h-31q-5 0 -20.5 5t-20.5 5q-7 0 -30 11.5t-31 19.5q-4 0 -12 5t-14 11l-5 5q-84 73 -84 81q-21 52 -31 72q0 5 -5 20.5t-5 20.5t-5 51t-5 51t-10.5 41t-10.5 41v82zM109 432 q0 -5 5 -41t5 -41l10 -31q0 -5 5 -30.5t5 -30.5q0 -7 11.5 -42t19.5 -50q0 -5 10 -20.5t10 -20.5l13 -10l51 -41l41 -11l31 -20h92l41 10q7 3 34.5 6.5t38.5 14.5q5 5 26 20.5t26 20.5l51 51q20 31 20 41q0 5 10.5 30.5t10.5 30.5l10 51l10 31q4 9 9.5 27t8.5 31l3 14 q0 5 5 41t5 41v61l-10 10q-15 0 -102 5.5t-103 5.5h-41q-12 -11 -12 -21v-30l12 -21q5 0 36 -5t36 -5l30 -10l11 -11l10 -20v-123q-10 -21 -10 -31q-8 -8 -19.5 -31t-11.5 -30l-21 -21q-5 -3 -26.5 -14.5t-37 -19t-19.5 -7.5h-93l-20 11l-21 20l-41 51q0 5 -15 31t-15 31 t-10.5 30.5t-10.5 30.5v195q0 12 7 67.5t14 75.5q0 4 10 37.5t10 44.5q6 24 22 64t19 49l10 20q0 4 5.5 12t10.5 14l5 5l61 61q5 0 31 10.5t31 10.5h63l31 -10l20 -21q8 -8 19.5 -31t11.5 -30q10 -31 10 -41l11 -62q41 -10 61 -10h41v72q0 9 -6.5 38.5t-13.5 43.5l-11 20 q0 11 -30 41l-21 20q-8 4 -29.5 20t-40 29t-22.5 13q-31 10 -41 10h-63q-9 0 -32 -6.5t-30 -13.5q-4 0 -14.5 -5.5t-18.5 -10.5l-8 -5q-31 -21 -31 -31l-10 -20l-10 -10q-21 -21 -21 -31l-10 -20q0 -5 -20.5 -46.5t-20.5 -46.5t-16.5 -30.5t-16.5 -30.5q-5 -5 -20.5 -60 t-19.5 -63q0 -4 -10.5 -37.5t-10.5 -44.5l-10 -51l10 -21l-10 -30v-10l-10 -11v-92z" />
<glyph unicode="h" horiz-adv-x="1165" d="M102 1092q0 5 5.5 25.5t5.5 25.5l10 10q8 8 31 19.5t30 11.5l41 10q5 0 36 10t36 10h20q5 0 26 -5t26 -5t30.5 -10t30.5 -10l21 -10l10 -11v-10l-10 -31v-110q0 -5 5 -31t5 -31t5 -51t5 -51t5 -20.5t5 -20.5l11 -10h163v315q0 5 5.5 25.5t5.5 25.5q20 11 30 21l103 61 h194q21 -10 21 -20l10 -21l10 -30q10 -52 10 -62q0 -5 5.5 -36t5.5 -36q0 -4 5 -29t5 -30l10 -72q0 -10 5 -122.5t5 -122.5t10.5 -81t10.5 -81q0 -6 5 -96t5 -119v-72l-82 -162q-5 0 -25.5 -5t-25.5 -5l-41 -10l-51 -10q-4 0 -48 -5.5t-55 -5.5h-20l-10 11q0 5 -5 35.5 t-5 35.5l-11 31q0 5 -5 55.5t-5 55.5q0 23 -12 97t-19 97l-10 31l-10 10h-31l-31 -10q-10 0 -61 -5t-61 -5v-154q0 -4 5 -47.5t5 -54.5l10 -39v-11q-20 -31 -20 -41l-21 -30l-10 -21l-21 -20l-20 -31q-7 -7 -25 -13.5t-26 -6.5h-185l-10 10q0 5 -5 35.5t-5 35.5v121 q0 5 -5 72t-5 72q0 23 -5.5 115.5t-5.5 99.5v110q0 5 -5 56.5t-5 56.5v20l-10 41q-4 14 -9.5 42t-8.5 49l-3 22v152zM174 1001q0 -15 20.5 -148t20.5 -148q0 -10 5 -60.5t5 -60.5q0 -41 10.5 -265.5t10.5 -265.5h82l20 21q10 131 10 182v92l-10 31v113l10 10q5 0 20.5 10 t20.5 10q15 0 102 5t103 5q5 0 25.5 5.5t25.5 5.5h82l11 -31l10 -41q0 -5 5 -36t5 -36l10 -30q0 -5 5 -31t5 -31t5.5 -46t5.5 -46q0 -11 10 -59t10 -52l10 -20h11q11 0 54.5 10t47.5 10v72q0 72 -5.5 156t-14 186t-11.5 156v20q0 5 -5 36t-5 36q0 10 -5 87t-5 87q0 5 -5 46 t-5 46q0 4 -5.5 24t-5.5 25h-10q-10 0 -66.5 -5t-66.5 -5v-397l-10 -10q-11 0 -55 -5.5t-48 -5.5q-5 0 -30.5 -5t-30.5 -5t-36 -5t-36 -5l-30 -10h-82l-21 10q-4 0 -9 5t-8 10l-3 5q0 5 -5.5 26t-5.5 26q0 10 -5 102t-5 102q0 18 -5 69.5t-5 53.5l-10 29l-11 10h-92 q-10 -21 -10 -31v-39z" />
<glyph unicode="i" horiz-adv-x="505" d="M111 6v174q0 12 -5.5 84t-5.5 82v92q0 5 -5 41t-5 41q-6 39 -13 121t-7 96v350q0 5 5 20.5t5 20.5q5 5 30.5 36t30.5 36q8 8 37.5 24.5t36.5 16.5h51l146 -10l20 -41q0 -3 8 -125t18.5 -285.5t14.5 -249.5v-163q0 -10 5 -82t5 -82v-53l-30 -31q-21 -21 -21 -31 q0 -5 -15.5 -30.5t-15.5 -30.5l-10 -11q-43 -10 -53 -10l-62 -10q-3 0 -52 -5t-62 -5h-21l-20 10zM141 901q0 -32 10.5 -189.5t10.5 -181.5q0 -15 13 -134.5t20 -172.5q0 -5 5 -42t5 -42l10 -61h102v155q0 15 -5 138t-5 139v104q0 5 -5 31t-5 31v143q0 10 -5 66.5t-5 66.5 q0 5 -5.5 31t-5.5 31t-5 36.5t-5 36.5h-10l-84 -10l-20 -10l-11 -20v-146z" />
<glyph unicode="j" horiz-adv-x="620" d="M25 -18q0 5 -10.5 40.5t-10.5 40.5t-5 31t-5 31v41l10 10q5 0 31 4t31 4q30 11 40 21l31 20l10 11l31 40q10 42 10 62q0 11 5.5 49.5t5.5 42.5v193q0 4 -5.5 57.5t-5.5 64.5q0 5 -5 26t-5 26q0 1 -5 70.5t-5 93.5v20q0 5 -5 55.5t-5 55.5v61l30 31l21 10l31 20l30 11 l31 20q21 21 51 21h10q42 -11 52 -11h51l20 -10q7 0 19 -11.5t12 -19.5q0 -4 5 -47.5t5 -54.5v-20q0 -5 5.5 -40t5.5 -40v-41q0 -4 5 -53t5 -60q0 -5 5 -41t5 -41v-51q0 -22 -5 -120.5t-5 -112.5q0 -18 -5 -85t-5 -69q0 -5 -5.5 -25.5t-5.5 -25.5q0 -8 -11.5 -31.5 t-18.5 -30.5q-10 -10 -25.5 -31t-15.5 -28l-21 -10l-51 -52l-10 -20l-21 -10l-10 -11q-4 -4 -19.5 -14t-28.5 -18l-13 -8l-41 -11q-5 0 -31 -10t-31 -10l-20 -10q-5 0 -26 -5.5t-26 -5.5h-61zM66 104q0 -5 5 -30.5t5 -30.5l10 -10h10l113 51l20 10l41 31q3 3 17 14.5 t24.5 22t10.5 14.5q8 7 24 30t16 30q7 14 19 54t12 48q10 113 10 154v10q0 10 5.5 116.5t5.5 116.5v144q0 4 -5.5 47.5t-5.5 54.5q0 5 -5 25.5t-5 25.5l-10 29l-10 51l-11 10h-71q-21 -10 -31 -10l-20 -10v-10q0 -20 5 -147t5 -148q0 -5 5 -26t5 -26q0 -10 5 -71t5 -70v-194 q0 -4 -5 -43t-5 -50q0 -5 -5 -20.5t-5 -20.5q-21 -41 -21 -51q0 -4 -2.5 -9t-4.5 -8l-3 -3l-61 -60l-31 -20q-5 0 -30.5 -10.5t-30.5 -10.5z" />
<glyph unicode="k" horiz-adv-x="987" d="M113 227v664q0 10 -5.5 66.5t-5.5 66.5v90q0 20 21 41l41 41l41 31l20 20h82q5 0 41 -5t41 -5q21 -10 31 -10q4 0 9 -2.5t8 -4.5l3 -3q21 -31 21 -41q10 -42 10 -52q0 -5 5 -45t5 -45l11 -30q4 0 11.5 7.5t12.5 14.5l6 8l10 19l11 30l10 21q0 5 5 36t5 36l10 10 q4 4 24.5 14.5t47 22t31.5 14.5l31 10h92l51 -10q5 0 30.5 -5t30.5 -5l21 -10q8 0 19.5 -11.5t11.5 -19.5l10 -21q0 -9 -12 -47t-19 -45l-20 -39q0 -5 -15.5 -35.5t-15.5 -35.5q0 -4 -10.5 -20t-23.5 -35t-17 -27l-31 -41q0 -4 -5.5 -12t-10.5 -14l-5 -5l-10 -21 q-20 -20 -20 -30l-31 -41q-10 -21 -10 -31v-20l10 -21q41 -82 41 -100q0 -5 10 -31t10 -31q5 -5 20.5 -46t20.5 -46q0 -5 15.5 -25.5t15.5 -25.5l10 -31l21 -30l41 -41v-21q0 -7 -11.5 -41t-19.5 -49l-10 -21l-21 -10l-41 -41q-10 0 -61 -10t-61 -10q-42 -10 -52 -10h-41 l-20 10l-21 20q0 5 -15 25.5t-15 25.5l-11 31q0 5 -15 30.5t-15 29.5q-6 6 -22 50.5t-19 51.5v-141l-10 -21q0 -10 -41 -51l-31 -31l-10 -20l-11 -10q-11 0 -54.5 -5.5t-47.5 -5.5q-5 0 -41 -15t-41 -15h-10l-10 10l-11 20l-10 31l-10 51v72q0 5 -5 29.5t-5 29.5zM174 1073 v-835q0 -4 5 -57t5 -64q0 -5 5.5 -20.5t5.5 -20.5h20l41 10h41v111q0 10 -10.5 92t-10.5 92v72l31 41l10 20l82 82h11l20 -21q21 -41 21 -51l10 -30q0 -5 10 -20.5t10 -20.5l11 -11q10 -20 10 -30q0 -5 10 -41t10 -41q0 -4 5 -17t11 -23l5 -11l10 -31l10 -21l10 -30 q5 -4 26 -45t26 -46h71q5 0 41 10.5t41 10.5v10l-10 31v20l-20 19q-5 5 -31 61.5t-31 61.5q0 5 -15.5 25.5t-15.5 25.5q-5 5 -25.5 51t-25.5 51q-8 8 -24.5 36.5t-16.5 35.5l-20 20q-21 21 -21 31q-4 4 -9 14t-8 18l-3 7v31q0 5 15 30.5t15 30.5l11 31l30 41l21 41l20 20 l11 21l30 41q0 5 20.5 30.5t20.5 30.5l31 41l21 29v10h-113l-21 -10q-20 -39 -30 -49q0 -5 -20.5 -41t-20.5 -41l-11 -10q-20 -42 -30 -52l-10 -20q0 -5 -26 -25.5t-26 -25.5t-20.5 -31t-20.5 -31l-20 -20q-5 0 -20.5 -10.5t-20.5 -10.5h-21l-10 11v266q0 5 -5 45t-5 45 q-5 0 -20.5 5t-20.5 5h-82z" />
<glyph unicode="l" horiz-adv-x="813" d="M72 1028q0 5 -5.5 25.5t-5.5 25.5v11q0 4 5.5 11.5t10.5 12.5l5 6l51 51q7 7 41 24t41 17h123q5 0 30.5 -5t30.5 -5l11 -10q4 -4 8.5 -14.5t7.5 -18.5l2 -8q0 -5 5 -56.5t5 -56.5l11 -43v-164q0 -15 5 -159t5 -160v-20q0 -11 5 -44.5t5 -37.5l10 -21l10 -10h287l10 -10 q11 -82 11 -113v-74q-11 -20 -11 -30l-10 -21q0 -5 -15.5 -20.5t-15.5 -20.5l-30 -31h-51q-5 0 -31 -5t-31 -5q-10 0 -101.5 -5t-101.5 -5q-5 0 -56 -5t-56 -5h-133l-11 20q0 5 -5 25.5t-5 25.5v136q-10 61 -10 81q0 5 -10.5 72t-10.5 72q0 11 -5 54.5t-5 47.5v64 q0 30 -10 199.5t-10 201.5zM143 1028q0 -5 5.5 -78t5.5 -78v-184q0 -9 5 -79t5 -87q10 -51 10 -71q0 -5 5 -31t5 -31q0 -2 5.5 -63.5t5.5 -79.5v-43q0 -11 5 -55t5 -48h71q5 0 41 5.5t41 5.5h91q10 0 81.5 5t81.5 5l21 10l10 10v84h-336l-10 72q-10 370 -10 524v92 q0 4 -5.5 43t-5.5 50l-10 53q-20 10 -30 10h-31q-5 0 -31 -5t-31 -5v-31z" />
<glyph unicode="m" horiz-adv-x="1290" d="M123 35l-21 20v244q0 5 5.5 77t5.5 77v589l20 21l31 20l31 31q5 0 20.5 10.5t20.5 10.5q4 0 42.5 5t49.5 5h61l21 -10q0 -5 15 -31t15 -31q5 -5 26 -75.5t26 -75.5q0 -7 11 -36.5t19 -45.5l21 -52l10 -30l10 -41l10 -10h11q0 4 10 47.5t10 54.5q0 5 5 71.5t5 71.5 q11 31 11 41l10 29q0 5 5 36t5 36l41 41l21 10l30 20l51 21l41 20q4 0 12 3t13 5l6 3h41q10 0 71.5 -10.5t71.5 -10.5l21 -10q20 -21 20 -31l11 -20l10 -31q0 -5 5 -41t5 -41l10 -29q4 -9 9.5 -26.5t8.5 -30.5l3 -14q7 -14 19 -76t12 -78v-31q10 -31 10 -41l10 -30l10 -41 q0 -5 10.5 -30t10.5 -30t10 -41t10 -41t5.5 -35.5t5.5 -35.5l10 -21v-51l-10 -31q0 -5 -10.5 -35.5t-10.5 -35.5t-10 -25t-10 -25t-10.5 -30.5t-10.5 -30.5q-31 -21 -41 -21q-5 0 -46 -10t-46 -10l-41 -10l-31 -10h-10l-20 10l-11 10q0 5 -10 36t-10 36t-5 30t-5 29l-11 31 l-10 41q-5 10 -20.5 61.5t-20.5 61.5q0 -5 -5 -46.5t-5 -46.5l-10 -51q0 -5 -5.5 -34.5t-5.5 -34.5q-31 -52 -41 -72l-10 -10l-20 -11l-31 -30q-5 0 -20.5 -5t-20.5 -5h-205q-20 10 -20 20l-21 41l-10 10q0 -5 -10 -20.5t-10 -20.5l-41 -41l-21 -30h-31q-5 0 -51 5t-51 5 h-92zM184 117l31 -11h61v162q0 10 10.5 82t10.5 82v21q0 5 -5 30.5t-5 30.5q0 2 -5.5 57.5t-5.5 73.5v31l11 10h10l31 -10l10 -10q10 -21 10 -31l10 -39q5 -10 31 -92t31 -92l10 -41q0 -5 15.5 -46t15.5 -46l10 -21l10 -41l41 -80h144q0 5 5 31t5 31t10 50t10 50t5.5 41 t5.5 41t10 46t10 46t5 31t5 31l11 20q0 5 5 20.5t5 20.5t5 40t5 40t10 30.5t10 30.5l21 21h20l11 -10l10 -21q5 -16 30.5 -117t30.5 -116l11 -52q0 -5 20.5 -51t20.5 -51q10 -31 10 -41q0 -5 5 -30.5t5 -30.5q10 -29 10 -39q0 -4 2.5 -12t5.5 -13l3 -6l10 -10h61q5 0 20.5 5 t20.5 5l10 10q0 4 3 12t5 14l3 5q-11 39 -11 49l-10 31q0 5 -5 20.5t-5 20.5t-15.5 76.5t-15.5 76.5l-10 41l-10 51q0 5 -10.5 35t-10.5 35t-5 41t-5 41q0 11 -10 54.5t-10 47.5q0 5 -10.5 36t-10.5 36q-7 14 -19 75t-12 77h-123q-11 0 -54.5 -5.5t-47.5 -5.5l-10 -28 q0 -5 -5 -46t-5 -46q0 -10 -10.5 -61.5t-10.5 -61.5q0 -5 -5 -20.5t-5 -20.5t-10.5 -31t-10.5 -31t-5 -60.5t-5 -60.5t-5 -25.5t-5 -25.5t-5 -56t-5 -56t-5.5 -36t-5.5 -36l-10 -41h-31l-20 10q-21 31 -21 41q-5 5 -25.5 61.5t-25.5 61.5q0 5 -20.5 41t-20.5 41 q-10 21 -10 31q0 5 -10 34.5t-10 34.5t-10.5 26t-10.5 26q-21 81 -31 112l-10 41l-10 51l-10 21q0 5 -5.5 30.5t-5.5 30.5l-10 11h-31q-4 0 -14 -5t-18 -11l-8 -5q-21 -31 -21 -41q-10 -62 -10 -82q0 -18 -5 -64t-5 -48q0 -26 -5.5 -168t-5.5 -168v-295z" />
<glyph unicode="n" horiz-adv-x="1019" d="M129 59v11l10 30v154l-10 41v10q0 10 -10 87t-10 87v51q0 5 -5.5 41t-5.5 41q0 10 -10 107.5t-10 107.5t-15.5 82t-15.5 82l-10 62v20l31 31q5 5 35.5 25.5t35.5 25.5q5 0 20.5 10.5t20.5 10.5t20.5 5t20.5 5h31l133 -31v-51l61 -123q7 -7 19 -35.5t12 -36.5 q0 -5 15.5 -46t15.5 -46t15.5 -36t15.5 -36l10 -30l10 -21v103q0 15 -10 138t-10 138v31q10 20 20 20q15 7 49.5 30.5t42.5 31.5q5 0 25.5 10t25.5 10h31q4 0 58 -10t65 -10l41 -10q7 0 19 -16.5t12 -24.5q0 -5 5 -51.5t5 -51.5t5 -41t5 -41q0 -11 5 -54.5t5 -47.5 q21 -323 21 -471v-113l-10 -20q0 -5 -20.5 -36t-20.5 -36l-10 -31l-41 -41l-21 -10q-51 -20 -154 -20h-61q-5 0 -20.5 5t-20.5 5l-20 20q-21 52 -31 62l-21 51l-20 31l-21 41l-20 20v-10q1 -3 16 -51t15 -72v-20l-72 -72l-10 -41l-10 -10h-236l-20 10zM221 121l31 -10h82v30 q0 5 -5 31t-5 31q0 10 -10.5 97t-10.5 97q0 5 -10 46t-10 46t-10.5 61.5t-10.5 61.5t-20.5 72t-20.5 72v30l10 11h41q21 -11 21 -21q0 -5 20.5 -41t20.5 -41t15.5 -25.5t15.5 -25.5l10 -20l20 -31l21 -41q5 -5 41 -66.5t41 -66.5q44 -69 92 -164l10 -31q8 -8 24.5 -36 t16.5 -35l21 -11h102l51 11l10 61v440q0 9 -5 68t-5 76l-10 51v10l-10 31l-11 51l-10 41l-10 51l-10 10h-31q-11 0 -54.5 -10t-47.5 -10v-61q0 -5 5 -72t5 -72v-20q0 -4 5 -37.5t5 -44.5q0 -5 5 -36t5 -36l31 -276v-41l-10 -21q-21 -10 -31 -10l-10 10q0 5 -15.5 31 t-15.5 31l-10 10q-4 8 -20 29.5t-29 40t-13 22.5q-10 15 -56 112.5t-56 112.5l-10 11l-21 40q-8 8 -24.5 36.5t-16.5 35.5q0 5 -20.5 31t-20.5 31l-10 20l-21 51q-5 5 -20.5 41t-20.5 41l-10 10h-102l-10 -10v-20q0 -52 20 -154q0 -5 5 -36t5 -36t5.5 -30.5t5.5 -30.5 q0 -11 5 -54.5t5 -47.5v-82l10 -31q0 -5 5 -51t5 -51l10 -31q0 -5 5.5 -56.5t5.5 -56.5t5 -30.5t5 -30.5t5 -41t5 -41zM569 684q-7 0 -7 -10t7 -10t7 10t-7 10z" />
<glyph unicode="o" horiz-adv-x="921" d="M188 147h-10q0 5 -10 20.5t-10 20.5l-21 11q0 5 -10 30.5t-10 30.5l-21 41q-10 31 -10 41l-20 92v236q10 62 10 82q0 5 5 30.5t5 30.5q10 21 10 31l10 20v10l11 21l10 41q21 41 31 51l51 82q5 5 25.5 36t25.5 36q39 51 49 61l10 10q5 0 36 10.5t36 10.5t31 10t31 10h133 l20 -10q5 0 25.5 -15.5t25.5 -15.5t30 -15t30 -15q4 0 14.5 -10.5t22 -24.5t14.5 -17l10 -20l21 -31q8 -8 19 -26t11 -25l11 -20q0 -5 10 -31t10 -31q0 -4 10.5 -37.5t10.5 -44.5q0 -5 5 -25.5t5 -25.5t5 -36t5 -36v-30q0 -5 -5 -41t-5 -41l-10 -51v-21q0 -5 -5.5 -30.5 t-5.5 -30.5q-10 -21 -10 -31l-10 -21q-10 -20 -10 -30q0 -5 -15.5 -56.5t-15.5 -56.5l-10 -20l-11 -31q0 -7 -15.5 -30t-24.5 -32l-11 -10l-10 -20q-10 -10 -29.5 -36t-29.5 -36l-31 -20l-41 -31q-4 -4 -17 -12t-23 -13l-11 -6q-31 -10 -41 -10l-51 -10h-72l-21 10l-51 20 q-4 0 -9 3t-8 5l-3 3l-10 20l-29 21q-31 20 -31 30l-31 41v10zM127 506q0 -11 5 -49.5t5 -42.5q0 -5 10.5 -41t10.5 -41q8 -16 19 -45.5t11 -36.5l21 -21l31 -51q0 -4 5 -12t10 -14l5 -5l8 -10q5 -5 31 -20.5t31 -20.5l20 -10l31 -10h72q4 0 19.5 7.5t36 19t26.5 14.5 q4 0 14 7.5t18 15.5l8 7l11 21l10 10q21 41 31 51l10 21l10 10q0 5 15.5 31t15.5 31q6 17 10.5 43t7.5 38l11 41q0 5 5 31t5 31l10 41v20q0 22 -2.5 71t-5 90t-2.5 44q0 10 -10.5 61.5t-10.5 61.5q0 8 -10.5 43t-17.5 49l-11 10l-10 21q-4 4 -12 17t-13 23l-6 11l-20 21 l-31 20l-10 10q-9 4 -24 14.5t-26 18.5l-11 8h-82l-41 -10l-52 -51l-10 -21l-20 -30q0 -5 -19.5 -26t-19.5 -26l-10 -20q0 -5 -15.5 -25.5t-15.5 -25.5q-7 -8 -24 -41t-17 -41q-7 -7 -19 -40.5t-12 -41.5v-21q0 -10 -5 -92t-5 -92v-51zM616 639q0 -10 -5 -71.5t-5 -71.5 q0 -4 -10 -43t-10 -50q0 -7 -16.5 -57t-24.5 -65l-10 -21l-31 -31q-41 -41 -51 -41q-31 -20 -41 -20h-11q-5 0 -25.5 15.5t-25.5 15.5l-31 30q-20 31 -30 41q0 4 -5.5 12t-10.5 14l-5 5l-8 31v41l-10 10q-4 4 -9.5 14.5t-8.5 18.5l-3 8v287q11 62 21 82l10 20l8 41q0 9 5 24 t11 26l5 11q20 31 30 41q0 5 26 26t26 26l20 41q0 4 5.5 9t10.5 8l5 3h102l10 -10l51 -62l11 -20l10 -31q0 -5 5 -36t5 -36q10 -41 10 -51v-184zM381 516q0 -11 5 -49.5t5 -42.5q10 -41 10 -51l11 -41l30 -41v-10h11l30 30q21 72 31 92q4 9 9.5 27t8.5 32l3 13q0 1 5 86 t5 109v123q0 4 -5 47.5t-5 54.5q-11 31 -11 41l-10 31l-10 10l-31 -10q-10 -11 -10 -21q-4 -4 -9.5 -17t-8.5 -23l-3 -11q-4 -16 -17 -64.5t-23.5 -87.5t-10.5 -43q-10 -112 -10 -163v-21zM250 373q8 0 8 -10.5t-8 -10.5t-8 10.5t8 10.5z" />
<glyph unicode="p" horiz-adv-x="845" d="M109 29v266l-11 10l11 31v51q0 31 15 307t15 307v103l11 20l20 21q21 20 31 20l41 21q5 0 25.5 15.5t25.5 15.5q4 4 14.5 9t18.5 8l8 3h102q5 0 41 -5t41 -5l21 -10l41 -11q41 -20 51 -20l20 -10q4 0 12 -5t13 -11l6 -5q9 -4 24 -19.5t30.5 -33t17.5 -19.5q31 -51 41 -71 l10 -21l10 -30q4 -9 9.5 -29.5t8.5 -36.5l3 -16v-205q0 -11 -5.5 -55t-5.5 -48q0 -5 -10 -30.5t-10 -30.5l-10 -10l-21 -31l-41 -51q-21 -11 -31 -21q-4 -4 -17 -11.5t-23 -13.5l-11 -5q-20 -11 -30 -11q-5 0 -20.5 -5t-20.5 -5t-31 -5t-31 -5h-51q-4 0 -9.5 -2.5t-8.5 -5.5 l-3 -2v-185l-10 -20q-4 -4 -37.5 -48t-44.5 -55l-10 -10l-20 -10q-5 0 -36 -5t-36 -5h-31l-102 10zM180 70l10 -11h72l31 11v204q0 5 -5 31t-5 31v20l10 11q5 0 30.5 5t30.5 5l31 10q5 0 36 5t36 5q9 0 47 12t45 19q21 21 31 21l20 20l31 51l20 31q21 51 21 61l10 41v144 q0 11 -5 49.5t-5 42.5q0 7 -11.5 42t-19.5 50l-10 20q0 4 -7.5 12t-15.5 13l-8 6q-5 0 -20.5 10.5t-20.5 10.5q-9 0 -59 11.5t-64 18.5q-5 0 -30.5 5.5t-30.5 5.5h-123q-4 0 -12 -3t-14 -5l-5 -3q-10 -20 -10 -30q0 -5 -5 -77t-5 -77t-5.5 -51t-5.5 -51v-31q0 -16 -5 -164 t-5 -164v-368zM293 459v215q0 22 5 127t5 119q0 5 5 30.5t5 30.5l11 20q31 31 41 31h30q5 0 31 -10t31 -10q31 -21 41 -31l71 -72l11 -20q0 -11 10 -49.5t10 -42.5v-62l-10 -51q0 -5 -5 -36t-5 -36q-11 -20 -11 -30l-10 -21l-41 -61l-20 -11l-31 -20l-21 -10l-30 -10 q-62 -11 -82 -11h-10q-10 0 -31 21zM436 930v-318h10l21 11l20 20l11 31l10 10v82l20 31v10l-10 41l-10 20l-62 62h-10z" />
<glyph unicode="q" horiz-adv-x="997" d="M59 551q0 7 10.5 99.5t10.5 115.5q10 41 10 51q0 5 5 20.5t5 20.5q7 14 19 54.5t12 48.5q31 72 41 92l10 20q5 5 20.5 31t20.5 31q4 8 20 27t29 35t13 20q18 15 84 81q20 21 30 21l31 10h184q31 -10 41 -10l31 -10l64 -31l102 -102l10 -21l10 -10l11 -21l20 -30 q0 -4 5.5 -14.5t10.5 -18.5l5 -8q3 -11 14 -41.5t19 -54t8 -27.5t5 -53t5 -60v-174q0 -5 -5 -36t-5 -36q0 -14 -16.5 -70.5t-24.5 -72.5l-21 -41q0 -5 -10 -30.5t-10 -30.5t-15.5 -31t-15.5 -31l-31 -41v-10l10 -31q0 -5 5.5 -20.5t5.5 -20.5v-10q-21 -52 -31 -72l-10 -20 q0 -5 -15.5 -25.5t-15.5 -25.5q-31 0 -53 -11q-4 0 -14.5 -5t-18.5 -10l-8 -5l-31 -31l-41 -30h-20l-21 10l-10 10l-10 31q0 4 -5.5 14.5t-10.5 18.5l-5 8q0 4 -5 9t-10 8l-5 3q-5 0 -36 5t-36 5l-41 11q-5 0 -36 15t-36 15l-32 11l-31 20l-21 10l-40 41l-52 62 q-4 4 -14.5 24.5t-22 46.5t-14.5 31q-10 31 -10 41q-4 14 -9.5 39.5t-8.5 44.5l-3 19v102zM563 100l10 -10l11 -51q0 -5 10 -20.5t10 -20.5l21 10l51 41l10 21v20q0 5 -15.5 31t-15.5 31l-10 30v21q0 5 20.5 30.5t20.5 30.5q8 8 19.5 26t11.5 25q0 5 10 20.5t10 20.5 q33 55 33 72l10 41l11 20q7 15 18.5 50t11.5 43q0 5 5 30.5t5 30.5q11 41 11 51v103q-11 41 -11 51q0 5 -10 36t-10 36l-10 41q0 5 -10.5 30.5t-10.5 30.5q0 8 -11.5 31t-18.5 30l-13 11l-10 20q-52 52 -72 62q-20 20 -30 20q-4 4 -14.5 9.5t-18.5 8.5l-8 3q-5 0 -31 5 t-31 5h-82l-30 -10l-136 -134l-10 -30l-20 -31l-21 -51l-10 -21l-10 -30l-21 -52l-10 -30q0 -10 -10 -61.5t-10 -61.5t-5.5 -61.5t-5.5 -61.5v-174q11 -41 11 -51q0 -5 10 -31t10 -31q8 -8 19.5 -31t11.5 -30l30 -31l11 -20l41 -41l53 -21q9 -3 46.5 -22t55.5 -19h21 q5 0 25.5 5t25.5 5h51zM244 602q0 5 10 71.5t10 71.5t5 46.5t5 46.5l11 30q9 24 32.5 70t30.5 53l31 31q51 31 61 41l21 10h71q5 0 20.5 -5t20.5 -5q4 0 14.5 -5.5t18.5 -10.5l8 -5l62 -61q21 -52 31 -72l10 -30v-236q0 -4 -5 -53t-5 -60l-11 -61q-20 -52 -30 -72 q0 -4 -5 -14.5t-11 -18.5l-5 -8l-20 -10l-31 -31h-31l-31 31l-10 21l-10 10h-10q-21 -10 -31 -10q-4 0 -9 -2.5t-8 -5.5l-3 -3v-10q0 -20 15 -56t15 -57v-10q-10 -10 -20 -10h-21l-41 10l-10 10l-41 31l-20 10l-11 11l-20 30q0 4 -6 14.5t-11 18.5l-6 8q-7 15 -18.5 50 t-11.5 43v153zM553 530l20 -20q5 0 20.5 -15.5t20.5 -15.5q0 5 10.5 31t10.5 31q0 11 10 65t10 58v143q-10 51 -10 61l-10 41q-11 21 -21 31l-10 10h-31l-20 -10l-61 -61q-21 -21 -21 -31l-10 -21l-10 -41l-11 -30q0 -11 -10 -44.5t-10 -37.5q0 -5 -5 -36t-5 -36t-5.5 -30.5 t-5.5 -30.5v-52q23 0 66 19t57 22h31z" />
<glyph unicode="r" horiz-adv-x="921" d="M92 1104l10 20l21 21l41 20l20 21q31 20 41 20l31 11l51 10l41 10h51q115 0 176 -20q4 0 12 -2.5t13 -5.5l6 -3l123 -61l31 -21l20 -20q51 -51 51 -62l11 -20q0 -7 11 -36.5t19 -45.5q0 -4 3 -12t5 -14l3 -5l10 -41v-82q-10 -20 -10 -30q0 -5 -15.5 -31t-15.5 -31 l-10 -10l-31 -41l-20 -20q-5 -5 -41 -31t-41 -31v-10q0 -7 23 -53t38 -70q5 -5 41 -56.5t41 -56.5q7 -7 13.5 -29.5t6.5 -31.5q-10 -62 -20 -82q-9 -28 -31 -72l-10 -10q-21 -10 -31 -10l-41 -10l-30 -11q-5 0 -41 -10t-41 -10h-11l-30 10l-11 10l-10 21q-9 18 -25 56.5 t-16 45.5l-10 41q-3 6 -20 51.5t-23 51.5q0 4 -15 28.5t-16 30.5v-254q-20 -10 -82 -72l-10 -30l-10 -11l-21 -10l-30 -10h-144l-20 20l-10 21q0 5 -5.5 41t-5.5 41v225q0 5 -5 71.5t-5 71.5v615zM195 111l10 -21h31q5 0 20 5t20 5v205q0 10 -5 77t-5 77l-10 20q10 31 20 41 l11 10h133q5 0 20.5 -5t20.5 -5l10 -10q0 -5 11.5 -36t11.5 -36l10 -20q0 -5 15.5 -36t15.5 -36t20 -41t20 -41t10.5 -41t10.5 -41l10 -10q0 -5 5 -25.5t5 -25.5h21q41 10 51 10l41 10l10 11v20q0 8 -11.5 31t-18.5 30q0 5 -20.5 31t-20.5 31l-11 20l-20 31q-5 5 -25.5 56.5 t-25.5 56.5q0 5 -15.5 30.5t-15.5 30.5v62q5 0 20.5 5t20.5 5l31 20l30 11l21 30l10 11q21 31 21 41q4 4 9 17t8 24l3 10v133q0 8 -6.5 26t-13.5 25q0 5 -20.5 30.5t-20.5 30.5l-11 21l-10 10l-20 10l-31 21l-51 10q-5 0 -31.5 10.5t-32.5 10.5q-5 0 -41 5t-41 5h-174 q-41 -20 -51 -41v-72q0 -5 5 -41t5 -41v-41q0 -5 -5 -35.5t-5 -35.5v-31l-10 -41v-41l10 -41q0 -5 5 -66.5t5 -66.5t5.5 -36t5.5 -36v-327zM266 930l10 51l31 31l21 10h10q5 0 36 -5t36 -5h41q5 0 21 -5.5t22 -5.5q5 -3 26 -14t36 -18.5t19 -7.5q21 -21 21 -31l10 -21 q0 -5 5 -25.5t5 -25.5v-51q0 -4 -5 -17t-10 -24l-5 -10l-10 -31l-11 -10l-40 -31q-5 0 -26.5 -25.5t-27.5 -25.5q-41 -21 -51 -21q-5 0 -25.5 -5t-25.5 -5h-62l-20 10q-10 31 -10 41q-21 193 -21 267v10zM420 807q0 -5 5 -36t5 -36l10 -10q5 5 37 20.5t37 20.5l10 10 q4 4 9.5 14.5t8.5 18.5l3 8v62l-10 20l-11 10q-7 7 -31 19t-32 12h-31l-10 -10v-123z" />
<glyph unicode="s" horiz-adv-x="944" d="M100 145v21q0 5 -10 30.5t-10 30.5q-10 31 -10 41l-11 49q0 5 5.5 31t5.5 31q0 4 5 14.5t10 18.5l5 8q8 8 36.5 24.5t35.5 16.5l10 10h72q5 0 31.5 -5t31.5 -5l10 -10l11 -21q0 -5 10 -41t10 -41l10 -31q0 -5 15.5 -24.5t15.5 -24.5q21 -30 31 -30l20 -11h31q21 11 21 21 q4 4 9 12t8 14l3 5v59q0 5 -10 25.5t-10 25.5v10l-11 11q-20 20 -30 20l-21 10q-7 4 -29 17.5t-40.5 24t-22.5 10.5l-10 10l-21 10q-15 15 -62.5 49.5t-62.5 42.5l-30 31l-11 20q0 4 -5 12t-10 13l-5 6l-10 10q-7 8 -19 31t-12 31q-7 7 -14 29.5t-7 31.5v103q11 29 11 39 q0 31 20 51q5 5 20.5 30.5t20.5 30.5l31 41l71 72q21 20 31 20q5 4 21 12t29 14l14 5q15 8 61.5 19.5t61.5 11.5q91 10 122 10h21l31 -10l51 -11l43 -10q5 0 25.5 -10t25.5 -10q4 0 14.5 -5.5t18.5 -10.5l8 -5q8 -8 26 -32.5t25 -38.5q8 -7 19.5 -31t11.5 -31q0 -4 5 -47.5 t5 -54.5v-80l-92 -103q-21 -10 -31 -10t-83 -5t-83 -5q-5 0 -41 -5t-41 -5l21 -21l51 -30q71 -62 94 -82l21 -21l20 -31q0 -5 20.5 -25.5t20.5 -25.5l21 -30l20 -41q0 -10 31 -41v-113q-10 -29 -10 -39q0 -4 -5 -19.5t-11 -28.5l-5 -13l-20 -31l-10 -31l-11 -20 q0 -4 -7.5 -12t-19 -17t-14.5 -12q-20 -21 -30 -21l-43 -20q-5 0 -26 -20.5t-26 -20.5q-7 -7 -35 -19t-36 -12h-41q-5 0 -46 -5t-46 -5h-21q-5 0 -36 5t-36 5l-30 10l-11 11l-22 10q-31 21 -41 31q-9 4 -24 17t-26 24l-11 10q-5 5 -26 35.5t-26 35.5zM131 328q0 -5 5 -40 t5 -40q11 -41 21 -51q0 -5 10 -20.5t10 -20.5q0 -4 5 -12t11 -14l5 -5l41 -41q5 -5 36.5 -20.5t36.5 -20.5q5 0 20.5 -5t20.5 -5h113q41 10 61 20l21 10q4 4 17 12t24 13l10 6l41 31q31 31 31 41q0 5 11 20.5t11 20.5v151q0 5 -6 20.5t-6 20.5q-3 5 -14.5 31.5t-22 47 t-14.5 24.5q0 5 -20.5 25.5t-20.5 25.5l-21 31q-31 20 -41 30q-4 0 -11.5 5t-12.5 11l-6 5q-10 5 -36 15.5t-36 15.5l-41 30q-41 52 -51 62q-42 65 -51 102l-11 41v49q0 5 10.5 41t10.5 41q10 21 20 21q4 4 19.5 14.5t29.5 18.5l13 8q51 10 61 10h31l51 -10l21 -21 q20 -41 30 -51q0 -5 10.5 -20.5t10.5 -20.5l10 -31q0 -9 5 -54.5t5 -55.5h72q6 0 27 5t26 5v72q0 5 -5 45t-5 45q-10 20 -10 30l-10 21q0 4 -5.5 12t-11.5 13l-6 6q-20 20 -31 20h-10l-31 21l-61 30h-174q-21 -10 -31 -10l-41 -31l-43 -10l-51 -51l-31 -41l-10 -10 q0 -5 -10 -20.5t-10 -20.5l-31 -80v-72l10 -31q0 -5 20.5 -30.5t20.5 -30.5l10 -20l21 -31l10 -10l20 -11l11 -10q14 -7 44.5 -29.5t39.5 -31.5q41 -21 51 -31q5 0 36 -20.5t36 -20.5q9 -9 31.5 -25t29.5 -16q31 -21 31 -31l20 -30q10 -21 10 -31q0 -5 10.5 -36t10.5 -36 v-10l-10 -29l-11 -41l-10 -30q0 -4 -5 -12t-10 -13l-5 -6q-31 -21 -41 -21l-31 -10l-41 -20h-20l-72 10q-5 0 -20.5 10t-20.5 10l-21 21q-5 4 -16 19.5t-19 28.5l-8 13q-10 52 -10 70v31h-92zM420 961q0 -5 5 -30t5 -30q21 -31 21 -41l10 -10q21 -41 31 -51l10 -21l20 -10 q0 5 5 20.5t5 20.5v102q0 5 -5 30t-5 30q-20 31 -20 41l-10 10h-21l-51 -10v-51z" />
<glyph unicode="t" horiz-adv-x="876" d="M47 1102l10 10q21 21 31 21q8 8 26 19t25 11l21 11h20l31 20q41 10 53 10q11 0 70 10.5t63 10.5h21q10 0 92 10t92 10h146l30 10h31q3 -7 19 -51.5t22 -50.5q0 -5 15.5 -30.5t15.5 -30.5v-21q-21 -31 -31 -41l-21 -20l-10 -21l-10 -10l-10 -21l-31 -20q-3 0 -47 -10 t-57 -10l-11 -11v-458q0 -15 11.5 -133t11.5 -134v-41l-12 -20l-41 -41l-31 -41l-10 -10l-21 -31q-21 -10 -31 -10q-5 0 -30.5 -5.5t-30.5 -5.5h-123l-20 21q-11 21 -11 31t-5 61.5t-5 61.5v102q0 10 -5 82t-5 82v10q0 5 -10.5 51t-10.5 51q0 2 -5 93.5t-5 109.5v62 q0 9 -3 21.5t-6 21.5l-3 8h-164l-20 10l-11 10v52q0 10 -5 87t-5 87v10zM377 90l10 -41h72l30 10v11q0 5 -5 41t-5 41v499q0 2 -5 58.5t-5 74.5q0 5 -5 51.5t-5 51.5v51l10 10l41 10q5 0 30.5 10.5t30.5 10.5q10 0 68 5t68 5v92q0 4 -2.5 12t-5.5 13l-3 6h-43q-5 0 -56 -5 t-56 -5t-72 -5t-72 -5l-51 -11q-11 0 -66 -10t-59 -10q-5 0 -41 -5t-41 -5t-20.5 -5.5t-20.5 -5.5v-10l11 -51l10 -21l10 -40h186q11 -21 11 -31q0 -5 5 -31t5 -31q0 -10 5 -87t5 -87q0 -5 5 -86t5 -86q0 -31 10.5 -195t10.5 -194z" />
<glyph unicode="u" horiz-adv-x="1124" d="M100 438q0 5 5.5 51.5t5.5 51.5v297q0 5 -5.5 56t-5.5 56q11 62 11 82l10 72l10 10l41 21q8 0 19.5 11.5t11.5 18.5q15 0 92 5.5t92 5.5h31l31 -11q0 -10 5 -66.5t5 -66.5v-31q0 -5 -5 -40.5t-5 -40.5v-400q20 -92 30 -123q0 -9 5.5 -24t10.5 -26l5 -11q31 -21 41 -21h10 q4 0 12 2.5t13 5.5l6 3l10 10q4 4 9 12t8 14l3 5q7 13 14 52t7 50v502q0 5 -5 20.5t-5 20.5v102l61 62q51 31 61 41l21 10h215l20 -10l21 -21q0 -4 5 -47.5t5 -54.5v-11q0 -5 5 -46t5 -46v-194q0 -5 5.5 -26t5.5 -26v-245q0 -5 -5.5 -20.5t-5.5 -20.5l-10 -51 q-10 -21 -10 -31l-10 -21l-11 -30l-61 -113q-21 -31 -31 -41l-30 -31l-31 -41l-41 -20l-10 -10l-21 -11l-51 -20l-20 -10q-5 0 -41 -10.5t-41 -10.5l-31 -10h-103q-10 0 -66.5 5t-66.5 5q-31 10 -41 10l-20 11l-10 10l-52 31l-71 71q0 5 -15.5 31t-15.5 31q0 4 -10 37.5 t-10 44.5q0 5 -5.5 30.5t-5.5 30.5v92zM346 80q10 0 66.5 -5t66.5 -5h133l31 10q5 5 36 25.5t36 25.5q9 4 24 19.5t30 33t17 19.5l41 82q11 20 11 30q30 93 30 113q0 5 5.5 41t5.5 41v543h-185v-52q0 -5 5.5 -66.5t5.5 -66.5v-358q-11 -72 -11 -92q0 -5 -5 -36t-5 -36v-51 l-31 -41l-20 -41q-31 -20 -41 -20q-5 0 -31 -5.5t-31 -5.5h-41l-40 11q-4 0 -14.5 10t-23 24.5t-14.5 16.5q-20 31 -20 41l-31 71q0 5 -5 51.5t-5 51.5t-5 30.5t-5 30.5v502q-62 10 -93 10h-40q-11 -21 -11 -31v-491q0 -5 -5 -46t-5 -46v-31q0 -37 21 -123q4 -9 9 -26.5 t8 -31.5l3 -13q20 -21 20 -31q0 -4 7.5 -12t15.5 -14l8 -5q52 -31 62 -41z" />
<glyph unicode="v" horiz-adv-x="983" d="M16 1128l31 21q5 0 25.5 20.5t25.5 20.5l21 10q14 7 39 14t35 7h51q5 0 30.5 -5.5t30.5 -5.5h10l31 -10q10 -10 10 -20q0 -4 3 -12t5 -14l3 -5q0 -5 5 -36t5 -36t5 -25.5t5 -25.5t5 -20.5t5 -20.5l11 -31l10 -53q0 -5 10 -36t10 -36q0 -9 5 -24t11 -26l5 -11l20 -20 q0 -5 5 -41t5 -41q11 -21 11 -31l10 -21q0 5 5 26t5 26q7 42 36 162t38 147l10 31q0 5 10.5 40.5t10.5 40.5l30 31q5 5 36 31t36 31l31 20l80 -14q62 -10 82 -10q5 0 30.5 -5.5t30.5 -5.5l10 -20v-41q0 -73 -20 -195v-22l-21 -41q0 -5 -10 -51.5t-10 -51.5q-10 -31 -10 -41 q0 -5 -10.5 -35.5t-10.5 -35.5l-10 -51l-10 -31q0 -5 -15.5 -51.5t-15.5 -51.5q-5 -16 -21.5 -51.5t-21.5 -50.5q0 -5 -10.5 -31.5t-10.5 -31.5l-10 -21l-10 -41l-10 -31q0 -5 -5.5 -30.5t-5.5 -30.5l-20 -10l-31 -11l-20 -10q-1 -1 -18.5 -24.5t-39.5 -42.5q-4 -3 -14 -5.5 t-18 -3.5l-9 -2q-10 0 -62 -5t-62 -5h-113q-18 27 -28.5 60t-19 78t-14.5 67q0 10 -28 101t-33 116l-10 31q0 5 -11.5 41t-11.5 41t-10 30.5t-10 30.5t-10.5 36t-10.5 36t-25.5 66.5t-25.5 66.5t-10 30.5t-10 30.5t-10.5 37t-10.5 37l-10 21l-10 51l-11 31v81zM98 1016 q5 -10 26 -78t26 -78l10 -41q0 -5 21.5 -51t21.5 -51q20 -52 20 -72l10 -41l11 -31q0 -5 10 -40.5t10 -40.5t20.5 -61.5t20.5 -61.5q0 -19 31 -115l10 -41l10 -51q0 -5 5.5 -20.5t5.5 -20.5l10 -31l20 -10h92q5 0 32 5t32 5l31 10l10 11l10 20q0 5 10.5 41t10.5 41t10 30.5 t10 30.5l10 21q7 17 19 56.5t12 47.5q0 5 5 41t5 41t10.5 31t10.5 31t10 41t10 41t10.5 25.5t10.5 25.5l71 215q0 5 5.5 21.5t5.5 21.5t5 41t5 41v20h-133l-41 -10q-10 -31 -10 -41q0 -5 -10.5 -52t-10.5 -52l-61 -256v-21q-11 -41 -11 -51q0 -5 -5 -20.5t-5 -20.5t-10 -36 t-10 -36q0 -4 -11.5 -42.5t-11.5 -49.5l-10 -53v-62l-10 -10h-31l-20 10q0 5 -15.5 47.5t-15.5 47.5l-10 41l-11 20q0 5 -10 71.5t-10 71.5t-5 26t-5 26q0 4 -2.5 11.5t-5.5 12.5l-3 6q0 5 -15 31t-15 31q0 10 -20.5 82t-20.5 82q0 4 -5.5 17t-10.5 23l-5 11l-10 33 q0 5 -10.5 46t-10.5 46q0 4 -5 14.5t-10 18.5l-5 8h-43q-5 0 -30.5 -5t-30.5 -5l-11 -11v-20z" />
<glyph unicode="w" horiz-adv-x="1693" d="M39 1042l31 31l30 21l11 10q5 5 30.5 20.5t30.5 20.5l21 10q5 0 30.5 5t30.5 5h20q11 0 44.5 -5t37.5 -5q5 0 20.5 -5t20.5 -5q4 0 9.5 -2.5t8.5 -4.5l3 -3v-41q0 -8 12 -43t19 -50q0 -4 5.5 -17t11.5 -24l5 -10l10 -28l11 -21l10 -31l10 -51q0 -5 10 -25.5t10 -25.5 l11 -41q0 -5 14 -43.5t16 -46.5q1 5 6 19.5t5 19.5t15 56t15 56l31 134l10 28l11 21q0 5 5 30.5t5 30.5t5 25.5t5 25.5l10 41q11 21 21 21q5 5 35.5 30.5t35.5 30.5l31 21h185q10 -11 10 -21q10 -20 10 -30l10 -41l10 -31l11 -41q0 -5 10 -31t10 -31q10 -41 10 -51t15.5 -86 t15.5 -86q0 -11 10.5 -54.5t10.5 -47.5q0 -11 10 -44.5t10 -37.5l10 -21l11 21q0 10 15 61.5t15 61.5q0 5 5.5 30.5t5.5 30.5t10 41t10 41l10 51l11 29l10 51l12 31q0 5 5 36t5 36q0 4 3 11.5l5 12.5l3 6q5 5 30.5 26t30.5 26l41 20l41 31h41q24 0 83 -5t60 -5 q41 -11 51 -21l11 -10v-21q-7 -34 -19 -129.5t-12 -105.5q0 -4 -15.5 -60t-15.5 -61t-10 -56.5t-10 -56.5q0 -8 -12 -48t-19 -54q0 -5 -10 -31t-10 -31l-11 -20l-10 -10q0 -5 -15.5 -46t-15.5 -46l-10 -21q0 -5 -20.5 -60.5t-20.5 -60.5q-3 -5 -14.5 -31t-22 -46.5 t-14.5 -24.5q-8 -15 -47.5 -55.5t-54.5 -47.5l-228 -30q-41 -10 -51 -10h-31l-20 10q-5 22 -46 149.5t-46 145.5q0 5 -10.5 35.5t-10.5 35.5l-10 11q-10 -52 -51 -152q-21 -41 -21 -51l-10 -51l-10 -41l-10 -21q0 -4 -8 -12t-16 -14l-7 -5q-9 -9 -32 -24.5t-30 -15.5 q-41 -11 -61 -11q-5 0 -51 -5t-51 -5l-54 -10h-20l-21 20q-42 64 -51 103l-10 41q0 5 -10.5 30.5t-10.5 30.5t-10 25.5t-10 25.5t-5 30t-5 30t-10.5 25.5t-10.5 25.5t-10 30.5t-10 30.5t-10.5 26t-10.5 26l-10 40q-7 37 -35.5 133.5t-36.5 112.5q-4 8 -19.5 62.5t-21.5 60.5 q0 8 -17 45.5t-24 44.5l-20 31v20zM141 1001v-10q11 -31 11 -41q7 -14 18.5 -53t11.5 -47l11 -21q0 -5 10 -30.5t10 -30.5t10 -41t10 -41l11 -20l10 -41l10 -31q21 -41 21 -51v-11l10 -20q0 -5 10 -41t10 -41t20.5 -56.5t20.5 -56.5t10.5 -29.5t10.5 -29.5q0 -4 5 -17 t10 -23l5 -11l11 -31q0 -5 15 -30.5t15 -30.5l11 -31l22 -10h82q5 0 20.5 5t20.5 5q0 5 10 30.5t10 30.5l11 41l10 21l10 41q0 5 10.5 30t10.5 29l10 51q20 42 20 52l11 20l10 31q20 41 20 51q0 4 10.5 47.5t10.5 54.5q0 10 5 56.5t5 56.5l20 21h41q7 0 19 -12t12 -19 q0 -5 10.5 -41t10.5 -41t15 -31t15 -31t10.5 -30.5t10.5 -30.5q0 -9 12 -59t19 -64l10 -51l10 -39q0 -5 10.5 -51t10.5 -51q0 -11 10 -44.5t10 -37.5t2.5 -9.5t5.5 -8.5l2 -3l31 10q52 11 72 11q5 0 41 5t41 5l10 10q64 144 84 203q0 5 10 36t10 36l10 20l11 41q0 5 15 46 t15 46l11 51l10 21q0 4 10 37.5t10 44.5l11 51l10 20q5 10 30.5 101.5t30.5 101.5q0 5 15.5 46t15.5 46h-82l-92 -10l-10 -10l-31 -123l-10 -49q0 -5 -15.5 -61.5t-15.5 -61.5t-11 -51t-11 -51t-10.5 -36t-10.5 -36l-10 -51l-10 -41q-7 -15 -24 -65.5t-17 -57.5 q0 -5 -10.5 -20.5t-10.5 -20.5l-10 -10h-21l-41 10l-10 10l-10 21q-5 15 -25.5 101.5t-25.5 102.5l-10 31q0 10 -15.5 61.5t-15.5 61.5l-10 51l-11 31q0 5 -15 76t-15 76l-11 40q0 5 -5 31t-5 31l-10 10h-62q-5 0 -40.5 -5t-40.5 -5q0 -37 -21 -102q0 -5 -10 -30t-10 -30 q0 -10 -20.5 -97t-20.5 -97q0 -5 -10.5 -31t-10.5 -31q-10 -41 -10 -51q0 -5 -5 -36t-5 -36t-15.5 -46t-15.5 -46t-5 -36t-5 -36q0 -4 -3 -9t-5 -8l-3 -3h-30l-11 10q0 5 -15 31t-15 31l-10 30q-43 86 -43 103l-21 41l-20 51q0 5 -15.5 30.5t-15.5 30.5l-10 31l-21 41 q0 5 -10 25.5t-10 25.5l-62 182l-10 11h-92z" />
<glyph unicode="x" horiz-adv-x="929" d="M471 279q-4 -4 -14.5 -24.5t-22 -47t-14.5 -31.5l-10 -31q-21 -31 -31 -41q-3 -3 -12 -14.5t-17 -19t-12 -7.5l-21 -10l-41 -10l-40 -20h-115q-21 10 -31 10l-20 10v10q9 32 23 63.5t38 75t31 56.5q5 5 26.5 55t26.5 55q3 6 14.5 26.5t19 36t7.5 19.5l10 11l21 51 q0 5 15 30.5t15 30.5v10l-10 31q-105 210 -114 225q0 5 -20.5 46t-20.5 45q-32 65 -62 112l-31 41l-10 21v30q11 21 21 31l20 21q5 0 20.5 15t20.5 15h115q5 0 35.5 -5t35.5 -5l11 -10l10 -21l20 -20q21 -31 21 -41q0 -5 15.5 -36t15.5 -36q5 -5 20.5 -41t20.5 -41 q20 -20 20 -30l10 -9l13 9l20 41q0 5 20.5 35.5t20.5 35.5q20 41 20 51l11 31l71 72l41 10l31 10h10l54 -10q5 0 40.5 -5t40.5 -5l31 -10l10 -11l11 -20v-21l-21 -41q0 -8 -12 -36t-19 -35q0 -4 -5 -17t-10 -23l-5 -11q0 -5 -10 -30t-10 -30q0 -4 -10.5 -24.5t-24.5 -46 t-17 -31.5l-22 -31q-8 -8 -19.5 -26t-11.5 -25l-20 -41l-11 -10q-4 -4 -9 -14.5t-8 -18.5l-3 -8v-62q0 -5 10 -35.5t10 -35.5l11 -11l20 -41l21 -20l10 -41l10 -10q0 -5 16.5 -30.5t16.5 -29.5q5 -5 35.5 -61.5t35.5 -61.5l11 -20v-10l-11 -62q0 -4 -5 -17t-10 -23l-5 -11 q-10 -10 -20 -10l-31 -10q-4 0 -43.5 -5.5t-50.5 -5.5h-52q-4 0 -11.5 3t-13.5 5l-5 3l-21 20q-20 21 -20 31q-5 5 -25.5 46t-25.5 46l-21 31q-5 5 -21.5 41t-21.5 41zM440 440l31 -10l23 -51l61 -121q0 -5 25.5 -46t25.5 -46t15.5 -31t15.5 -31q0 -7 11.5 -13.5t19.5 -6.5 h82l10 10q0 5 -15.5 36t-15.5 36l-10 31l-10 10q-21 31 -21 41l-20 51l-11 18q0 5 -25.5 46.5t-25.5 46.5l-10 20l-10 31q0 4 -5 14.5t-11 18.5l-5 8l-61 61v62q0 5 20.5 35.5t20.5 35.5l82 164q0 5 20.5 30.5t20.5 29.5l10 20l20 31q5 5 20.5 46t20.5 46v10h-82 q-10 -21 -20 -31q-8 -17 -43 -78t-49 -83l-21 -41q0 -5 -15 -26t-15 -26t-21.5 -46t-21.5 -46l-11 -10h-30q-21 21 -21 31q-5 5 -36 71.5t-36 71.5q0 5 -20.5 35t-20.5 35q0 12 -40 92l-11 31l-10 20l-10 10h-43l-31 -10v-10q0 -7 11.5 -25t19.5 -26l31 -41q25 -42 94 -183 q0 -5 20.5 -46t20.5 -46q3 -6 14.5 -26.5t19 -36t7.5 -19.5l10 -10q0 -4 5 -12t10 -14l5 -5v-10q-2 -4 -7.5 -16t-9.5 -20t-10.5 -18t-13.5 -17l-10 -11q0 -5 -15.5 -35.5t-15.5 -35.5q-7 -7 -18.5 -30.5t-11.5 -31.5l-11 -10q0 -5 -20 -45t-20 -45t-21.5 -36t-21.5 -36 l-21 -51l-10 -10l-10 -21h63q21 11 21 21l102 202l10 11q5 5 25.5 51t25.5 51l11 10h30z" />
<glyph unicode="y" horiz-adv-x="964" d="M293 29v10q0 27 2.5 86t5 108t2.5 52q0 5 5 71.5t5 71.5v51q0 5 -15 31t-15 31q-7 7 -19 34t-12 35q0 4 -18.5 54t-42 113.5t-31.5 88.5l-10 31l-11 41q0 5 -10 30.5t-10 30.5q0 4 -5.5 17t-10.5 24l-5 11q0 5 -20.5 25.5t-20.5 25.5v41q11 20 21 20q31 21 41 21l31 10 q5 0 30.5 5t30.5 5h72q31 -10 41 -10t30 -20q0 -4 5 -12t11 -14l5 -5q20 -52 20 -62l11 -41l10 -30l10 -21l10 -10l10 -51q0 -8 12 -31t19 -31q0 5 15.5 31t15.5 31t15.5 35.5t15.5 35.5l10 21q0 5 15.5 51t15.5 51l10 31l31 10l10 21l20 20q5 0 31 10.5t31 10.5h20l51 -11 q5 0 41 -5t41 -5l21 -20l41 -10l10 -11v-41q0 -5 -15.5 -35.5t-15.5 -35.5l-10 -31q0 -5 -15.5 -25.5t-15.5 -25.5l-20 -51l-21 -31l-10 -31q0 -7 -11.5 -30t-19.5 -31q0 -5 -15 -26t-15 -26t-10.5 -20.5t-10.5 -20.5l-10 -30q0 -5 -25.5 -50.5t-25.5 -50.5l-10 -30 q0 -11 -5.5 -55t-5.5 -48v-123q0 -10 -5 -81.5t-5 -81.5l-10 -21q-31 -41 -41 -51l-10 -10l-11 -21l-20 -20l-10 -21l-11 -10q-14 -7 -43.5 -14t-38.5 -7h-122l-21 11q-10 31 -10 41zM385 479q0 -5 -5 -30.5t-5 -30.5q0 -19 -10.5 -144.5t-10.5 -152.5v-72h62q5 0 20.5 5 t20.5 5q0 10 10 67t10 67q0 5 5 40.5t5 40.5t5.5 31t5.5 31q0 10 5 87t5 87q0 9 6.5 31.5t13.5 29.5q21 21 21 29l10 10l10 31l21 31q7 23 46.5 102t55.5 103q0 10 41 92q0 5 10.5 25.5t10.5 25.5l10 31v10q-5 0 -31 10t-31 10h-10q-5 0 -30.5 -5t-30.5 -5q0 -11 -2 -22 t-4.5 -18.5t-7.5 -20.5t-7 -21l-10 -20l-10 -11l-10 -20q-7 -7 -19 -35.5t-12 -36.5l-10 -30q-21 -42 -21 -52l-10 -41q-5 -5 -25.5 -40.5t-25.5 -40.5q-21 -11 -31 -11l-20 21q-5 10 -20.5 56t-20.5 56q0 5 -20.5 46.5t-20.5 46.5t-20.5 56t-20.5 56t-10.5 25.5t-10.5 25.5 q0 4 -2.5 9.5t-5.5 8.5l-2 3h-92q5 -10 25.5 -71.5t25.5 -71.5l10 -52q0 -5 15.5 -35.5t15.5 -35.5l10 -31q21 -41 21 -51q0 -5 10 -31t10 -31q2 -4 14.5 -30.5t22.5 -46t14 -23.5l21 -21l10 -20v-31z" />
<glyph unicode="z" horiz-adv-x="911" d="M504 889l-21 10h-331v236q10 20 20 20q21 21 33 21q4 4 17 11.5t24 12.5l10 6q5 0 36 5.5t36 5.5h176q9 0 78 -5.5t86 -5.5q16 0 88 -10t88 -10q0 -5 10 -20.5t10 -20.5q10 -21 10 -31l11 -41v-92l-11 -10q-89 -138 -102 -164l-20 -41l-23 -31l-10 -10q-7 -14 -35.5 -54 t-36.5 -48l-10 -21q0 -4 -5.5 -12t-10.5 -14l-5 -5l-20 -20l-21 -41l-20 -21q-20 -20 -20 -30l-11 -21l-10 -10l-10 -20l-10 -11l-33 -41l-31 -30l-10 -21v-10h217q5 0 62.5 -5t62.5 -5h20l21 -11q10 -31 10 -41v-102l-115 -113h-247q-5 0 -61.5 -5t-61.5 -5h-228 q-9 0 -30 21l-11 20v164q11 31 21 41q9 9 25 31.5t16 29.5l41 41l20 31l11 10q10 8 26.5 31.5t16.5 30.5l20 41l20 20q0 5 20.5 31t20.5 31l31 41l21 30q5 5 35.5 46t35.5 46q21 52 31 62q8 7 20.5 35.5t12.5 36.5v10zM514 735l-10 -10l-21 -41q-7 -5 -28 -36.5t-25 -35.5 l-72 -71l-30 -52q0 -5 -20.5 -25.5t-20.5 -25.5l-21 -41l-10 -10l-10 -20l-31 -31l-10 -21q-10 -8 -42 -51.5t-32 -50.5q-7 -14 -13.5 -59t-6.5 -64h278q20 0 123.5 5t124.5 5q0 5 5 20.5t5 20.5v11h-176q-10 0 -87 -5.5t-87 -5.5h-21l-20 21v51l10 20q31 42 41 52l10 10 q21 25 52 81.5t51 82.5q127 168 135 184l20 21l21 30q5 5 36 72t36 72q20 20 20 30l10 11q0 5 10.5 20.5t10.5 20.5t5 20.5t5 20.5v71q0 4 -2.5 9.5t-4.5 8.5l-3 3h-21q-34 0 -109 -5.5t-118 -5.5h-10q-5 0 -56.5 5.5t-56.5 5.5h-133v-82h371l30 -31z" />
<glyph unicode="{" horiz-adv-x="647" d="M31 330q0 5 -5.5 41t-5.5 41v163l11 21l10 31l10 10l31 10q4 0 14.5 5.5t18.5 10.5l8 5l31 61q10 21 10 31q10 31 10 41q39 160 39 184q0 5 10 55.5t10 55.5t5.5 20.5t5.5 20.5l10 30l10 41q0 8 12 31t19 31l10 10l41 51l10 10l21 11q5 0 25.5 20.5t25.5 20.5l21 10 l51 20l20 11q13 7 51.5 13.5t49.5 6.5h133l10 -20q0 -5 5 -31t5 -31v-51l-10 -31q-5 -5 -20.5 -30.5t-20.5 -30.5l-41 -41q-5 0 -36 -5t-36 -5q-36 -45 -50.5 -106.5t-21.5 -140t-18 -120.5q0 -15 -11.5 -61.5t-19.5 -61.5q0 -5 -10 -30.5t-10 -30.5q-5 -15 -25.5 -41 t-25.5 -41l41 -41q9 -9 25 -32t16 -30q0 -5 10 -25.5t10 -25.5v-305q10 -31 10 -41l11 -20l10 -11l20 -10q40 -10 50 -10q5 0 30.5 -5t30.5 -5l10 -11q21 -42 21 -61q0 -5 5 -31t5 -31v-61l-10 -20l-11 -11l-30 -41l-21 -20l-30 -21q-4 0 -52 -10t-59 -10h-41q-5 0 -41 5 t-41 5l-31 10q-31 21 -41 31q-3 3 -14.5 12t-19 17t-7.5 12l-10 21l-10 30l-10 21l-11 41l-10 30q0 5 -5 51.5t-5 51.5t-5 30.5t-5 30.5t-4 50.5t-4 50.5t-10.5 30.5t-10.5 30.5q-4 4 -12 19.5t-14 29.5l-5 13q-20 20 -30 20q-5 0 -36 10t-36 10zM621 1331q-70 0 -101 -10 l-41 -10q-5 0 -20.5 -10.5t-20.5 -10.5l-20 -20l-31 -21l-10 -10q-42 -65 -51 -102q-8 -24 -19.5 -70t-11.5 -53q-10 -50 -10 -70q0 -10 -10.5 -87t-10.5 -87q0 -5 -5 -30.5t-5 -30.5t-10.5 -36t-10.5 -36l-10 -41l-10 -21l-10 -10q-4 -5 -50 -25.5t-51 -25.5l-10 -10v-123 q11 -10 21 -10l41 -11l20 -10q4 0 11.5 -8t12.5 -16l5 -7q20 -30 20 -40l10 -31q21 -41 21 -51q0 -7 10 -83.5t10 -99.5v-61q11 -31 11 -41l10 -31l10 -51l10 -10l21 -41q21 -31 31 -31l20 -10l31 -10h82q5 0 35.5 10t35.5 10v72l-10 30q-11 0 -48 7t-44 14q-4 0 -12 7.5 t-17 19t-12 14.5q-8 8 -24.5 41t-16.5 41q0 5 -5 30.5t-5 30.5q0 10 -5 127t-5 127q0 5 -5.5 25.5t-5.5 25.5q-20 31 -20 41q0 4 -5 12t-11 13l-5 6q0 4 -5 9.5t-10 8.5l-5 3q-5 0 -31 10t-31 10l-10 10v41l31 31q5 5 25.5 30.5t25.5 30.5l10 21l21 20l10 21l21 20 q20 42 20 52l10 41q0 2 5.5 53t5.5 69q0 10 5 86t5 86q10 42 10 52l10 30l11 21l40 41q4 4 19.5 12t36 17t26.5 12l39 10l11 10v41z" />
<glyph unicode="|" horiz-adv-x="401" d="M96 -127v10q0 5 -5 77t-5 77v82q0 49 -10 284t-10 269q0 9 -5.5 72.5t-5.5 80.5q0 5 -5 51.5t-5 51.5t-5 71.5t-5 71.5t-5 51.5t-5 51.5v102q10 21 51 41l20 10l41 31q5 0 20.5 10t20.5 10h21q5 0 51 -5t51 -5h10l41 -72q10 -338 10 -481v-72q0 -31 20.5 -307.5 t20.5 -306.5v-102q0 -5 -20.5 -31t-20.5 -31t-10 -30.5t-10 -30.5l-31 -31l-20 -10l-154 -10zM106 1092q0 -5 5.5 -51.5t5.5 -51.5q0 -10 5 -87t5 -87t10 -128t10 -128v-113q0 -20 5.5 -209t5.5 -210v-21l10 -82h92l21 21q10 81 10 112v11q0 5 -10.5 30.5t-10.5 30.5 q0 1 -5 75.5t-5 98.5q0 21 -5 195t-5 194q0 5 -5 51.5t-5 51.5q0 31 -10.5 220.5t-10.5 219.5h-61q-5 0 -26 -5t-26 -5v-133z" />
<glyph unicode="}" horiz-adv-x="776" d="M248 514q0 5 10 20.5t10 20.5l21 20v21l-10 20l-11 11q-8 8 -19 26t-11 25q-11 21 -11 31q0 5 -5 30.5t-5 30.5v10q0 11 5 55t5 48q0 5 5.5 35.5t5.5 35.5v82q-21 40 -31 60q0 4 -5.5 11.5t-10.5 12.5l-5 6q-33 11 -43 11h-71q-21 10 -31 20l-10 10q0 10 -5.5 61.5 t-5.5 61.5v113l21 20q5 5 41 26t41 26h31q5 0 31.5 -10.5t31.5 -10.5q5 -3 31 -14.5t46.5 -22t24.5 -14.5l21 -21q20 -20 20 -30q5 -5 31 -51.5t31 -51.5l10 -10q0 -5 10.5 -30.5t10.5 -30.5t5 -31t5 -31l10 -51q0 -5 10.5 -60.5t10.5 -60.5t10 -20.5t10 -20.5 q21 -20 33 -20l31 -11q10 0 56 -5t56 -5q21 -21 21 -31t5 -81.5t5 -81.5v-72q-7 0 -31 -12t-31 -19l-20 -20l-41 -21l-20 -30l-21 -21q-10 -21 -10 -31q0 -5 -6 -30.5t-6 -30.5q0 -10 -5.5 -112t-5.5 -111q0 -5 -5 -26t-5 -26v-61q0 -5 -5 -36t-5 -36q0 -8 -12 -41.5 t-19 -40.5q0 -8 -12 -24.5t-19 -16.5q-72 -51 -92 -61l-20 -10q-15 -8 -50 -19.5t-42 -11.5q-5 0 -31.5 -5t-32.5 -5q-4 0 -47.5 -5t-54.5 -5h-11q-4 4 -17 9t-24 8l-10 3v215l10 10q5 0 31 5.5t31 5.5q7 0 29.5 16t31.5 25l64 61l10 20q0 5 10.5 30.5t10.5 29.5q0 5 5 30.5 t5 30.5v287zM92 -150l10 -30h52q5 0 26.5 10t26.5 10l20 21h31q41 31 51 41l31 30q10 21 10 31q4 9 9.5 29.5t8.5 36.5l3 16q0 4 5 53t5 60v141q10 41 10 61q0 11 10.5 55t10.5 48l10 31q0 7 16 29.5t25 31.5l20 20q4 0 12 5.5t13 10.5l6 5l33 10l20 10l11 11v30 q0 5 -5.5 41t-5.5 41l-32 11q-5 0 -31 5t-31 5t-20.5 10t-20.5 10l-51 51l-10 21q0 4 -2.5 12t-5.5 14l-3 5q0 5 -5 35.5t-5 35.5t-5 55.5t-5 55.5q-19 118 -41 184l-10 21q0 4 -5.5 11.5t-10.5 12.5l-5 6l-10 11q-4 4 -19.5 11.5t-28.5 13.5l-13 5h-95l-10 -10v-112h41 l41 -11q8 0 26.5 -11t26.5 -19q3 -3 14.5 -12t19 -17t7.5 -12q41 -82 41 -93v-110q0 -5 -5 -41t-5 -41v-123q0 -5 10 -20.5t10 -20.5q0 -4 5.5 -12t10.5 -14l5 -5l61 -61v-21l-10 -20l-10 -10l-31 -21l-20 -20v-154q0 -18 -5.5 -79.5t-5.5 -63.5q0 -9 -11.5 -58t-18.5 -63 q0 -5 -10.5 -25.5t-10.5 -25.5q0 -7 -16 -30t-25 -32l-10 -10q-10 -5 -62.5 -41t-62.5 -41v-31zM567 514q-7 0 -7 -10t7 -10t7 10t-7 10z" />
<glyph unicode="~" horiz-adv-x="1392" d="M141 465l-10 10q0 5 -20.5 30t-20.5 30l-10 10q-3 6 -14.5 26.5t-19 36t-7.5 19.5v20q0 5 10 25t10 24l11 11q8 15 31 50t30 42l21 41l20 20q31 19 41 19l102 41h297q82 -21 113 -31l31 -10q5 0 35.5 -9.5t35.5 -9.5l21 -10q5 0 25.5 -5t25.5 -5h41q41 10 51 20 q5 0 31 14.5t31 14.5t25.5 15.5t25.5 15.5l20 10l41 31h21l41 -11l123 -121v-20l-11 -82q-10 -31 -20 -39l-10 -10l-21 -31l-31 -41l-61 -61q-4 -4 -47.5 -31.5t-54.5 -38.5l-21 -10q-5 0 -36 -10.5t-36 -10.5q-11 0 -54.5 -10t-47.5 -10h-41q-8 0 -64.5 12t-78.5 19 q-5 0 -41 10t-41 10l-31 10q-9 4 -27 9.5t-31 8.5l-14 3h-245q-42 -11 -62 -21q-5 0 -25.5 -10t-25.5 -10h-31zM469 586q5 0 36 -5.5t36 -5.5l41 -10q5 0 66.5 -15t66.5 -15l30 -11q5 0 41 -5t41 -5h174q28 9 93 51q4 0 11.5 5.5t12.5 10.5l6 5l21 20l51 62q9 9 21.5 29 t20.5 35l9 16v10l-61 61h-10q-6 -3 -26.5 -12t-36 -17t-19.5 -12l-21 -20q-21 -10 -31 -10q-9 -4 -29 -9.5t-36 -8.5l-16 -3h-195q-41 10 -51 10q-5 0 -31 10.5t-31 10.5l-41 10l-20 10q-5 0 -36 5t-36 5h-102q-5 0 -31 -5t-31 -5q-9 0 -47 -11.5t-45 -18.5l-10 -11l-31 -20 l-41 -29q-5 -5 -25.5 -30.5t-25.5 -30.5v-31l21 -31l20 -10q5 0 41 10t41 10t30.5 5.5t30.5 5.5h154z" />
<glyph unicode="&#xa1;" horiz-adv-x="653" d="M561 113q0 -11 -20 -31l-31 -21l-10 -10l-41 -51l-10 -10q-42 -10 -52 -10l-61 -11h-21q-5 0 -56 5.5t-56 5.5h-51l-21 10q-10 20 -10 30v154q0 8 12 83t19 112q10 41 10 51q0 5 5 61.5t5 61.5q0 15 10.5 97t10.5 97q0 5 10 20.5t10 20.5l10 31l10 20l11 11l20 41 q41 10 51 20l62 21h82q0 -5 10 -20.5t10 -20.5l10 -52q0 -5 15.5 -51t15.5 -51q0 -10 5 -92t5 -92q0 -5 5.5 -31t5.5 -31q0 -3 2.5 -44t5 -90t2.5 -71v-30q0 -5 5 -61.5t5 -61.5v-10zM438 758l-10 30q0 4 -5 17t-10 24l-5 11l-11 10h-20q-5 0 -25.5 -10.5t-25.5 -10.5 l-11 -10q0 -5 -5 -20.5t-5 -20.5v-368q0 -16 -10 -134t-10 -133v-10l10 -10h154l30 10v41q0 5 -5 71.5t-5 71.5q0 10 -5 97.5t-5 97.5q0 20 -10.5 123t-10.5 123zM438 1229q0 -11 5.5 -55t5.5 -48q0 -5 5 -25.5t5 -25.5v-51q-31 -41 -41 -61l-10 -11q-11 0 -55 -5t-48 -5 q-5 0 -30.5 -5t-30.5 -5h-82l-21 10q-10 11 -10 21l-10 30q0 4 -5 58t-5 65v51q0 5 20.5 26t20.5 26l20 30q16 0 92 5.5t92 5.5h41q21 -11 31 -21zM377 1116q0 5 -5 36t-5 36h-41l-93 -10l-10 -103l10 -10h72q5 0 25.5 5t25.5 5q4 0 9.5 2.5t8.5 4.5l3 3v31z" />
<glyph unicode="&#xa2;" horiz-adv-x="880" d="M276 -219v61q0 26 5.5 83t5.5 91l-146 144q-20 20 -20 30q-47 92 -62 185l-10 51v72v61q11 72 21 92q0 9 5 27t10 32l5 13q0 4 7.5 19.5t19 36t14.5 26.5q4 4 12 17t13 24l6 10q15 13 135 133q41 31 61 41l21 10q10 21 10 31q0 2 10.5 53.5t10.5 69.5q0 5 5 36t5 36 l84 82l31 20h10l30 -10q5 0 62.5 -10.5t62.5 -10.5l31 -10q9 -7 12 -27t0 -38q-12 -60 -12 -78l-10 -51l-10 -41v-31v-21l20 -20q5 -5 20.5 -41t20.5 -41q0 -5 10.5 -30.5t10.5 -30.5t5 -36t5 -36l10 -31v-20v-21l-61 -92q-10 0 -57.5 -5t-57.5 -5q-9 0 -32 -10.5t-40 -10.5 q-9 0 -30 21q0 5 -5.5 46t-5.5 46t-10 30.5t-10 30.5l-10 11q-12 6 -21 0l-10 -11q0 -5 -10.5 -20.5t-10.5 -20.5l-12 -41q0 -5 -15.5 -46t-15.5 -46t-5 -35.5t-5 -35.5v-72v-72q10 -31 10 -41l11 -30v-11q0 -5 10 -25.5t10 -25.5l12 -10l11 10q0 5 10 25.5t10 25.5t5 20.5 t5 20.5t5.5 36t5.5 36l10 20l51 31q5 0 20.5 15.5t20.5 15.5h61h54q20 -10 30 -10l21 -11l20 -20l11 -21v-51v-51q0 -11 -5.5 -44.5t-5.5 -37.5q0 -8 -17 -41t-24 -41q0 -8 -28 -36t-45 -35l-21 -11l-10 -20q0 -10 -5 -77t-5 -77q0 -11 -5.5 -54.5t-5.5 -47.5 q-16 -10 -36 -51.5t-35 -51.5h-72h-74l-112 11l-11 10v41zM121 477v-82q0 -5 10 -41t10 -41q59 -118 64 -123q0 -4 17.5 -22t43.5 -41.5t31 -28.5l41 -30l10 -11l10 -20v-236q61 -20 84 -20h52v297l10 10l51 31q3 3 17 14.5t24 22t10 14.5q4 4 14.5 24.5t22 46.5t14.5 31 q11 52 11 62v20v11l-21 10h-41h-41l-10 -10q0 -5 -5 -31t-5 -31l-10 -41l-11 -10l-10 -31l-10 -20q-21 -31 -31 -31l-20 -10h-23h-20q-4 0 -19.5 7.5t-36 19t-26.5 14.5l-11 10q-5 5 -20.5 41t-20.5 41q-10 21 -10 31l-10 41q0 5 -5 46t-5 46v30v21q0 5 5 46t5 46l10 51 q5 10 25.5 66.5t25.5 66.5l21 31q2 2 17 19t27.5 30t16.5 13q20 10 54 10l41 -10q4 0 14.5 -5.5t18.5 -10.5l8 -5q30 -21 30 -31l10 -20q0 -5 10.5 -36t10.5 -36l10 -31h10h21q5 0 26 5.5t27 5.5l10 10v10v10q0 11 -5 44.5t-5 37.5q-12 21 -12 31q0 5 -10.5 20.5t-10.5 20.5 q0 4 -5 12t-10 13l-5 6l-41 41l-10 20v21q0 26 10 82t10 82v20q-5 0 -30.5 5t-30.5 5h-31h-31l-10 -10q-5 -31 -10 -92.5t-10 -91.5l-11 -11q-3 0 -4 -0.5l-4 -2t-5 -3t-9 -6.5l-14 -10l-48 -29l-20 -20l-31 -21q-31 -20 -31 -30l-40 -52l-11 -10q0 -7 -11 -25t-19 -26 q0 -4 -5.5 -14.5t-11.5 -18.5l-6 -8q0 -4 -15.5 -42.5t-15.5 -49.5q-7 -14 -13.5 -43.5t-6.5 -38.5v-72z" />
<glyph unicode="&#xa3;" horiz-adv-x="1177" d="M37 133v21q0 5 10 30.5t10 30.5l11 10l20 11q4 0 12 5t14 10l5 5q41 41 41 51l20 51q0 5 15.5 31t15.5 31l10 31q-10 0 -56 5t-56 5q-31 10 -41 10l-31 10l-10 21v61q0 82 20 123l21 31l10 20q107 21 153 21l11 10q0 5 10 46t10 46t20.5 72t20.5 72l10 40q5 10 20.5 61.5 t20.5 61.5l11 21q0 4 5 12t10 14l5 5l31 30q1 1 17.5 12.5t33.5 28.5q62 32 94 37l60 4h71h72q5 0 20.5 -5t20.5 -5q4 -4 19.5 -12t28.5 -13l13 -6l92 -92q31 -31 31 -41q21 -52 31 -72q4 -4 9 -17t8 -24l3 -10q0 -5 10.5 -35.5t10.5 -35.5l10 -31q0 -6 -1 -11.5t-4 -16.5 t-5 -23l-21 -31l-20 -41q0 -4 -5 -12t-11 -13l-5 -6l-30 -20q-5 0 -41 -5t-41 -5l-68 -9l6 -28v-35v-72v-82l-10 -10q-4 -4 -17 -12t-24 -14l-10 -5q-2 0 -48.5 -10t-64.5 -10q-5 0 -41 -5t-41 -5q0 -5 -5 -20.5t-5 -20.5v-52v-51q21 -20 31 -20q5 0 41 -10.5t41 -10.5h30 h31q42 10 62 10l51 11q5 0 25.5 10t25.5 10l31 21l20 10h31h20l82 -41q4 0 12 -5.5t13 -10.5l6 -5l31 -30q10 -52 10 -72v-31v-20l-10 -21l-41 -30v-21l-31 -20l-20 -31q-21 -20 -31 -20l-72 -31h-61h-82l-51 10q-16 5 -52 10.5t-51 10.5l-20 10q-5 0 -36 5t-36 5h-72h-71 q-11 0 -39.5 -5t-32.5 -5t-22.5 -13t-40 -29t-29.5 -20l-82 -71l-20 -11q9 0 -11 11l-30 30q-21 73 -31 93l-10 40q0 5 -15.5 46.5t-15.5 46.5v20zM129 92v-10l10 -62q0 -5 10.5 -20t10.5 -20h10l20 20q5 5 41 20.5t41 20.5q5 0 31 10t31 10q41 11 51 11l61 10h31h41 q5 0 41 -5t41 -5t20.5 -5.5t20.5 -5.5t25.5 -10t25.5 -10q13 -7 52.5 -14t50.5 -7h61h72q20 11 30 11l11 10l20 10l51 82q2 7 2 17q-34 34 -43 34q-4 0 -11.5 3t-13.5 5l-5 3l-123 -62h-471l-21 10v21v41q31 71 41 102l21 41q10 42 10 62q0 5 5 35.5t5 35.5v11l10 30 q10 0 56.5 5t56.5 5q5 0 36 5.5t36 5.5l51 10l10 10v72h-123q-10 0 -66.5 5t-66.5 5q0 10 -5 71.5t-5 71.5v62v51q0 5 5 31t5 31t10.5 30.5t10.5 30.5q0 8 16.5 41t24.5 41l20 31q10 21 51 41q3 0 16 5t25 5h31q5 0 25.5 -5t25.5 -5q4 0 12 -3t14 -5l5 -3q21 -31 31 -41 l20 -30q0 -4 10.5 -53t10.5 -60q0 -10 5 -82t5 -82h51h41l21 10v72v72q-11 62 -21 82l-10 30q0 5 -15.5 31t-15.5 31q-10 5 -56.5 36t-56.5 36l-10 10q-5 0 -30.5 5t-30.5 5h-21h-20q-43 0 -62 -16l-41 -15q-20 -20 -30 -20l-41 -41q-21 -31 -21 -41q-41 -82 -41 -92 l-10 -41q0 -5 -10 -25.5t-10 -25.5q-4 -4 -9.5 -19.5t-8.5 -28.5l-3 -14q0 -5 -5 -36t-5 -36v-133l-21 -10l-30 -10q-5 0 -46.5 -5t-46.5 -5t-25.5 -5.5t-25.5 -5.5l-30 -10q-11 -31 -11 -41v-20h174l21 -11l10 -20v-51v-51q-10 -42 -10 -52l-10 -41q0 -5 -10.5 -25.5 t-10.5 -25.5l-41 -82l-51 -51l-41 -31v-10zM672 1106h-10l-21 -10l-20 -31l-11 -10q0 -5 -10 -41t-10 -41q0 -4 -5 -53t-5 -60v-92h51l71 10l11 31v72v92q0 5 -5.5 41t-5.5 41q-10 20 -10 30q0 4 -2.5 9.5t-5.5 8.5l-2 3h-10z" />
<glyph unicode="&#xa4;" horiz-adv-x="1062" d="M41 336l8 207q11 10 21 10q5 0 35.5 5t35.5 5l21 10l10 11h-123l-10 10q-10 82 -10 113v71l20 21q5 0 41 5t41 5l51 10l11 10l10 21q0 5 15 61.5t15 61.5q0 7 11.5 30t19.5 31q5 5 31 46t31 46q10 21 51 41q8 8 26 19.5t25 11.5l41 21l31 20q31 21 41 21l71 30h123 q31 -10 41 -10l31 -10q5 0 20.5 -10.5t20.5 -10.5q62 -31 82 -51l31 -31q10 -51 10 -71v-72q0 -5 -5 -25.5t-5 -25.5q-21 -21 -21 -31l-20 -20l-31 -11q-11 11 -21 11q-5 5 -66.5 35.5t-66.5 35.5q-31 11 -41 11h-41l-20 -11q-21 -20 -31 -20q-5 0 -20.5 -15.5t-20.5 -15.5 l-10 -10q0 -5 -10.5 -36t-10.5 -36l31 -10h21l20 -21l10 -20v-113q-10 -41 -20 -51l-21 -20h31q21 -72 31 -103v-20l-10 -21q-5 -5 -20.5 -30.5t-20.5 -30.5l-11 -10l-41 -21v-20l11 -31l10 -41l10 -31q0 -4 7.5 -11.5t15.5 -12.5l8 -6q31 -11 41 -11q5 0 25.5 -5t25.5 -5 h10q5 0 20.5 5t20.5 5q4 0 12 2.5t13 5.5l6 3q4 4 19.5 11.5t28.5 12.5l13 6l82 72h11q5 0 25.5 -10.5t25.5 -10.5t30.5 -10t30.5 -10l10 -10v-113q-10 -21 -10 -31q0 -5 -15.5 -25.5t-15.5 -25.5l-10 -20q0 -4 -5 -12t-10 -14l-5 -5l-21 -21h-20l-21 -10l-41 -30 q-19 -9 -57 -25t-45 -16q-2 0 -63.5 -5.5t-79.5 -5.5q-4 0 -48 5.5t-55 5.5q-41 20 -51 20q-4 0 -17.5 8t-30 18.5t-24.5 14.5q-4 0 -11.5 5t-13.5 10l-5 5l-62 62q-41 41 -41 51q-10 41 -20 51l-11 31l-20 51l-10 31q0 4 -2.5 9t-4.5 8l-3 3zM127 406l76 -7q20 -10 30 -10 l21 -10l20 -21q11 -20 11 -30q0 -5 5 -31t5 -31q0 -8 12 -41.5t19 -40.5l10 -10l10 -20l72 -72l20 -10q4 0 12 -3t14 -5l5 -3q5 0 36 -5t36 -5h245q42 21 52 31l10 10l10 31v31q-31 -31 -41 -31l-41 -21l-10 -10l-31 -10h-82q-51 10 -61 20l-21 11l-51 20l-20 10 q-4 4 -17 12t-23 13l-11 6l-31 31q-21 21 -41 82l-10 41v82l10 30q31 21 41 21l51 10l20 10l35 -4l-6 41l-29 -6h-71q-5 0 -31 5t-31 5l-10 10l-10 31v103q0 7 11.5 18.5t19.5 11.5q41 11 51 11q5 0 40 6t40 6v45q-8 0 -50.5 -7t-50.5 1q-10 0 -30 20v82q0 8 6.5 26t13.5 25 q5 5 20.5 31t20.5 31l61 61q11 10 21 10q14 4 37 14.5t39 18.5l16 8h62q5 0 40.5 -10t40.5 -10t41 -20.5t41 -20.5h11l10 10v41l-10 21l-31 41q-31 20 -41 20q-5 0 -25.5 5t-25.5 5h-113q-5 0 -25.5 -5t-25.5 -5q-8 0 -41.5 -12t-40.5 -19q-21 -10 -31 -20q-5 0 -20.5 -15.5 t-20.5 -15.5l-10 -10q-9 -9 -25 -31.5t-16 -29.5q-4 -4 -14.5 -24.5t-22 -47t-14.5 -31.5q-10 -21 -10 -31l-11 -41v-30l-10 -21l-20 -20q-41 -21 -51 -21l-31 -10q-5 0 -25.5 -5t-25.5 -5v-41q5 0 45 5t45 5l39 2q14 -64 14 -74v-30q0 -5 -5 -36t-5 -36l-11 -20 q-5 0 -35.5 -5.5t-35.5 -5.5l-31 -10z" />
<glyph unicode="&#xa5;" horiz-adv-x="944" d="M2 545l123 123q54 10 74 10h10q-66 175 -70 188l-10 31l-10 41q0 5 -10.5 30.5t-10.5 30.5q0 4 -5 17t-10 24l-5 11q0 5 -20.5 25.5t-20.5 25.5v41q10 20 20 20q31 21 41 21l31 10q5 0 30.5 5t30.5 5h72q31 -10 41 -10q11 0 31 -20q0 -4 5 -12t10 -14l5 -5q21 -52 21 -62 l10 -41l10 -30l11 -21l10 -10l10 -51q0 -8 12 -31t19 -31q0 5 15 31t15 31t15.5 35.5t15.5 35.5l10 21q0 5 15.5 51t15.5 51l10 31l31 10l10 21l21 20q5 0 30.5 10.5t30.5 10.5h21l51 -11q5 0 41 -5t41 -5l20 -20l41 -10l11 -11v-41q0 -5 -15.5 -35.5t-15.5 -35.5l-10 -31 q0 -5 -15.5 -25.5t-15.5 -25.5l-21 -51l-20 -31l-10 -31q0 -7 -11.5 -30t-19.5 -31q0 -5 -15.5 -26t-15.5 -26q0 -4 -3.5 -9.5t-9 -13.5t-7.5 -11h63q5 0 25.5 -5.5t25.5 -5.5l11 -10l10 -31l10 -20q0 -4 5 -47.5t5 -54.5v-31l-10 -21q0 -3 -3 -7.5t-8.5 -11.5t-8.5 -11h2 q0 -5 10 -20.5t10 -20.5q10 -31 10 -41v-11h-10q0 -5 -5 -30.5t-5 -30.5q-10 -21 -10 -31l-11 -20l-30 -21l-11 -30l-10 -11q-20 -10 -30 -10q-5 0 -32 -5t-32 -5l-63 -14l-11 -21q-31 -41 -41 -51l-10 -10l-10 -21l-21 -20l-10 -21l-10 -10q-14 -7 -43.5 -14t-38.5 -7h-123 l-20 11q-11 31 -11 41v10q0 51 2 86h-22h-156l-10 -21h-41l-10 11l-10 51l-11 41v153l9 17q-1 7 -6 38.5t-5 37.5q0 5 -5 30.5t-5 30.5v31zM86 258l10 -51q11 -10 21 -10q5 0 13.5 -2.5t13.5 -5.5l6 -3h51q8 0 62.5 5t74.5 6q-4 -66 -4 -76v-72h61q5 0 20.5 5t20.5 5 q0 10 10.5 67t10.5 67v10q25 3 56 6.5t49 5.5t20 2q9 0 38.5 7t43.5 14l20 10q4 0 9.5 5t8.5 10l3 5v51l-31 11q-10 0 -56.5 5t-56.5 5h-84q0 8 4 66q163 11 201 16l20 10v10l-10 72l-10 21h-133q-2 0 -11.5 -1.5t-23 -3t-25.5 -2.5q10 34 19 43q20 21 20 29l11 10l10 31 l20 31q7 22 47 101.5t56 103.5q0 10 41 92q0 5 10 25.5t10 25.5l10 31v10q-5 0 -30.5 10t-30.5 10h-10q-5 0 -31 -5t-31 -5q0 -11 -2 -22.5t-4 -18t-7 -21t-7 -20.5l-10 -20l-11 -11l-10 -20q-7 -7 -19 -35.5t-12 -36.5l-10 -30q-20 -42 -20 -52l-11 -41q-5 -5 -25.5 -40.5 t-25.5 -40.5q-20 -11 -30 -11l-21 21q-5 10 -20.5 56t-20.5 56q0 5 -20.5 46.5t-20.5 46.5t-20.5 56t-20.5 56t-10 25.5t-10 25.5q0 4 -3 9.5t-5 8.5l-3 3h-92q5 -10 25.5 -71.5t25.5 -71.5l11 -52q0 -5 15 -35.5t15 -35.5l11 -31q20 -41 20 -51q0 -5 10.5 -31t10.5 -31 q2 -4 14.5 -30.5t22.5 -46t14 -23.5l20 -21l6 -12q-62 -4 -79 -4h-11q-5 0 -56 -5t-56 -5h-43l-11 -21l-10 -10l10 -82h74q56 0 176 6l-6 -61q-62 -8 -86 -17l-41 -10l-51 -10q-5 0 -42 -5t-42 -5v-31z" />
<glyph unicode="&#xa6;" horiz-adv-x="401" d="M96 -127v10q0 5 -5 77t-5 77v82q0 49 -10 284t-10 269q0 9 -5.5 72.5t-5.5 80.5q0 5 -5 51.5t-5 51.5t-5 71.5t-5 71.5t-5 51.5t-5 51.5v102q10 21 51 41l20 10l41 31q5 0 20.5 10t20.5 10h21q5 0 51 -5t51 -5h10l41 -72q10 -338 10 -481v-72q0 -31 20.5 -307.5 t20.5 -306.5v-102q0 -5 -20.5 -31t-20.5 -31t-10 -30.5t-10 -30.5l-31 -31l-20 -10l-154 -10zM106 1092q0 -5 5.5 -51.5t5.5 -51.5q0 -10 5 -87t5 -87t10 -128t10 -128v-113q0 -20 5.5 -209t5.5 -210v-21l10 -82h92l21 21q10 81 10 112v11q0 5 -10.5 30.5t-10.5 30.5 q0 1 -5 75.5t-5 98.5q0 21 -5 195t-5 194q0 5 -5 51.5t-5 51.5q0 31 -10.5 220.5t-10.5 219.5h-61q-5 0 -26 -5t-26 -5v-133z" />
<glyph unicode="&#xa7;" horiz-adv-x="942" d="M35 152l10 10l61 41q31 10 41 10h93q5 0 41 -10t41 -10q20 -40 20 -62q0 -5 5 -30.5t5 -30.5t15.5 -46.5t15.5 -46.5q0 -4 5 -11.5t10 -13.5l5 -5l41 -21l11 -10l20 -10l21 10q3 3 17 14.5t24 22t10 14.5q10 21 10 31v143q0 11 -41 52q-52 30 -72 40l-20 11 q-5 0 -71.5 20.5t-71.5 20.5t-26 10t-26 10l-10 10l-31 21q-40 26 -61 92l-10 31v123q0 9 6.5 38.5t13.5 43.5l10 20q-10 41 -20 51l-10 21q-11 20 -11 30q-4 9 -9 27t-8 31l-3 14v62q0 10 10 56t10 56q0 5 10.5 25.5t10.5 25.5q5 5 30.5 41t30.5 41l103 103l20 10l41 31 l21 10q20 10 30 10l41 10h113q5 0 36 -5t36 -5l41 -10q5 0 20.5 -10.5t20.5 -10.5l20 -20l31 -41l10 -10l10 -21l21 -30q10 -21 10 -31t10.5 -61.5t10.5 -61.5v-31l-72 -71l-10 -21l-11 -10q-5 0 -30.5 -5t-30.5 -5h-113l-20 10l-10 10q0 5 -10.5 36t-10.5 36t-10 30.5 t-10 30.5l-11 21h-10l-10 -11q0 -5 -5 -40.5t-5 -40.5v-62q0 -7 16 -29.5t25 -31.5l51 -52l51 -30l20 -21l21 -10q31 -21 41 -31l10 -10l21 -10l10 -10q5 -5 25.5 -31t25.5 -31l10 -10l21 -31q0 -5 5 -20.5t5 -20.5v-92l10 -20v-11q0 -5 15.5 -35.5t15.5 -35.5t10 -31 t10 -31l11 -41v-61q0 -5 -5.5 -36t-5.5 -36t-15 -46t-15 -46t-10.5 -36t-10.5 -36t-10 -20.5t-10 -20.5l-10 -10q-21 -21 -21 -31l-10 -20l-21 -21l-10 -20l-10 -10l-10 -21q-21 -20 -31 -20q-5 0 -46 -15.5t-46 -15.5l-41 -20l-31 -11l-20 -10h-185q-5 0 -25.5 5t-25.5 5 l-20 11l-31 10l-21 10l-51 51q-31 31 -31 41l-10 31q-20 41 -20 51q0 5 -10.5 46t-10.5 46l-10 41q0 5 -5 36t-5 36v72zM117 8q0 -5 10 -41t10 -41q21 -51 31 -71q0 -4 2.5 -9.5t5.5 -8.5l2 -3l31 -31l31 -10l20 -20q5 0 20.5 -10.5t20.5 -10.5t20.5 -5t20.5 -5h82 q41 10 51 10l41 10q5 0 20.5 10.5t20.5 10.5q5 5 30.5 20.5t30.5 20.5l21 20q10 19 32 57.5t29 45.5q11 31 11 41q0 5 5 35.5t5 35.5v31q0 5 -5 36t-5 36q-11 31 -11 41l-10 30q0 5 -20.5 31t-20.5 31v82q0 5 5 30.5t5 30.5v92l-10 21l-31 41q-20 20 -30 20l-21 11l-10 10 l-20 10l-21 21l-31 10q-5 5 -41 20.5t-41 20.5q-7 0 -25 11t-26 19q-9 4 -24 14.5t-26 18.5l-11 8l-10 31l-11 10q-4 4 -9 14.5t-8 18.5l-3 8v103q10 41 20 51q0 4 5 14.5t11 18.5l5 8l10 10q5 5 41 25.5t41 25.5q4 4 14.5 9.5t18.5 8.5l8 3h61q21 -11 31 -21l10 -10 q0 -4 5 -12t11 -14l5 -5q10 -20 10 -30q0 -5 10.5 -41t10.5 -41l10 -21l10 -10h82l10 10v21l-10 71q0 8 -17 41t-24 41l-51 52q-21 20 -31 20l-20 10q-4 0 -12 3t-13 5l-6 3h-123q-7 0 -41 -16.5t-41 -24.5l-92 -93q-21 -31 -21 -41q0 -4 -5 -17t-10 -23l-5 -11 q0 -5 -5 -25.5t-5 -25.5v-92q0 -5 5 -25.5t5 -25.5q20 -31 20 -41q0 -4 5 -12t11 -14l5 -5l51 -51l154 -72l82 -41l20 -20l21 -11l20 -20l10 -21q0 -2 5.5 -48t5.5 -64v-31h-123l-21 21l-20 10l-92 61q-3 3 -14.5 12t-19 17t-7.5 12l-11 21l-10 30q0 5 -5 41t-5 41 q-5 0 -20.5 10.5t-20.5 10.5h-10q-11 -21 -11 -31q0 -4 -5 -42.5t-5 -49.5v-31q0 -7 17 -41t24 -41l21 -20q5 0 20.5 -10.5t20.5 -10.5q5 -5 76.5 -25.5t76.5 -25.5l21 -10l71 -41q42 -31 52 -41l10 -10l30 -41l11 -31v-123q-11 -31 -11 -41l-10 -30q0 -11 -30 -41 q-5 -5 -31 -26t-31 -26l-31 -10l-20 -10h-82q-7 0 -41 17t-41 24q-4 0 -12 7.5t-17 19t-12 14.5q-21 41 -31 51q-4 4 -11.5 19.5t-13.5 28.5l-5 13q0 5 -5.5 26t-5.5 26h-61q-10 -11 -10 -21v-41zM393 520l10 -20l31 -31l21 -31q20 -10 30 -10h21v41l-10 10q-21 21 -82 41 h-21z" />
<glyph unicode="&#xa8;" horiz-adv-x="774" d="M51 1055q0 9 5.5 23.5t10.5 25.5l5 10l51 51l20 11l31 18h102q21 -8 31 -18l31 -31q0 -5 10 -20t10 -19h11q6 4 26.5 29.5t24.5 29.5l41 39q21 10 31 10h92l30 -10l72 -69q10 -21 10 -29v-70l-10 -20q-3 -3 -14.5 -17t-22 -24t-14.5 -10q-8 -7 -31.5 -18t-30.5 -11h-112 l-31 10q-31 19 -41 29l-31 31l-61 -60q-4 0 -42.5 -10t-49.5 -10h-51q-52 20 -62 30l-10 9l-21 30q-10 41 -10 49v11zM440 1016l11 -10h61q4 0 14.5 5t18.5 10l8 5q20 29 20 39v20q0 4 -5 14t-10 17l-5 8h-61l-21 -10q-8 -6 -19.5 -24t-11.5 -25v-49zM113 1026 q10 -20 20 -20l21 -11h30q4 0 12 2.5t14 5.5l5 3l21 20l10 18v21q0 4 -5 14.5t-11 18.5l-5 8q-31 8 -41 8h-30l-21 -18q0 -5 -10 -20.5t-10 -20.5v-29z" />
<glyph unicode="&#xa9;" horiz-adv-x="1431" d="M49 481v82v74q0 10 7 56t14 67q0 5 5 20.5t5 20.5t15.5 46t15.5 46l10 20q5 10 41 61.5t41 61.5l30 43l62 62q41 31 51 41l31 20l22 10l31 21q5 0 31 15.5t31 15.5t25.5 10t25.5 10l51 10l41 11h92h92l31 -11l51 -10l31 -10l51 -10l21 -11q5 0 31.5 -10t31.5 -10 q4 0 14.5 -5.5t18.5 -10.5l8 -5q10 -10 44.5 -37t47.5 -34q4 0 12 -7.5t14 -15.5l5 -8q9 -9 30 -38t21 -36q5 -5 25.5 -56t25.5 -56l10 -21q31 -95 31 -194v-41q0 -11 -5 -61t-5 -54t-10.5 -42.5t-10.5 -49.5l-10 -31q0 -11 -51 -113q0 -4 -5 -14.5t-10 -18.5l-5 -8 q0 -5 -20.5 -30.5t-20.5 -30.5l-11 -20l-20 -11q-4 -4 -24.5 -20t-26.5 -23l-82 -82q-5 0 -37 -20.5t-37 -20.5l-31 -20q-6 -3 -26.5 -14.5t-36 -19t-19.5 -7.5q-31 -10 -41 -10q-5 0 -30.5 -5t-30.5 -5l-31 -11l-41 -10h-51h-61q-5 0 -36 5t-36 5l-41 11q-71 30 -94 40 l-21 11q-4 4 -17 11.5t-23 12.5l-11 6l-41 31l-92 92l-20 43q-8 8 -24.5 36.5t-16.5 35.5l-11 10q0 5 -5 31t-5 31l-10 30l-10 41q0 5 -5.5 31t-5.5 31zM131 492l10 -31q0 -5 15.5 -51.5t15.5 -51.5q0 -4 13 -27.5t28.5 -52.5t19.5 -42l11 -11q6 -6 31.5 -42.5t29.5 -41.5 q5 -5 31 -35.5t31 -35.5q33 -21 43 -31l20 -10q5 0 31 -10.5t31 -10.5t30.5 -5t30.5 -5h10h10l113 10l41 21q5 0 30.5 10t30.5 10l41 21q5 0 31 10t31 10l41 31l31 20q15 18 61 64l43 51l10 10l21 41l10 10q0 4 5 12t10 13l5 6q3 5 17 31.5t24.5 47t10.5 24.5q10 31 10 41 q0 11 5 44t5 37v64v61q0 18 -5 74.5t-5 58.5q0 5 -10.5 36t-10.5 36q0 8 -11.5 31.5t-18.5 30.5q0 10 -41 51l-115 114q-5 0 -25.5 10.5t-25.5 10.5l-41 31l-21 10l-51 10l-10 10h-82h-92q-5 0 -36 -5t-36 -5l-20 -10l-31 -21q-5 0 -41 -20.5t-41 -20.5q-3 0 -11 -5 t-14.5 -11t-16 -14t-11.5 -10q-13 -15 -103 -105q-9 -9 -31.5 -38.5t-29.5 -43.5l-10 -20l-21 -31q0 -4 -5 -14.5t-10 -18.5l-5 -8l-10 -51q0 -20 -21 -62v-206zM162 573v84q0 5 5 36t5 36q0 7 11.5 42t19.5 50l10 21l20 30l21 52q20 20 20 30l31 41l94 95q8 8 36.5 24 t35.5 16l10 11q4 4 14.5 9t18.5 8l8 3q4 0 48 5t55 5h51q102 0 153 -20q4 0 19.5 -5.5t29.5 -10.5l13 -5q5 -2 26 -13.5t36.5 -19t19.5 -7.5q2 -2 19.5 -20t33.5 -34t21 -20q30 -52 40 -72q3 -6 14.5 -26.5t19 -36t7.5 -19.5q0 -5 5.5 -25.5t5.5 -25.5v-92v-92 q-11 -44 -11 -54l-30 -122q0 -7 -17 -41t-24 -41q-43 -52 -53 -72l-11 -10q0 -7 -11 -25t-19 -26l-21 -41l-10 -11l-10 -20l-11 -10q-4 -5 -14.5 -13.5t-18.5 -14.5l-8 -5q-5 0 -20.5 -10.5t-20.5 -10.5l-41 -10l-20 -10q-5 0 -25.5 -5t-25.5 -5h-72h-82q-5 0 -25.5 5 t-25.5 5q-7 0 -30 11.5t-31 19.5l-11 10l-41 20q-99 69 -114 84q-31 52 -41 62q-4 4 -14.5 24.5t-22 46.5t-14.5 31q-11 21 -11 31q-4 9 -9 29.5t-8 36.5l-3 16v71zM686 154l10 -13h21h20q52 33 62 43l20 21l21 10l20 21l41 51l41 41q10 20 10 30l11 41l10 11l20 10l11 10 q0 5 10 20.5t10 20.5t11.5 30.5t11.5 30.5q30 76 30 177v20q-10 52 -10 62l-10 51q0 5 -11.5 25.5t-11.5 25.5q-5 5 -20.5 41t-20.5 41q0 4 -5 12t-10 13l-5 6q-30 30 -41 30q-108 54 -123 54q-72 10 -92 10h-31h-20q-21 -10 -31 -10q-5 0 -20.5 -11.5t-20.5 -11.5 q-4 0 -12 -5t-14 -10l-5 -5l-41 -41l-20 -11l-62 -61q-51 -72 -63 -92l-10 -21v-10v-20q5 5 26.5 46t26.5 46q21 31 31 41l10 10l51 41l20 10q21 10 31 10l41 11h51h52q5 0 20.5 -5.5t20.5 -5.5q8 0 31 -11.5t30 -18.5l10 -11l31 -20l31 -31q7 -7 18.5 -30t11.5 -31v-51v-52 l-20 -30l-62 -62q5 0 31 -5t31 -5l20 -21v-53v-51l-10 -31l-10 -51l-10 -10l-11 -31l-20 -31q0 -4 -8 -11.5t-16 -12.5l-7 -6q-51 -31 -61 -41l-21 -11l-30 -10q-5 0 -36 -5t-36 -5h-21h-20q-14 0 -59.5 16t-63.5 25q-21 20 -31 20l-30 31q-21 21 -21 31q0 5 -16.5 25.5 t-16.5 25.5v-10v-10q0 -5 10.5 -41t10.5 -41l12 -11l10 -30l21 -31l10 -20l10 -11l52 -41q7 -7 39.5 -18.5t41.5 -11.5h113zM399 594v-10q0 -9 2.5 -24.5t5.5 -26.5l3 -11q31 -71 41 -102q5 -5 10 -15.5t10 -15.5l31 -20q4 -4 14.5 -9.5t18.5 -8.5l8 -3h61l21 -10h10h10 q7 0 31 12t31 19l10 10l31 41l10 31v30q0 6 -2.5 16t-5.5 17l-2 8h-11l-10 -10l-31 -51l-61 -62l-21 -10q-20 -10 -41 -10h-10l-41 10l-20 10q-41 52 -51 72l-11 21q0 4 -10 47.5t-10 54.5h-21zM346 451q-8 0 -8 -10.5t8 -10.5t8 10.5t-8 10.5zM563 563v-20l10 -31 q0 -8 11.5 -19.5t19.5 -11.5l31 31q0 4 5 12t10 14l5 5l11 41q0 13 30 43l-30 10l-11 20q0 5 -5 20.5t-5 20.5t-5 36t-5 36l-10 21q-43 -88 -52 -134q0 -5 -5 -36.5t-5 -36.5v-21zM614 924h-20q-5 0 -25.5 -10.5t-25.5 -10.5q-9 -4 -26.5 -21.5t-36 -38.5t-19.5 -22 q0 -7 -16 -45t-25 -57q0 -5 -5 -25.5t-5 -25.5v-41h10q10 31 10 41q0 5 5 35.5t5 35.5q11 31 21 41q4 4 12 17t13 23l6 11l20 21q21 20 31 20l20 11h21h30q21 -11 31 -11l21 -10l20 -20q21 -41 21 -51l10 -41q0 -4 2.5 -9.5t4.5 -8.5l3 -3h21h20l10 10v31v21q-10 51 -20 61 l-10 20q-21 21 -31 21q-5 0 -20.5 10t-20.5 10q-4 0 -12 2.5t-14 5.5l-5 3h-31z" />
<glyph unicode="&#xaa;" horiz-adv-x="899" d="M539 567h-11l-20 -10l-31 -20l-10 -11q-5 0 -46 -10t-46 -10h-135q-5 0 -20.5 5t-20.5 5l-31 21l-51 51q-31 31 -31 39q0 5 -10 20.5t-10 20.5t-5.5 25.5t-5.5 25.5v133q21 70 31 90q0 4 5 17t10 23l5 11l11 31q0 4 5 12t10 14l5 5l51 51q6 6 39 31.5t35 27.5 q21 21 31 21l20 10q9 0 59 12t64 19h10q5 0 26 -5t26 -5l41 -11l10 11l10 20l10 10q4 0 14.5 5.5t18.5 10.5l8 5q4 0 38.5 10t45.5 10h11q20 -10 30 -10q5 0 25.5 -10.5t25.5 -10.5q4 0 9.5 -2.5t8.5 -4.5l3 -3q0 -5 10 -20.5t10 -20.5q0 -26 5.5 -173t5.5 -171v-164l10 -41 v-49l-10 -20q-21 -31 -31 -41l-10 -10q-4 0 -14.5 -5.5t-18.5 -10.5l-8 -5q-5 0 -36 -5t-36 -5l-43 -10h-82zM621 668q0 -5 -5.5 -25.5t-5.5 -24.5v-61h21q5 0 31.5 10.5t31.5 10.5l11 10v30q0 4 -5.5 24.5t-5.5 25.5v479h-41l-12 -10v-82q-10 -21 -20 -21l-21 10l-31 31 q-62 21 -82 31q-9 4 -24 9t-26 8l-11 3h-51q-21 -10 -31 -10q-8 0 -36.5 -12t-35.5 -19q-4 0 -9.5 -2.5t-8.5 -4.5l-4 -3q-31 -21 -31 -31q-20 -20 -20 -30l-11 -21l-30 -41l-11 -51q-10 -19 -10 -29l-10 -20l-10 -41v-92l30 -62l21 -30l20 -19q4 -4 17 -11.5t24 -12.5 l11 -6h94q11 0 39.5 5t32.5 5q6 3 31.5 14t46 21t24.5 14q11 7 24.5 23.5t26.5 27t31 10.5h10l10 -10zM219 911l10 21q4 4 44 47.5t51 54.5l20 21h123l31 -11q31 -20 41 -30l10 -10v-93q0 -5 5 -55t5 -55v-31q-10 -21 -10 -31l-10 -20q-31 -31 -41 -31q-42 -20 -62 -20 l-41 -11h-71l-11 11l-41 20q-22 21 -22 31q0 4 -5 14.5t-11 18.5l-5 8l-10 41v110zM375 780h20l11 -10l10 -31h10l20 11q4 0 12 5t14 10l5 5l10 10v203q-10 10 -20 10h-31q-4 0 -12 -7.5t-17 -19t-12 -14.5l-10 -41l-20 -39v-51q0 -5 5 -20.5t5 -20.5z" />
<glyph unicode="&#xab;" horiz-adv-x="974" d="M43 375v51q0 4 10.5 28t23.5 53t17 42l21 41l10 31l51 112q0 5 15.5 27.5t15.5 27.5q16 42 26 52l35 47q8 7 41 24t41 17h51l41 -21q5 0 31 -5t31 -5q8 -8 19.5 -26t11.5 -25q-11 -41 -21 -51l-10 -21l-10 -31l-11 -10l-10 -20q0 -5 -10 -31t-10 -31q0 -4 -5.5 -14.5 t-10.5 -18.5l-5 -8l-20 -20q0 -10 -41 -92q0 -4 -2.5 -12t-5.5 -14l-3 -5q11 -31 11 -41l10 -31q0 -5 15.5 -61.5t15.5 -61.5l10 -20l10 -51q0 -5 10.5 -20.5t10.5 -20.5q-5 -5 -20.5 -41t-20.5 -41l-11 -10q-7 -8 -41 -24.5t-41 -16.5q-5 0 -30.5 -10.5t-30.5 -10.5h-51 q-21 11 -21 21l-10 20q0 4 -10.5 32.5t-23.5 63.5t-17 47q0 5 -10.5 31t-10.5 31zM494 467q20 52 30 72q3 6 14.5 26.5t19 36t7.5 19.5q0 5 20.5 30.5t20.5 30.5l21 51q5 5 20.5 41t20.5 41q20 21 20 31l10 10l52 41q20 10 30 10h21l20 -10l41 -10q4 0 17 -5.5t23 -10.5 l11 -5q11 -10 11 -20q0 -5 5 -20.5t5 -20.5v-21l-10 -41q0 -5 -26 -56t-26 -56t-15 -36t-15 -36t-15.5 -30.5t-15.5 -30.5v-62q0 -5 5 -35.5t5 -35.5q10 -21 10 -31l11 -21q7 -7 18.5 -40t11.5 -42q11 -31 11 -41l10 -51v-30l-10 -21l-21 -20l-31 -21q-15 -8 -61 -19.5 t-61 -11.5h-62l-10 11l-21 30q0 5 -15 46.5t-15 46.5q-8 25 -31.5 87t-30.5 76q0 5 -15 36t-15 36v82zM125 385q20 -41 20 -51q0 -5 15.5 -31t15.5 -31l10 -41l21 -30v-21q10 -20 10 -30l10 -21l11 -31l10 -10q5 0 25.5 10.5t25.5 10.5l20 10q0 4 -15 47.5t-15 54.5l-10 41 q0 5 -20.5 51.5t-20.5 51.5q-21 65 -21 92v20l10 21q7 7 19 35t12 36l10 31l11 10q0 4 10.5 22.5t23.5 40.5t17 29l10 21l10 31v10h-51l-82 -164l-20 -31l-11 -20q-4 -13 -17 -39.5t-23.5 -48t-10.5 -25.5l-10 -30v-21zM575 385l21 -41q0 -5 10 -30.5t10 -30.5t10.5 -26 t10.5 -26q5 -10 20.5 -61t20.5 -61h51l31 10v20q0 5 -15.5 56.5t-15.5 56.5l-10 41q0 5 -10.5 30.5t-10.5 30.5l-10 41l-10 31q-21 41 -21 51q0 5 5.5 25.5t5.5 25.5t20.5 31t20.5 31l71 153v11q-20 10 -30 10h-11l-61 -123q0 -5 -20.5 -36t-20.5 -36l-10 -30 q0 -5 -26 -51.5t-26 -51.5v-51z" />
<glyph unicode="&#xad;" horiz-adv-x="851" d="M51 692l10 21q52 31 72 41l21 10q5 0 25.5 15.5t25.5 15.5q10 0 83 5t83 5h10q5 0 77 5t77 5h247l21 -20q10 -62 10 -93v-71q0 -4 -10.5 -14.5t-20.5 -18.5l-10 -8l-31 -51l-10 -11q-15 0 -98 -10t-98 -10l-41 -10q-5 0 -72 -5.5t-72 -5.5l-51 -10q-5 0 -42 -5t-42 -5 t-36 -5t-36 -5h-51q-8 0 -19.5 11.5t-11.5 18.5v52q0 5 -5 56t-5 56v41zM659 672h-309q-2 0 -48.5 -5t-65.5 -5q-5 0 -36 -5.5t-36 -5.5l-31 -10v-92h62q5 0 57 5t57 5h10q5 0 67 10.5t67 10.5q10 0 87 5t89 5l30 10v72z" />
<glyph unicode="&#xae;" horiz-adv-x="1431" d="M53 532v62q0 4 7.5 35.5t19 74.5t14.5 56q11 41 21 51q15 31 61 102l10 21q4 4 12 17t14 23l5 11q6 6 37.5 48l34.5 46l10 21q0 4 7.5 11.5t15.5 12.5l8 6q5 5 45 31t45 31l10 10q5 0 31 15.5t31 15.5l20 20q52 11 72 21l41 10q5 0 41 5t41 5q15 0 107 5.5t108 5.5 q5 0 25.5 -5.5t25.5 -5.5l41 -10q4 -4 28.5 -16.5t56.5 -27.5t36 -17l10 -11q11 0 41 -30l31 -21q3 -3 14 -12t18.5 -17t7.5 -12q0 -7 16 -30.5t25 -32.5l21 -41l10 -10q9 -18 25 -63.5t16 -59.5q0 -4 5 -37.5t5 -44.5v-41v-41q0 -10 -20.5 -103.5t-20.5 -103.5 q0 -5 -5 -30.5t-5 -30.5q0 -7 -16.5 -41t-24.5 -41l-20 -21l-31 -51l-61 -61l-21 -11l-20 -20l-52 -43l-30 -31q-4 -6 -30 -26.5t-30 -24.5l-20 -10l-10 -11l-31 -20q-4 0 -14.5 -5t-18.5 -10l-8 -6h-21l-10 -10l-41 -20l-10 -11q-31 -10 -41 -10q-51 -10 -61 -10l-72 -10 h-62h-71q-5 0 -20.5 10t-20.5 10l-51 21q-76 31 -152 92l-10 10l-41 51l-62 64q-31 51 -41 61l-10 21q0 4 -10 37.5t-10 44.5q-4 9 -9.5 32t-8.5 41l-3 19v71zM176 481v-61q10 -41 10 -51l11 -41q4 -4 14.5 -24.5t22 -47t14.5 -31.5q5 -5 21 -31.5t20 -31.5l51 -51 q21 -21 31 -21q5 0 19.5 -10t19.5 -10q4 0 11.5 -3l12.5 -5l6 -3q1 0 65.5 -5t88.5 -5h20h11l30 10h11q5 0 25.5 10.5t25.5 10.5t30.5 10t30.5 10q62 31 72 31l41 31l31 22l51 31q4 0 12 5.5t13 10.5l6 5l10 10q5 10 40 61.5t40 61.5l10 20q0 5 10 25.5t10 25.5q0 4 3 12 t5 14l3 5q0 2 5 69.5t5 86.5v30v31q0 5 -5 25.5t-5 25.5l-11 21q-10 31 -10 41l-10 51v41q0 5 -5 25.5t-5 25.5q-11 21 -21 31l-10 10l-29 51q-62 74 -82 94l-10 11q-5 5 -41 20.5t-41 20.5l-31 10h-81h-82q-5 0 -31 -5t-31 -5q-11 0 -49.5 -15.5t-42.5 -15.5 q-10 -10 -92 -51l-21 -21l-49 -32q-5 -5 -46 -56.5t-46 -56.5l-10 -10q0 -5 -10.5 -26t-10.5 -26v-10l11 -20l10 -31q0 5 15.5 30.5t15.5 30.5l20 31l20 41q0 10 52 62l49 51l51 43q41 10 51 20q7 7 40.5 19t41.5 12l31 10h31h30q42 -10 62 -10l51 -10q7 0 30 -11.5 t31 -19.5q5 -5 36 -26.5t36 -26.5q4 0 12 -7.5t17 -19t12 -14.5q21 -21 21 -31q7 -7 18.5 -30t11.5 -31q0 -4 14.5 -43t14.5 -50q0 -5 10 -40.5t10 -40.5t5.5 -31t5.5 -31v-31v-20q0 -18 -12 -74t-19 -71q0 -11 -14.5 -50t-14.5 -43q-5 -10 -35.5 -56t-35.5 -56l-72 -72 q-4 -4 -40.5 -25.5t-41.5 -27.5l-31 -21l-20 -10l-10 -10h-21q-5 0 -20.5 -5t-20.5 -5h-215q-41 20 -51 30q-4 0 -12 5.5t-14 10.5l-5 5q-8 12 -70 74l-10 20l-10 10q0 5 -15.5 36t-15.5 36t-20.5 41t-20.5 41q-10 51 -10 61t-5 56.5t-5 56.5l-21 -21l-10 -30v-62zM451 287 l10 -21l20 -20q5 0 20.5 -15.5t20.5 -15.5l21 -10l30 -10h41h41l21 10h10q5 0 31 10t31 10l20 11q5 0 25.5 15t25.5 15q4 0 12 5t13 11l6 5q4 0 12 7.5t14 15.5l5 7q5 5 20.5 31t20.5 31q4 7 17 29t23.5 40.5t10.5 22.5q0 7 11.5 42t19.5 50q0 5 5 25.5t5 25.5v54v41 q-10 41 -10 51q0 5 -5.5 20.5t-5.5 20.5q0 9 -5 26.5t-10 30.5l-5 14l-21 41l-20 52q0 4 -7.5 12t-19 17t-14.5 12q-9 9 -32 25t-30 16q-5 0 -30.5 10t-30.5 10h-20h-11q-4 0 -27.5 -8t-54 -19t-41.5 -14q-4 0 -17 -5t-23 -10l-11 -5q-21 -21 -31 -21l-20 -20l-20 -11 l-11 -20l-10 -10q-20 -31 -20 -41l-11 -31l-10 -21q-7 -7 -19 -40t-12 -41q-10 -18 -10 -52l10 -30q0 -5 -5 -26.5t-5 -27.5v-71v-82q0 5 5 25.5t5 25.5q0 2 5.5 54t5.5 71v10l10 123q10 21 10 31q31 62 31 71l10 11q4 0 12 5t13 10l6 5q5 0 30.5 15.5t30.5 15.5h72h72 q5 0 20.5 -5t20.5 -5q4 -2 31 -14.5t47 -23t24 -14.5q21 -31 31 -41q4 -4 9 -14t8 -18l3 -8v-41v-41q0 -9 -6.5 -32t-13.5 -30q0 -17 -20 -45.5t-21 -48.5q20 -21 20 -31q6 -6 15.5 -20.5t15.5 -20.5v-10q-21 -41 -21 -51q0 -4 -2.5 -9.5t-5.5 -8.5l-2 -3q-41 -41 -51 -41 l-51 -20l-21 -10h-20h-21l-30 30l-11 21l-20 20q0 -7 -11.5 -25t-19.5 -26l-20 -20q-21 -11 -31 -11q-5 0 -46 -10t-46 -10zM594 215h10v-10zM492 678v-279q5 0 12 5l8 6q0 16 -5 46t-5 46v10q10 21 10 31l20 41l-30 30q0 6 -5 32.5t-5 31.5zM399 440l-10 -10v-10h10v20z M614 594l21 -10q9 -4 14 -14.5t9.5 -25.5t7.5 -22q0 -5 10 -25.5t10 -25.5q0 -10 21 -31q6 0 13.5 -4t13.5 -4t14 8v11l-11 30l-10 21l-31 41v20v21l11 10l41 33q0 5 15 30.5t15 30.5v10v11l-10 51q-4 4 -14.5 9t-18.5 8l-8 3h-10q8 -8 19.5 -31t11.5 -30v-21v-20 q-11 -21 -21 -31l-10 -10q-8 -8 -31.5 -20.5t-30.5 -12.5q-5 0 -20.5 -5t-20.5 -5zM522 791l-10 -11q-10 -20 -10 -30v-11v-20q0 5 10 20.5t10 20.5v31zM655 801l31 -10h10h11l-21 10h-10h-21z" />
<glyph unicode="&#xaf;" horiz-adv-x="663" d="M29 1104q20 31 30 31q7 7 41 24t41 17q52 10 72 10q17 0 85 5t77 5h215l20 -20l11 -21v-104l-41 -41l-21 -31l-10 -10q-52 -11 -72 -11q-5 0 -46 -5t-46 -5l-51 -10q-5 0 -40 -5t-40 -5t-30.5 -5t-30.5 -5h-134l-20 20q-10 71 -10 102v64zM487 1073h-254q-4 0 -42.5 -5 t-49.5 -5l-41 -12q0 -4 -5 -17t-10 -24l-5 -11h174q5 0 25.5 5.5t25.5 5.5t50.5 5t50.5 5l81 10v43z" />
<glyph unicode="&#xb0;" horiz-adv-x="454" d="M47 1001v52q10 20 10 30l11 21l30 41l11 20q41 21 61 21l41 10q5 0 36 -5t36 -5l20 -10q4 0 12 -5t13 -11l6 -5q3 -3 14.5 -12t19 -17t7.5 -12l10 -20q10 -42 10 -52v-10l-10 -41q0 -5 -15.5 -30.5t-15.5 -30.5q-20 -21 -30 -31q-21 -20 -31 -20l-21 -11q-4 -4 -19.5 -9 t-28.5 -8l-13 -3h-31h-30q-52 31 -62 41q-4 0 -12 7.5t-14 15.5l-5 8q-10 20 -10 30v51zM190 1145q-4 0 -17 -5.5t-23 -10.5l-11 -5l-30 -30l-21 -31v-113q11 -20 21 -30l20 -11q21 -10 31 -10l41 -10q10 10 20 10q4 4 17 12t24 13l10 6q21 31 21 41v41v51l-10 31 q-3 3 -12 14.5t-17 19t-12 7.5q-31 10 -41 10h-11zM109 1012v41l10 20l31 31q20 10 30 10h21h10l20 -10q7 0 19 -12t12 -19l10 -20v-41v-31q-20 -31 -30 -41l-21 -10h-41h-30q-8 0 -24.5 17t-16.5 24v41zM221 1063h-10q-4 0 -9.5 -2.5t-8.5 -4.5l-3 -3v-72h31l10 10v21v30z " />
<glyph unicode="&#xb1;" horiz-adv-x="952" d="M348 483l31 -10v-203h82l82 11l10 10q10 60 10 80q0 10 5 56t5 56l21 21q21 10 31 10h30q40 10 50 10l40 11l11 10v131q-5 0 -45 -5t-45 -5t-41 -10.5t-41 -10.5h-41q-11 11 -11 21l-10 30v72q0 10 -5 56.5t-5 56.5h-113q-4 0 -11.5 -2.5t-13.5 -5.5l-5 -3v-215 q-21 -10 -31 -10l-31 -10q-10 0 -81 -5t-81 -5l-10 -29v-41q0 -5 5 -46t5 -46h72l41 10q4 0 29 5t30 5h31zM719 180h-309q-2 0 -49 -5t-66 -5q-5 0 -36 -5t-36 -5l-30 -10v-93h61q5 0 57.5 5.5t57.5 5.5h10q5 0 66.5 10t66.5 10q10 0 87 5t89 5q4 0 12 3t14 5l5 3v71z M111 201l10 20q52 31 72 41l20 10q5 0 25.5 15.5t25.5 15.5q23 0 43 2v96h-41l-39 -10q-5 0 -41 -5t-41 -5h-51l-10 10q-10 31 -10 41v21q0 5 -5.5 35.5t-5.5 35.5q0 2 -5 63t-5 79v10l72 82h182v172q5 5 33 27.5t33 27.5q4 0 8.5 3.5t12.5 11t16 12.5l186 12l43 -12l12 -6 l4 -27v-180q10 0 55.5 -5.5t55.5 -5.5h113l20 -10v-192l-10 -21l-31 -30q-20 -21 -20 -31q0 -5 -10.5 -20.5t-10.5 -20.5q-5 0 -41 -5t-41 -5l-41 -11v-112q-2 0 -6.5 -2.5t-7.5 -3.5h162l20 -21q10 -61 10 -92v-72q0 -4 -10 -14.5t-20 -18.5l-11 -8l-30 -51l-10 -10 q-15 0 -98 -10.5t-99 -10.5l-41 -10q-5 0 -71.5 -5t-71.5 -5l-52 -10q-5 0 -42 -5.5t-42 -5.5t-35.5 -5t-35.5 -5h-51q-8 0 -19.5 11.5t-11.5 19.5v51q0 5 -5 56.5t-5 56.5v41z" />
<glyph unicode="&#xb2;" horiz-adv-x="602" d="M29 479q0 3 -3 25.5t-3 25.5v39q0 3 3 16.5t3 16.5v39l57 53l29 19l43 39l14 18l27 27q14 20 22 26l15 19l12 14q0 3 11 19.5t11 19.5t7.5 19.5t7.5 19.5t10 19.5t10 19.5v71l-6 13h-29q-14 -7 -14 -13l-8 -14q-3 -3 -6 -10.5t-4 -13.5l-2 -7v-20l-9 -12l-28 -15l-15 -12 h-6l-6 -12l-8 -6h-6l-37 6q-3 0 -31.5 3t-32.5 3q-3 0 -13.5 6t-14.5 6v45q0 4 4 20t4 19l6 14q4 3 7.5 10.5t5.5 13.5l1 7l9 35l6 12l22 27l41 39q4 0 25 9t24 9l15 6q4 0 32 10.5t31 10.5l14 6h127q52 -19 72 -33l6 -6l23 -12q2 -2 9.5 -8t13 -11t5.5 -8l7 -12l14 -21 q0 -3 7 -22.5t7 -22.5q6 -39 6 -53v-6l-6 -33q0 -3 -4 -19t-4 -20q-3 -9 -31 -58t-32 -58q0 -3 -10.5 -16.5t-10.5 -16.5t-14.5 -25.5t-14.5 -25.5q-2 -2 -20 -25.5t-23 -26.5l9 -6h106l6 -14q4 -3 7.5 -9t5.5 -11l2 -5v-104l-50 -47q-3 -2 -10.5 -7.5t-14 -10t-9.5 -7.5 q-15 0 -104 -6t-103 -6q-3 0 -17 -4t-18 -4h-133q-8 5 -27.5 11.5t-23.5 8.5zM72 512l14 -8h135q3 0 38.5 4t39.5 4h55q8 0 38.5 3t33.5 3v78h-170q-4 0 -14.5 -4t-14.5 -4h-6l-14 8l-8 6v21q8 12 14 12l35 27l8 6l29 32l20 19q0 3 10.5 13t10.5 13l8 13q3 3 21 29t22 30 l20 25q0 3 14.5 23.5t14.5 23.5l14 18q15 40 15 54l6 30v27l-6 33v6q0 3 -7.5 29.5t-7.5 29.5l-8 6q-5 5 -21 16t-20 11q-6 4 -22 11t-21 7q-4 0 -21.5 7.5t-21.5 7.5h-20q-8 0 -38.5 -7.5t-33.5 -7.5q-35 -12 -41 -18q-14 -12 -22 -12l-7 -9q-4 -3 -18.5 -22.5t-18.5 -22.5 l-6 -14l-14 -31l-6 -26v-39h55q0 3 4 12.5t4 13.5t11.5 29.5t17.5 34.5l6 12l15 15q14 12 20 12l14 8h43l35 -8l35 -33l8 -12v-72q-8 -33 -14 -45l-8 -12l-7 -21l-6 -6l-8 -12l-6 -21q0 -5 -8.5 -20t-14.5 -19q-14 -12 -14 -20l-35 -45q0 -3 -17 -15.5t-17 -15.5l-21 -26 q-14 -21 -22 -21q-3 -3 -17.5 -12t-17.5 -12l-15 -7l-20 -20q0 -2 -4 -23.5t-4 -29.5v-70z" />
<glyph unicode="&#xb3;" horiz-adv-x="649" d="M12 637l8 20l23 15q23 28 29 28h30l21 -8h67l31 -6q6 0 14.5 -11.5t8.5 -17.5l6 -32q0 -2 7 -21t7 -26l10 -21l21 -27h14l39 13q14 19 14 28v101l-8 14l-20 21q-31 8 -39 8q-7 0 -52.5 3t-52.5 3q-5 0 -16.5 11.5t-11.5 17.5q-8 26 -8 34v72q0 3 4 8t10 11.5t8 9.5l14 6 l15 14l24 6l15 7h6l24 -7h43q17 7 23 7q4 0 7 2t8 6t7 6v49l-8 18q0 6 -11 21t-19 20l-15 15l-14 6h-31l-6 -6q-14 -25 -14 -41l-8 -33v-14l-7 -15q0 -3 -3.5 -8t-7.5 -8l-3 -4l-31 -14l-8 -7q-23 -6 -31 -6q-3 0 -34 -4t-39 -4h-15l-14 8l-8 6q0 2 -4 32t-4 38v39q0 6 9 29 t15 32q0 4 7.5 15t7.5 14l6 6l14 21l8 8l23 14l14 12l14 7l25 14l14 6q3 3 30.5 21t29.5 20l14 8q3 0 25.5 7.5t25.5 7.5l39 6h74q23 -6 31 -6l20 -9q4 -3 23.5 -13t23.5 -13l43 -43q15 -19 15 -25q0 -4 7 -21.5t7 -21.5l8 -35v-135l-8 -14l-6 -35q0 -3 -4 -13.5t-4 -13.5 q4 -4 14.5 -25t13.5 -24q21 -33 31 -80l8 -20v-84q0 -3 -4 -16t-4 -17l-37 -88q0 -6 -8 -21.5t-14 -21.5l-31 -39q-35 -29 -51 -35l-23 -14l-6 -6q-4 0 -23 -7t-22 -7q-10 -4 -32.5 -9.5t-27.5 -5.5h-45q-8 0 -39.5 4t-33.5 4q-10 0 -90 21q-16 4 -60 27l-28 22 q-15 12 -15 18q-9 12 -16 39t-8 31q0 3 -7.5 27.5t-7.5 27.5v66zM63 604q0 -3 3.5 -23t3.5 -24q0 -5 8 -25t14 -30q5 -5 13 -21t8 -20q0 -6 8.5 -14.5t13.5 -8.5q37 -12 45 -20l21 -6q1 0 54 -4.5t71 -4.5h28q3 0 17.5 4.5t17.5 4.5l23 6l28 14q3 0 8 5t12 13.5t9 10.5 q0 4 11.5 20t17.5 21q0 3 7 13.5t7 14.5l8 27q0 4 7.5 17t7.5 16v69q-7 23 -7 29l-8 21q0 4 -7 17.5t-7 16.5q0 4 -4 11t-8 12l-5 6l-6 6q-14 15 -22 15l-15 6l-34 8l-15 6v29l49 49l15 20l22 27q6 14 6 20q0 4 4.5 25.5t4.5 24.5v47q0 6 -5.5 21.5t-9.5 21.5q-4 3 -9.5 13 t-9.5 19l-3 9l-43 41q-15 8 -21 8q-3 0 -30 3t-35 3h-17q-8 0 -38 -7t-33 -7t-14 -5.5l-25 -12.5t-19 -9q-3 -4 -29 -18.5t-28 -16.5q-6 0 -14.5 -7.5t-8.5 -12.5q-14 -21 -14 -29q-4 -3 -7.5 -11t-4.5 -15l-2 -7q0 -7 -4 -39t-4 -39h59l6 9q0 3 4 27.5t4 27.5t4.5 13.5 t4.5 13.5l6 14q0 3 3.5 8t6.5 9l4 3l8 7l49 28h58q6 0 23 -7.5t22 -12.5l22 -21q15 -14 15 -22q5 -5 12.5 -20t7.5 -19q5 -5 9.5 -20.5t4.5 -22.5v-70q-6 -20 -14 -26q-14 -21 -20 -21l-15 -8l-28 -6q-13 0 -67.5 -4t-63.5 -4v-56h28l29 -6h20q9 -5 38.5 -12.5t35.5 -7.5 q4 0 11 -7.5t15 -16.5t11 -11q5 -6 12.5 -30t7.5 -34v-82q0 -3 -3 -13.5t-3 -14.5q0 -3 -3.5 -8t-7.5 -9l-3 -4q-1 -1 -10.5 -8.5t-16 -12.5t-10.5 -5q-3 0 -18.5 -7.5t-18.5 -7.5h-51q-14 6 -20 6l-15 9q-14 20 -22 26q0 4 -3.5 9t-7.5 9l-4 3q0 4 -3.5 11t-6.5 12l-4 5 q0 3 -3 16.5t-3 16.5h-103z" />
<glyph unicode="&#xb4;" horiz-adv-x="479" d="M35 961q0 16 41 90q4 7 17 29t23.5 40.5t10.5 22.5q3 3 14.5 17t22 24t14.5 10t48 10t55 10h51q51 -20 61 -30q21 -21 31 -21l10 -10v-31l-10 -20q-4 -4 -24.5 -30t-26.5 -30l-144 -143q-8 -8 -31 -19.5t-30 -11.5h-10q-9 0 -24.5 3t-26.5 5l-11 3q-31 20 -41 30 q-4 0 -9 5.5t-8 10.5l-3 5v31zM76 940l10 -20l20 -11h21q5 5 36 26t36 26l61 61q5 5 25.5 29.5t25.5 29.5l11 21v10q-7 7 -40.5 19t-41.5 12h-52q-20 -11 -20 -21q-21 -41 -31 -51l-61 -110v-21z" />
<glyph unicode="&#xb6;" horiz-adv-x="1189" d="M358 442h-79q-21 11 -31 11q-4 0 -14.5 5t-18.5 10l-8 5q-1 1 -22 19.5t-38.5 36t-21.5 26.5q-10 10 -10 20q-4 4 -9.5 17t-8.5 24l-3 11q0 4 -5 42.5t-5 49.5v20v21q10 51 10 61l10 51q0 13 15.5 47t15.5 37q0 5 20.5 31t20.5 31l10 20l21 21l20 10l31 31l51 41 q92 51 101 51q5 0 30.5 5t30.5 5q41 10 51 10h72h82q5 0 30.5 -5t30.5 -5t55.5 -5t55.5 -5q11 0 49.5 -5t42.5 -5l51 -11q21 -10 21 -20l10 -21v-77q0 -5 -5 -74t-5 -74q0 -10 -5.5 -72.5t-5.5 -72.5v-266q0 -10 -5 -102.5t-5 -102.5v-207q0 -11 -5 -54.5t-5 -47.5l-31 -31 l-41 -51l-20 -21h-223l-21 10l-10 21q-5 0 -20.5 -10.5t-20.5 -10.5l-10 -10q-5 0 -46 -5t-46 -5h-21h-10q-5 0 -25.5 5t-25.5 5l-11 10l-10 21q-20 40 -20 72l-11 51v411zM451 0l10 -20l10 -41h21h30l10 10q0 10 5.5 56t5.5 56q0 4 -5.5 130.5t-5.5 168.5q0 17 -5 96.5 t-5 88.5q0 10 -10 107.5t-10 107.5v71v64l10 31q21 10 31 10q5 0 30.5 5t30.5 5h41h31l20 -10l11 -10v-596q0 -30 5 -190t5 -191h100q0 31 5 211t5 211v245q0 10 5.5 123t5.5 123v53v41q0 5 -5.5 41t-5.5 41q-5 0 -20 10.5t-19 10.5q-5 0 -35.5 5t-35.5 5q-13 0 -131 -5 t-146 -5q-41 -10 -51 -10l-41 -11q-5 -5 -40 -20.5t-40 -20.5l-20 -20l-31 -41q0 -5 -10 -20.5t-10 -20.5t-10.5 -32t-10.5 -32t-5 -30.5t-5 -30.5v-51v-51q0 -5 5 -31t5 -31q21 -41 31 -51l10 -10l72 -41h110l21 -10q10 -21 10 -31q0 -5 5 -25.5t5 -25.5v-279 q0 -10 5.5 -66.5t5.5 -66.5z" />
<glyph unicode="&#xb7;" horiz-adv-x="385" d="M45 610l10 92q0 7 29 35t45 35q31 10 41 10h125q5 0 20.5 -10t20.5 -10l10 -21q0 -4 5 -46.5t5 -53.5v-41q0 -5 -20.5 -40.5t-20.5 -39.5l-10 -31l-10 -10l-23 -10q-5 0 -20.5 -5t-20.5 -5q-10 0 -72.5 -10.5t-72.5 -10.5l-20 11q-11 20 -11 30q0 5 -5 30t-5 30v71z M242 641h-82l-43 -10q-11 -41 -11 -51v-70l125 10q11 19 11 29v92z" />
<glyph unicode="&#xb8;" horiz-adv-x="493" d="M45 -385v10l10 31q0 4 5.5 39.5t5.5 40.5q49 31 69 41q4 4 25 13.5t46 21t32 14.5h-113l-19 20v70l9 41l30 20l41 31l21 21l69 59h82q4 0 16.5 -5t23.5 -10l10 -5v-39l-21 -31q0 -4 -2 -9.5t-4 -8.5l-2 -3l70 -69v-82l-11 -21l-10 -10q0 -5 -15.5 -29.5t-15.5 -29.5 l-18 -10q-5 0 -25.5 -20.5t-25.5 -20.5l-41 -21l-31 -18q-5 0 -29.5 -10.5t-29.5 -10.5l-21 -10l-41 -10h-80zM307 -195q-10 -20 -20 -28l-31 -31q-29 -20 -39 -20q-5 0 -41 -15.5t-41 -15.5q-4 0 -9 -2.5t-8 -4.5l-3 -3l-9 -29h19l31 8l41 10q5 5 45 26t45 26l20 20 q31 31 31 39l10 20v52l-10 20q-8 7 -31 19t-31 12h-38l-11 8v10q0 12 29 41l51 51l-10 11h-10q-21 -21 -31 -21l-18 -20q-5 -5 -36 -31t-36 -31q-10 -18 -10 -28v-21q10 0 55 -5t55 -5l31 -10l10 -21v-31z" />
<glyph unicode="&#xb9;" horiz-adv-x="479" d="M104 842q-5 0 -28 4t-27 4l-20 6q-9 15 -9 21q0 3 -5 36t-5 41v21q0 3 9.5 17t9.5 18q0 3 19.5 16.5t19.5 17.5l26 27l10 14l9 7l12 14l8 20l19 23l10 12l8 29l10 6l19 8l73 21h86q5 0 28.5 -4t27.5 -4t8.5 -3.5t7.5 -6.5l2 -3l17 -624q-43 -111 -43 -117l-11 -14l-8 -9 l-18 -34q0 -5 -11 -13t-18 -8h-113l-28 -6h-47l-9 6l-10 14q0 3 -4 31.5t-4 32.5q0 13 -6 144.5t-6 146.5q0 7 -4.5 44.5t-4.5 43.5zM180 440l8 -6h48l55 6l10 49v631q-10 6 -18 6h-66l-18 -12l-19 -22l-18 -13l-19 -28l-10 -7q-2 -2 -26.5 -30t-30.5 -33l-8 -14v-6 q0 -3 4 -28t4 -28q5 0 33.5 -4t33.5 -4l19 -12v-56q0 -4 4 -31t4 -30q0 -24 5 -164t5 -164z" />
<glyph unicode="&#xba;" horiz-adv-x="841" d="M41 891q0 5 10 30.5t10 30.5l11 41l10 21l10 30q0 5 20.5 37t20.5 37l10 31q0 4 7.5 12t15.5 13l8 6l123 61h184q7 0 42 -11.5t50 -19.5q31 -20 41 -20q4 0 12 -5t14 -11l5 -5l72 -71q20 -21 20 -31l11 -23q0 -5 10 -25.5t10 -25.5l10 -30v-134q-10 -20 -10 -30 q-4 -14 -17 -40t-23 -45l-11 -20l-103 -102l-20 -10q-5 0 -36 -20.5t-36 -20.5q-7 -7 -34 -14t-37 -7h-205q-5 0 -20.5 5t-20.5 5q-31 21 -41 31l-10 10l-41 31q-9 9 -25 32t-16 30q0 4 -10.5 38.5t-10.5 45.5q0 5 -5 40.5t-5 40.5v62zM102 850q0 -4 5.5 -47.5t5.5 -54.5 q0 -5 10 -32t10 -32q0 -4 5.5 -14.5t10.5 -18.5l5 -8q41 -31 61 -41l21 -10l40 -10h103q9 0 38.5 6.5t43.5 13.5l20 10q4 4 17 12t24 14l10 5l11 21l30 43q0 4 5.5 11.5t10.5 13.5l5 5q0 5 10 20.5t10 20.5q0 4 3 12t5 14l3 5v113q0 9 -7 38.5t-14 43.5q0 4 -5 14t-10 18 l-5 8l-92 95q-5 0 -26 5t-26 5h-61q-5 0 -36 -5t-36 -5l-31 -11l-81 -41q-21 -20 -21 -32q0 -5 -10 -20.5t-10 -20.5l-11 -31q-20 -41 -20 -51q-7 -14 -14 -43.5t-7 -38.5zM174 809v10l10 113l11 31l20 30l10 21l72 73l20 11h52q7 0 42 -11.5t50 -19.5l20 -12q9 -4 24.5 -17 t26.5 -24l11 -10q20 -42 20 -52q0 -5 5 -25.5t5 -25.5v-51q0 -13 -15 -52.5t-26 -60.5l-30 -20l-21 -23q-5 0 -20.5 -15t-20.5 -15l-20 -11l-41 -10h-41q-5 0 -25.5 5t-25.5 5q-21 11 -31 21l-41 33q-21 51 -31 61q-10 31 -10 41zM328 788q0 -9 6.5 -31.5t13.5 -29.5l10 -10 q8 0 26.5 6.5t25.5 13.5q20 31 30 41q0 4 5 12t11 14l5 5l10 20l10 11l21 10v92l-10 21l-21 10h-31l-20 10l-31 21l-20 -11q-11 -10 -11 -20l-10 -31q-4 -9 -9 -29.5t-8 -36.5l-3 -16v-72z" />
</font>
</defs>
</svg>
